<svg width="307" height="227" viewBox="0 0 307 227" fill="none" xmlns="http://www.w3.org/2000/svg">
<path d="M214.442 102C209.764 111.75 202.713 120.945 202.254 131.757C202.057 136.355 203.37 141.376 207.082 144.074C209.023 145.484 211.452 146.124 213.852 146.18C220.068 146.321 225.909 142.654 229.809 137.784C233.71 132.923 235.95 126.962 237.919 121.039C241.22 111.082 266.815 101.454 267.134 90.9709C267.453 80.4876 242.354 69.0546 236.55 60.3295C234.507 57.2644 226.453 48.0127 221.821 49.9778C217.405 51.8488 220.724 60.0662 221.099 63.7801C222.374 76.8019 220.105 90.1905 214.442 102Z" fill="#322A7F"/>
<path d="M88.8073 162.549C93.5796 163 97.0861 167.09 99.9645 170.936C104.08 176.445 107.99 182.105 111.703 187.888C115.875 194.403 119.832 201.154 125.167 206.758C135.349 217.457 149.937 223.193 164.592 224.791C179.255 226.38 194.069 224.142 208.433 220.786C211.02 220.184 213.889 219.573 216.215 220.851C217.64 221.632 218.652 223.052 219.177 224.593C219.346 225.101 219.459 225.599 219.543 226.107H221.662C230.719 215.671 236.316 202.151 238.529 188.386C241.426 170.4 239.063 151.943 235.004 134.183C233.794 128.89 232.378 123.493 229.266 119.036C227.831 116.977 225.928 115.087 223.5 114.448C217.527 112.878 212.596 119.318 210.514 125.138C205.882 138.122 205.92 152.338 202.132 165.595C198.344 178.852 188.678 192.213 174.961 193.266C165.754 193.971 157.016 188.884 150.209 182.623C141.115 174.264 134.336 163.649 128.729 152.62C121.088 137.586 112.031 132.603 98.7737 144.403C92.9514 149.593 88.1885 155.986 84.8601 163.057C86.0977 162.615 87.4197 162.417 88.8073 162.549Z" fill="#C8E4FF"/>
<path d="M98.7643 216C103.415 219.516 108.196 222.91 113.1 226.107H219.533C219.458 225.609 219.346 225.101 219.168 224.593C218.643 223.052 217.63 221.632 216.205 220.851C213.871 219.573 211.011 220.174 208.423 220.786C180.577 227.292 148.821 229.247 126.704 207.707C119.391 200.581 114.047 191.837 108.515 183.318C104.155 176.605 97.9205 163.405 88.7978 162.549C87.4102 162.417 86.0883 162.624 84.8413 163.057C82.4692 168.087 80.8191 173.446 80.0596 178.965C79.2346 184.926 79.394 191.16 81.5879 196.754C84.785 204.868 91.8168 210.754 98.7643 216Z" fill="#BFD9EF"/>
<path d="M215.793 47.4674C215.605 43.6596 217.865 40.0116 221.006 37.5012C222.346 36.4294 224.025 35.1319 223.649 33.5335C223.368 32.3583 222.037 31.6531 220.79 31.277C213.421 29.0299 202.854 32.236 199.826 39.7671C198.757 42.4373 198.963 45.7751 200.951 47.8529C203.876 50.9086 209.23 50.1846 212.38 53.0053C218.287 58.2892 215.971 51.0778 215.793 47.4674Z" fill="#322A7F"/>
<path d="M101.718 175.731C102.421 171.989 102.627 168.077 104.221 164.627C105.637 161.543 108.065 159.042 109.631 156.033C113.859 147.919 111.112 138.019 107.737 129.52C104.362 121.02 100.33 112.003 102.271 103.062C102.871 100.288 104.052 97.4772 103.433 94.7036C102.402 90.0495 96.2985 87.8776 91.9763 89.8521C87.654 91.8265 85.2632 96.725 84.9069 101.473C84.56 106.221 85.8914 110.913 87.2227 115.492C79.8346 111.562 70.2807 114.138 64.0271 119.713C57.7828 125.289 54.2388 133.271 51.5573 141.216C46.8601 155.121 44.8912 172.261 54.9514 182.933C68.5087 197.29 97.4048 198.54 101.718 175.731Z" fill="#FDD7C1"/>
<path d="M74.3967 184.428C76.9376 184.277 79.5909 182.98 80.4347 180.686C81.0817 178.937 80.5754 177.028 80.4535 175.176C80.0878 169.648 83.5944 164.082 88.8636 161.787C89.2761 161.609 89.7355 161.411 89.923 161.016C90.0543 160.744 90.0262 160.434 90.0074 160.142C89.7355 154.999 93.0264 150.373 96.1673 146.199C96.7861 145.371 97.7424 144.441 98.7269 144.807C99.1581 144.967 99.4582 145.343 99.6832 145.729C100.996 147.948 100.527 150.787 99.3269 153.072C98.1268 155.356 96.2798 157.246 94.714 159.315C94.3484 159.794 93.9827 160.368 94.1234 160.941C94.2359 161.402 94.6297 161.74 94.9766 162.079C101.061 168.04 95.6235 182.416 89.773 186.694C83.6225 191.197 69.737 191.978 63.5209 187.23C61.1863 185.453 60.9332 183.093 64.4584 182.782C67.7587 182.491 71.0027 184.635 74.3967 184.428Z" fill="#FCBFAB"/>
<path d="M70.3089 151.567C67.7024 150.176 64.946 148.747 61.9926 148.794C61.6926 148.803 61.3738 148.822 61.1113 148.963C60.53 149.273 60.3612 150.063 60.5581 150.693C60.755 151.323 61.2238 151.812 61.702 152.273C66.2773 156.71 74.2655 161.882 80.9598 161.703C84.5601 161.609 83.8006 159.305 81.3911 157.491C78.1846 155.074 73.8529 153.467 70.3089 151.567Z" fill="#FCBFAB"/>
<path d="M72.7559 130.309C70.4214 129.294 67.6743 128.325 65.4241 129.519C67.1023 134.503 70.112 139.006 73.9935 142.532C77.1813 145.437 83.3412 150.129 87.9728 149.311C94.3483 148.192 90.4855 141.93 87.7196 139.269C83.5193 135.217 78.0438 132.613 72.7559 130.309Z" fill="#FCBFAB"/>
<path d="M287.742 226.107C298.046 199.64 303.053 171.97 301.384 143.124C301.074 137.784 300.315 132.331 297.84 127.592C295.627 123.352 292.149 119.901 288.436 116.902C270.172 102.188 256.962 97.449 234.675 104.717C226.631 107.34 218.136 112.68 217.077 121.095C216.74 123.765 218.061 126.492 217.518 129.125C208.479 172.647 209.483 165.454 206.032 181.203C203.313 193.614 200.698 206.043 198.776 218.604C198.466 220.663 197.997 223.24 197.529 226.107H287.742Z" fill="#AAD4FF"/>
<path d="M238.801 103.476C238.801 103.476 235.65 109.267 243.836 110.537C252.011 111.797 252.649 120.635 252.649 120.635C252.649 120.635 234.6 143.303 232.922 139.222C231.244 135.142 235.022 103.363 238.801 103.476Z" fill="#81B7FF"/>
<path d="M234.122 125.138C233.766 127.319 233.466 129.501 233.241 131.701C233.025 133.722 232.875 135.762 232.8 137.793C232.735 139.42 233.203 142.024 232.622 143.444C231.469 142.955 231.197 141.122 230.953 140.022C229.247 132.256 227.541 124.499 225.834 116.733C225.759 116.366 225.675 115.999 225.74 115.633C225.815 115.238 226.059 114.89 226.303 114.57C227.859 112.511 229.725 110.687 231.825 109.192C229.988 109.042 228.15 108.882 226.312 108.731C229.088 105.027 231.966 101.219 235.922 98.8123C236.841 98.2575 238.698 97.355 239.738 98.1259C241.22 99.226 238.248 106.475 237.826 108.092C236.823 112.022 235.876 115.962 235.079 119.939C234.722 121.669 234.404 123.399 234.122 125.138Z" fill="white"/>
<path d="M249.18 114.316C243.47 114.316 238.801 109.634 238.801 103.908V89.3914C238.801 83.6655 243.47 78.9833 249.18 78.9833C254.89 78.9833 259.559 83.6655 259.559 89.3914V103.908C259.568 109.634 254.89 114.316 249.18 114.316Z" fill="#FCBFAB"/>
<path d="M256.221 107.575C257.393 106.531 258.612 105.46 259.259 104.03C259.906 102.601 259.821 100.702 258.621 99.6961C264.359 104.181 269.328 109.662 273.229 115.821C270.097 116.31 266.966 116.789 263.834 117.278C265.512 119.224 267.181 121.18 268.859 123.126C269.122 123.436 269.403 123.784 269.403 124.189C269.403 124.922 268.569 125.307 267.866 125.524C256.849 128.993 246.442 134.427 237.282 141.479C235.613 142.767 232.866 146.481 232.153 143.265C231.703 141.244 233.757 137.304 234.516 135.452C236.607 130.328 239.607 125.599 243.02 121.264C246.967 116.281 251.486 111.778 256.221 107.575Z" fill="white"/>
<path d="M269.056 59.4833C267.95 53.9737 266.103 48.6145 263.571 43.6032C260.909 38.338 255.846 36.5046 250.249 35.4798C244.295 34.3797 238.238 33.8344 232.191 33.8344C226.875 33.8344 220.48 34.7652 216.627 38.8269C211.62 44.1015 215.474 52.6668 213.12 59.2201C212.061 62.1911 210.495 63.2912 209.867 66.375C208.573 72.7497 211.949 81.1175 217.143 85.01C222.337 88.9119 228.975 90.3974 235.454 90.7829C248.373 91.5444 266.684 87.7084 269.581 72.6368C270.313 68.829 270.013 64.8801 269.347 61.0535C269.253 60.5269 269.159 60.0004 269.056 59.4833Z" fill="#FDD7C1"/>
<path d="M227.766 62.6612C232.969 63.2818 238.21 62.1723 243.329 61.0723C248.458 59.9722 253.69 58.8722 258.893 59.5115C261.462 59.8312 264.462 60.4423 266.337 58.6465C268.597 56.4841 267.331 52.6292 265.447 50.1282C260.684 43.81 253.014 40.1338 245.214 38.9586C237.404 37.7833 229.425 38.8739 221.728 40.6603C218.727 41.3561 216.702 42.3809 215.174 45.0605C210.233 53.7104 220.659 61.815 227.766 62.6612Z" fill="#FCBFAB"/>
<path d="M211.255 47.4768C226.847 41.7509 244.464 46.7999 259.465 51.8676C262.221 52.7984 266.084 56.6533 269.159 56.1832C272.478 55.666 273.997 51.3223 274.879 48.6427C276.576 43.4715 277.429 36.3824 277.476 30.9291C277.523 24.94 276.904 18.5842 273.36 13.7609C270.641 10.0471 266.422 7.63076 261.987 6.41789C257.552 5.20502 252.892 5.1016 248.308 5.32725C238.004 5.83496 227.625 8.04445 218.68 13.1968C209.061 18.744 198.626 30.0359 198.747 41.9484C198.776 44.4211 200.116 48.323 202.47 49.047C205.592 50.0154 208.273 48.5769 211.255 47.4768Z" fill="#322A7F"/>
<path d="M257.74 91.1778C257.646 91.7513 257.58 92.3342 257.534 92.9266C257.158 97.8344 258.602 102.714 260.646 107.19C262.512 111.27 264.978 115.219 268.616 117.842C275.676 122.929 290.592 122.618 289.599 111.157C288.07 93.5565 291.418 77.0934 293.171 59.7372C294.437 47.1572 294.821 30.8257 283.326 22.5895C281.695 21.4142 279.801 20.521 277.795 20.3988C268.7 19.8535 265.653 31.0984 264.687 38.1688C263.112 49.771 268.934 60.0192 265.09 71.7625C262.943 78.3627 258.827 84.3989 257.74 91.1778Z" fill="#322A7F"/>
<path d="M275.61 69.5154C278.562 69.5154 280.954 66.1267 280.954 61.9467C280.954 57.7666 278.562 54.378 275.61 54.378C272.659 54.378 270.266 57.7666 270.266 61.9467C270.266 66.1267 272.659 69.5154 275.61 69.5154Z" fill="#FCBFAB"/>
<g opacity="0.73">
<path opacity="0.73" d="M215.399 72.1479C217.752 75.5233 221.803 76.7268 225.684 77.2627C230.053 77.8644 235.06 77.6482 237.826 73.6711C238.519 72.6745 236.888 71.7248 236.194 72.7121C233.878 76.031 229.247 75.89 225.703 75.3635C222.543 74.8934 218.962 73.9625 217.03 71.1889C216.336 70.2017 214.696 71.1419 215.399 72.1479Z" fill="#EC5965"/>
</g>
<path d="M239.776 58.7499C240.811 58.7499 241.651 57.0662 241.651 54.9891C241.651 52.9121 240.811 51.2283 239.776 51.2283C238.74 51.2283 237.901 52.9121 237.901 54.9891C237.901 57.0662 238.74 58.7499 239.776 58.7499Z" fill="#322A7F"/>
<path d="M97.3392 107.001C97.8643 106.917 98.4081 106.813 98.9238 106.973C99.4863 107.152 100.049 107.566 100.302 108.13C102.262 112.417 102.852 113.94 101.83 118.19C101.699 118.745 101.54 119.318 101.183 119.732C100.771 120.211 100.171 120.418 99.5801 120.522C94.714 121.377 89.0511 116.206 87.2791 112.756C86.4071 111.054 87.2416 106.089 89.0792 105.215C90.6825 104.454 91.5544 106.202 92.9608 106.785C94.339 107.359 95.9141 107.237 97.3392 107.001Z" fill="#FCBFAB"/>
<path d="M76.2157 135.339C79.966 137.662 83.7163 139.993 87.4666 142.316C90.3544 144.112 93.9453 146.979 97.2924 144.506C99.8333 142.626 100.733 139.307 100.996 136.298C101.258 133.309 100.743 130.319 99.3832 127.639C97.7612 124.433 95.0985 121.932 92.3045 119.77C91.9014 119.459 91.2544 119.713 91.0107 120.108C90.72 120.597 90.945 121.095 91.3482 121.405C95.6329 124.715 99.1676 129.04 99.1769 134.709C99.1769 137.37 98.6894 140.511 96.7486 142.485C94.1422 145.127 90.8138 142.165 88.4136 140.68C84.6633 138.357 80.913 136.026 77.1627 133.703C76.1407 133.064 75.1844 134.7 76.2157 135.339Z" fill="#312A79"/>
<path d="M96.8986 142.983C98.1737 147.355 97.9581 152.573 94.9953 156.25C92.4732 159.371 87.8322 161.148 84.0069 159.484C82.9006 159.004 81.9443 160.631 83.0506 161.12C86.5665 162.643 90.6075 162.051 93.7483 159.907C97.1705 157.575 99.0269 153.758 99.4488 149.696C99.6926 147.28 99.4019 144.807 98.7269 142.485C98.3706 141.319 96.5517 141.817 96.8986 142.983Z" fill="#312A79"/>
<path d="M91.2637 160.518C92.6138 163.847 91.6481 167.711 89.2761 170.334C86.7821 173.098 83.1162 174.518 79.4971 174.979C78.3064 175.129 78.297 177.028 79.4971 176.868C83.6787 176.332 87.9447 174.772 90.7762 171.49C93.4389 168.407 94.6671 163.894 93.092 160.01C92.6326 158.901 90.8043 159.39 91.2637 160.518Z" fill="#312A79"/>
<path d="M65.443 170.221C63.1365 169.695 60.7363 169.187 58.2518 169.215C57.4455 169.225 56.4985 169.347 56.1704 169.751C55.8047 170.202 56.3954 170.71 56.986 171.086C60.577 173.352 65.3961 174.969 70.5809 175.806C72.878 176.173 81.1568 176.859 78.6909 174.067C77.0971 172.243 68.6307 170.955 65.443 170.221Z" fill="#FCBFAB"/>
<path d="M276.144 61.3919C272.6 64.9177 268.869 68.3119 264.519 70.8316C260.271 73.295 255.471 74.7711 250.586 75.1378C247.802 75.3446 244.998 75.213 242.251 74.7053C241.06 74.489 240.554 76.3131 241.745 76.5293C246.864 77.4601 252.133 77.2721 257.159 75.9182C262.193 74.5643 266.712 72.0163 270.782 68.7914C273.144 66.9204 275.338 64.8519 277.476 62.727C278.338 61.8714 277.007 60.5363 276.144 61.3919Z" fill="white"/>
<path d="M276.294 42.9544C275.948 44.816 275.516 46.593 275.01 48.2102C275.282 51.1248 275.498 54.0395 275.685 56.9541C275.76 58.167 277.654 58.1764 277.57 56.9541C277.27 52.3283 276.895 47.6272 276.294 42.9544Z" fill="#81B7FF"/>
<path d="M264.397 10.0565C263.365 8.712 262.25 7.42392 261.068 6.19224C256.952 1.9425 251.936 -1.46106 246.226 -3.06882C238.81 -5.15608 230.775 -3.63295 224.315 0.485172C220.996 2.60064 217.893 5.35546 215.333 8.34532C212.746 11.3634 210.58 14.9174 210.27 18.9697C210.261 19.1389 210.289 19.28 210.345 19.4022C211.002 18.791 211.667 18.2081 212.342 17.644C212.905 14.8234 214.527 12.2472 216.336 10.0659C218.455 7.50854 220.977 5.20502 223.65 3.23058C229.481 -1.07558 237.048 -3.16284 244.211 -1.6115C249.461 -0.473842 253.99 2.12114 257.834 5.60931C264.631 11.7771 269.244 20.7185 271.728 29.2932C273.51 35.4704 274.419 41.8262 275.019 48.2196C275.526 46.6024 275.948 44.8254 276.304 42.9638C274.766 31.1924 271.747 19.6466 264.397 10.0565Z" fill="#81B7FF"/>
<path d="M238.173 79.9329C241.476 79.9329 244.154 78.2365 244.154 76.1438C244.154 74.0512 241.476 72.3548 238.173 72.3548C234.869 72.3548 232.191 74.0512 232.191 76.1438C232.191 78.2365 234.869 79.9329 238.173 79.9329Z" fill="#322A7F"/>
<path d="M276.238 72.1197C280.236 72.1197 283.476 67.4262 283.476 61.6364C283.476 55.8466 280.236 51.153 276.238 51.153C272.241 51.153 269 55.8466 269 61.6364C269 67.4262 272.241 72.1197 276.238 72.1197Z" fill="#81B7FF"/>
<path d="M112.425 226.107H122.523L81.0442 195.202C89.2949 207.482 100.068 218.003 112.425 226.107Z" fill="#312A79"/>
<path d="M233.86 90.1059C240.779 90.6888 247.773 90.2281 254.561 88.7614L233.86 90.1059Z" fill="#312A79"/>
<path d="M303.653 226.107C304.122 222.544 304.562 218.971 304.956 215.379C302.978 219.168 300.624 222.741 297.98 226.107H303.653Z" fill="#BFD9EF"/>
<path d="M297.98 226.107C300.624 222.741 302.978 219.168 304.956 215.379C308.209 185.631 308.463 155.309 299.012 127.113C298.102 124.405 296.968 121.537 294.596 119.958C275.413 107.19 266.206 162.446 265.803 170.541C265.325 180.056 266.131 189.683 264.565 199.076C262.99 208.478 258.509 218.021 250.22 222.675C246.779 224.603 243.001 225.543 239.091 226.107H297.98Z" fill="#C8E4FF"/>
<path d="M19.6423 145.249C19.6423 144.779 19.6704 144.309 19.6798 143.839C15.742 143.839 11.8042 143.839 7.86636 143.839C5.79432 143.839 3.70352 143.773 1.63148 143.839C1.53772 143.839 1.45334 143.839 1.35958 143.839C-0.449939 143.839 -0.449939 146.66 1.35958 146.66C2.7847 146.66 4.20982 146.66 5.63493 146.66C9.53525 146.66 13.4356 146.66 17.3359 146.66C18.1141 146.66 18.9016 146.66 19.6798 146.66C19.6704 146.189 19.6423 145.719 19.6423 145.249Z" fill="white"/>
<path d="M26.8618 92.4282C29.6183 95.1925 32.3654 97.9473 35.1218 100.711C35.6844 101.276 36.2376 101.83 36.8001 102.394C37.447 101.718 38.1127 101.05 38.7878 100.401C36.0125 97.6182 33.2373 94.8352 30.4621 92.0522C28.9807 90.5666 27.5462 89.0435 26.0273 87.605C25.9617 87.5392 25.8961 87.4733 25.8398 87.4169C24.5554 86.1289 22.5677 88.1221 23.8522 89.4102C24.846 90.4068 25.8492 91.4128 26.8618 92.4282Z" fill="white"/>
<path d="M81.5223 83.1954C81.9911 83.1954 82.4599 83.2236 82.9287 83.233C82.9287 79.2841 82.9287 75.3353 82.9287 71.3864C82.9287 69.3085 82.9943 67.2118 82.9287 65.134C82.9287 65.04 82.9287 64.9553 82.9287 64.8613C82.9287 63.0467 80.116 63.0467 80.116 64.8613C80.116 66.2904 80.116 67.7196 80.116 69.1487C80.116 73.0599 80.116 76.9712 80.116 80.8825C80.116 81.6629 80.116 82.4526 80.116 83.233C80.5848 83.2142 81.0535 83.1954 81.5223 83.1954Z" fill="white"/>
<path d="M126.245 102.385C129.02 99.6021 131.795 96.819 134.571 94.036C136.052 92.5505 137.571 91.112 139.005 89.5888C139.071 89.523 139.137 89.4572 139.193 89.4008C140.477 88.1127 138.49 86.1195 137.205 87.4075C136.202 88.4136 135.199 89.4196 134.186 90.435C131.43 93.1992 128.683 95.954 125.926 98.7183C125.364 99.2824 124.81 99.8371 124.248 100.401C124.942 101.041 125.598 101.708 126.245 102.385Z" fill="white"/>
<path d="M36.7906 188.104C34.0154 190.887 31.2401 193.67 28.4649 196.453C26.9835 197.939 25.4647 199.377 24.0302 200.9C23.9645 200.966 23.8989 201.032 23.8427 201.088C22.5582 202.376 24.5458 204.37 25.8303 203.081C26.8335 202.075 27.8367 201.069 28.8493 200.054C31.6058 197.29 34.3529 194.535 37.1094 191.771C37.6719 191.207 38.2251 190.652 38.7876 190.088C38.1032 189.448 37.4469 188.781 36.7906 188.104Z" fill="white"/>
<path d="M136.183 198.07C133.427 195.306 130.679 192.551 127.923 189.787C127.36 189.223 126.807 188.668 126.245 188.104C125.598 188.781 124.932 189.448 124.257 190.097C127.032 192.88 129.808 195.663 132.583 198.446C134.064 199.932 135.499 201.455 137.017 202.893C137.083 202.959 137.149 203.025 137.205 203.081C138.489 204.37 140.477 202.376 139.193 201.088C138.199 200.082 137.186 199.076 136.183 198.07Z" fill="white"/>
<path d="M161.685 143.839C160.26 143.839 158.835 143.839 157.41 143.839C153.51 143.839 149.609 143.839 145.709 143.839C144.931 143.839 144.143 143.839 143.365 143.839C143.374 144.309 143.402 144.779 143.402 145.249C143.402 145.719 143.374 146.189 143.365 146.66C147.303 146.66 151.241 146.66 155.178 146.66C157.25 146.66 159.341 146.725 161.413 146.66C161.507 146.66 161.591 146.66 161.685 146.66C163.495 146.66 163.495 143.839 161.685 143.839Z" fill="white"/>
<path d="M81.5224 207.303C81.0537 207.303 80.5849 207.275 80.1161 207.265C80.1161 211.214 80.1161 215.163 80.1161 219.112C80.1161 221.19 80.0505 223.287 80.1161 225.364C80.1161 225.458 80.1161 225.543 80.1161 225.637C80.1161 227.452 82.9288 227.452 82.9288 225.637C82.9288 224.208 82.9288 222.779 82.9288 221.35C82.9288 217.438 82.9288 213.527 82.9288 209.616C82.9288 208.836 82.9288 208.046 82.9288 207.265C82.46 207.275 81.9912 207.303 81.5224 207.303Z" fill="white"/>
<path d="M223.875 65.3314C225.687 65.3314 227.156 64.3927 227.156 63.2347C227.156 62.0768 225.687 61.1381 223.875 61.1381C222.062 61.1381 220.593 62.0768 220.593 63.2347C220.593 64.3927 222.062 65.3314 223.875 65.3314Z" fill="#FB8D85"/>
<path d="M209.258 21.0946C209.314 24.705 212.164 28.0709 215.708 28.7009C217.762 29.0675 219.862 28.6068 221.915 28.2496C234.019 26.1341 243.536 29.2086 255.105 31.5873C262.025 33.007 260.787 28.9735 256.277 25.0152C250.005 19.5056 244.079 25.2127 236.954 26.3597C233.522 26.9051 209.342 26.9333 209.258 21.0946Z" fill="#4639C5"/>
</svg>
