<svg width="220" height="220" viewBox="0 0 220 220" fill="none" xmlns="http://www.w3.org/2000/svg">
<path fill-rule="evenodd" clip-rule="evenodd" d="M10 0C4.47715 0 0 4.47715 0 10C0 15.5228 4.47715 20 10 20C15.5228 20 20 15.5228 20 10C20 4.47715 15.5228 0 10 0ZM50 0C44.4772 0 40 4.47715 40 10C40 15.5228 44.4772 20 50 20C55.5228 20 60 15.5228 60 10C60 4.47715 55.5228 0 50 0ZM80 10C80 4.47715 84.4771 0 90 0C95.5229 0 100 4.47715 100 10C100 15.5228 95.5229 20 90 20C84.4771 20 80 15.5228 80 10ZM130 0C124.477 0 120 4.47715 120 10C120 15.5228 124.477 20 130 20C135.523 20 140 15.5228 140 10C140 4.47715 135.523 0 130 0ZM160 10C160 4.47715 164.477 0 170 0C175.523 0 180 4.47715 180 10C180 15.5228 175.523 20 170 20C164.477 20 160 15.5228 160 10ZM210 0C204.477 0 200 4.47715 200 10C200 15.5228 204.477 20 210 20C215.523 20 220 15.5228 220 10C220 4.47715 215.523 0 210 0ZM0 50C0 44.4772 4.47715 40 10 40C15.5228 40 20 44.4772 20 50C20 55.5228 15.5228 60 10 60C4.47715 60 0 55.5228 0 50ZM50 40C44.4772 40 40 44.4772 40 50C40 55.5228 44.4772 60 50 60C55.5228 60 60 55.5228 60 50C60 44.4772 55.5228 40 50 40ZM80 50C80 44.4772 84.4771 40 90 40C95.5229 40 100 44.4772 100 50C100 55.5228 95.5229 60 90 60C84.4771 60 80 55.5228 80 50ZM130 40C124.477 40 120 44.4772 120 50C120 55.5228 124.477 60 130 60C135.523 60 140 55.5228 140 50C140 44.4772 135.523 40 130 40ZM160 50C160 44.4772 164.477 40 170 40C175.523 40 180 44.4772 180 50C180 55.5228 175.523 60 170 60C164.477 60 160 55.5228 160 50ZM210 40C204.477 40 200 44.4772 200 50C200 55.5228 204.477 60 210 60C215.523 60 220 55.5228 220 50C220 44.4772 215.523 40 210 40ZM0 90C0 84.4771 4.47715 80 10 80C15.5228 80 20 84.4771 20 90C20 95.5229 15.5228 100 10 100C4.47715 100 0 95.5229 0 90ZM50 80C44.4772 80 40 84.4771 40 90C40 95.5229 44.4772 100 50 100C55.5228 100 60 95.5229 60 90C60 84.4771 55.5228 80 50 80ZM80 90C80 84.4771 84.4771 80 90 80C95.5229 80 100 84.4771 100 90C100 95.5229 95.5229 100 90 100C84.4771 100 80 95.5229 80 90ZM130 80C124.477 80 120 84.4771 120 90C120 95.5229 124.477 100 130 100C135.523 100 140 95.5229 140 90C140 84.4771 135.523 80 130 80ZM160 90C160 84.4771 164.477 80 170 80C175.523 80 180 84.4771 180 90C180 95.5229 175.523 100 170 100C164.477 100 160 95.5229 160 90ZM210 80C204.477 80 200 84.4771 200 90C200 95.5229 204.477 100 210 100C215.523 100 220 95.5229 220 90C220 84.4771 215.523 80 210 80ZM0 130C0 124.477 4.47715 120 10 120C15.5228 120 20 124.477 20 130C20 135.523 15.5228 140 10 140C4.47715 140 0 135.523 0 130ZM50 120C44.4772 120 40 124.477 40 130C40 135.523 44.4772 140 50 140C55.5228 140 60 135.523 60 130C60 124.477 55.5228 120 50 120ZM80 130C80 124.477 84.4771 120 90 120C95.5229 120 100 124.477 100 130C100 135.523 95.5229 140 90 140C84.4771 140 80 135.523 80 130ZM130 120C124.477 120 120 124.477 120 130C120 135.523 124.477 140 130 140C135.523 140 140 135.523 140 130C140 124.477 135.523 120 130 120ZM160 130C160 124.477 164.477 120 170 120C175.523 120 180 124.477 180 130C180 135.523 175.523 140 170 140C164.477 140 160 135.523 160 130ZM210 120C204.477 120 200 124.477 200 130C200 135.523 204.477 140 210 140C215.523 140 220 135.523 220 130C220 124.477 215.523 120 210 120ZM0 170C0 164.477 4.47715 160 10 160C15.5228 160 20 164.477 20 170C20 175.523 15.5228 180 10 180C4.47715 180 0 175.523 0 170ZM50 160C44.4772 160 40 164.477 40 170C40 175.523 44.4772 180 50 180C55.5228 180 60 175.523 60 170C60 164.477 55.5228 160 50 160ZM80 170C80 164.477 84.4771 160 90 160C95.5229 160 100 164.477 100 170C100 175.523 95.5229 180 90 180C84.4771 180 80 175.523 80 170ZM130 160C124.477 160 120 164.477 120 170C120 175.523 124.477 180 130 180C135.523 180 140 175.523 140 170C140 164.477 135.523 160 130 160ZM160 170C160 164.477 164.477 160 170 160C175.523 160 180 164.477 180 170C180 175.523 175.523 180 170 180C164.477 180 160 175.523 160 170ZM210 160C204.477 160 200 164.477 200 170C200 175.523 204.477 180 210 180C215.523 180 220 175.523 220 170C220 164.477 215.523 160 210 160ZM0 210C0 204.477 4.47715 200 10 200C15.5228 200 20 204.477 20 210C20 215.523 15.5228 220 10 220C4.47715 220 0 215.523 0 210ZM50 200C44.4772 200 40 204.477 40 210C40 215.523 44.4772 220 50 220C55.5228 220 60 215.523 60 210C60 204.477 55.5228 200 50 200ZM80 210C80 204.477 84.4771 200 90 200C95.5229 200 100 204.477 100 210C100 215.523 95.5229 220 90 220C84.4771 220 80 215.523 80 210ZM130 200C124.477 200 120 204.477 120 210C120 215.523 124.477 220 130 220C135.523 220 140 215.523 140 210C140 204.477 135.523 200 130 200ZM160 210C160 204.477 164.477 200 170 200C175.523 200 180 204.477 180 210C180 215.523 175.523 220 170 220C164.477 220 160 215.523 160 210ZM210 200C204.477 200 200 204.477 200 210C200 215.523 204.477 220 210 220C215.523 220 220 215.523 220 210C220 204.477 215.523 200 210 200Z" fill="#E6E6E7"/>
</svg>
