<svg width="28" height="28" viewBox="0 0 28 28" fill="none" xmlns="http://www.w3.org/2000/svg">
<path d="M10 27.3125C9.625 27.3125 9.3125 27.1875 9.0625 26.9375C8.8125 26.6875 8.6875 26.375 8.6875 26V22H3.3125C2.5625 22 1.9375 21.75 1.4375 21.25C0.9375 20.7083 0.6875 20.0625 0.6875 19.3125V3.3125C0.6875 2.5625 0.9375 1.9375 1.4375 1.4375C1.9375 0.9375 2.5625 0.6875 3.3125 0.6875H24.6875C25.4375 0.6875 26.0625 0.9375 26.5625 1.4375C27.0625 1.9375 27.3125 2.5625 27.3125 3.3125V19.3125C27.3125 20.0625 27.0625 20.7083 26.5625 21.25C26.0625 21.75 25.4375 22 24.6875 22H16.5625L11.625 26.9375C11.3333 27.1875 11.0208 27.3125 10.6875 27.3125H10ZM11.3125 19.3125V23.4375L15.4375 19.3125H24.6875V3.3125H3.3125V19.3125H11.3125ZM19.3125 16.6875H8.6875V15.3125C8.77083 14.4375 9.41667 13.7917 10.625 13.375C11.875 12.9167 13 12.6875 14 12.6875C15 12.6875 16.1042 12.9167 17.3125 13.375C18.5625 13.7917 19.2292 14.4375 19.3125 15.3125V16.6875ZM14 6C14.75 6 15.375 6.27083 15.875 6.8125C16.375 7.3125 16.625 7.9375 16.625 8.6875C16.625 9.4375 16.375 10.0625 15.875 10.5625C15.375 11.0625 14.75 11.3125 14 11.3125C13.25 11.3125 12.625 11.0625 12.125 10.5625C11.625 10.0625 11.375 9.4375 11.375 8.6875C11.375 7.9375 11.625 7.3125 12.125 6.8125C12.625 6.27083 13.25 6 14 6Z" fill="white"/>
</svg>
