<svg width="195" height="32" viewBox="0 0 195 32" fill="none" xmlns="http://www.w3.org/2000/svg">
<path d="M55.704 21C55.5867 20.616 55.4533 20.2213 55.304 19.816C55.1653 19.4107 55.0267 19.0053 54.888 18.6H50.568C50.4293 19.0053 50.2853 19.4107 50.136 19.816C49.9973 20.2213 49.8693 20.616 49.752 21H47.16C47.576 19.8053 47.9707 18.7013 48.344 17.688C48.7173 16.6747 49.08 15.72 49.432 14.824C49.7947 13.928 50.1467 13.08 50.488 12.28C50.84 11.4693 51.2027 10.68 51.576 9.912H53.96C54.3227 10.68 54.68 11.4693 55.032 12.28C55.384 13.08 55.736 13.928 56.088 14.824C56.4507 15.72 56.8187 16.6747 57.192 17.688C57.5653 18.7013 57.96 19.8053 58.376 21H55.704ZM52.712 12.424C52.6587 12.584 52.5787 12.8027 52.472 13.08C52.3653 13.3573 52.2427 13.6773 52.104 14.04C51.9653 14.4027 51.8107 14.8027 51.64 15.24C51.48 15.6773 51.3147 16.136 51.144 16.616H54.296C54.1253 16.136 53.96 15.6773 53.8 15.24C53.64 14.8027 53.4853 14.4027 53.336 14.04C53.1973 13.6773 53.0747 13.3573 52.968 13.08C52.8613 12.8027 52.776 12.584 52.712 12.424ZM59.5713 10.488L61.9553 10.104V12.584H64.8193V14.568H61.9553V17.528C61.9553 18.0293 62.0406 18.4293 62.2113 18.728C62.3926 19.0267 62.7499 19.176 63.2833 19.176C63.5393 19.176 63.8006 19.1547 64.0673 19.112C64.3446 19.0587 64.5953 18.9893 64.8193 18.904L65.1553 20.76C64.8673 20.8773 64.5473 20.9787 64.1953 21.064C63.8433 21.1493 63.4113 21.192 62.8993 21.192C62.2486 21.192 61.7099 21.1067 61.2833 20.936C60.8566 20.7547 60.5153 20.5093 60.2593 20.2C60.0033 19.88 59.8219 19.496 59.7153 19.048C59.6193 18.6 59.5713 18.104 59.5713 17.56V10.488ZM66.0481 16.856C66.0481 16.1093 66.1601 15.4587 66.3841 14.904C66.6188 14.3387 66.9228 13.8693 67.2961 13.496C67.6695 13.1227 68.0961 12.84 68.5761 12.648C69.0668 12.456 69.5681 12.36 70.0801 12.36C71.2748 12.36 72.2188 12.728 72.9121 13.464C73.6055 14.1893 73.9521 15.2613 73.9521 16.68C73.9521 16.8187 73.9468 16.9733 73.9361 17.144C73.9255 17.304 73.9148 17.448 73.9041 17.576H68.4961C68.5495 18.0667 68.7788 18.456 69.1841 18.744C69.5895 19.032 70.1335 19.176 70.8161 19.176C71.2535 19.176 71.6801 19.1387 72.0961 19.064C72.5228 18.9787 72.8695 18.8773 73.1361 18.76L73.4561 20.696C73.3281 20.76 73.1575 20.824 72.9441 20.888C72.7308 20.952 72.4908 21.0053 72.2241 21.048C71.9681 21.1013 71.6908 21.144 71.3921 21.176C71.0935 21.208 70.7948 21.224 70.4961 21.224C69.7388 21.224 69.0775 21.112 68.5121 20.888C67.9575 20.664 67.4935 20.36 67.1201 19.976C66.7575 19.5813 66.4855 19.1173 66.3041 18.584C66.1335 18.0507 66.0481 17.4747 66.0481 16.856ZM71.6481 15.944C71.6375 15.7413 71.6001 15.544 71.5361 15.352C71.4828 15.16 71.3921 14.9893 71.2641 14.84C71.1468 14.6907 70.9921 14.568 70.8001 14.472C70.6188 14.376 70.3895 14.328 70.1121 14.328C69.8455 14.328 69.6161 14.376 69.4241 14.472C69.2321 14.5573 69.0721 14.6747 68.9441 14.824C68.8161 14.9733 68.7148 15.1493 68.6401 15.352C68.5761 15.544 68.5281 15.7413 68.4961 15.944H71.6481ZM75.7919 12.872C76.1972 12.7547 76.7199 12.648 77.3599 12.552C77.9999 12.4453 78.6719 12.392 79.3759 12.392C80.0905 12.392 80.6825 12.488 81.1519 12.68C81.6319 12.8613 82.0105 13.1227 82.2879 13.464C82.5652 13.8053 82.7625 14.2107 82.8799 14.68C82.9972 15.1493 83.0559 15.672 83.0559 16.248V21H80.6719V16.536C80.6719 15.768 80.5705 15.224 80.3679 14.904C80.1652 14.584 79.7865 14.424 79.2319 14.424C79.0612 14.424 78.8799 14.4347 78.6879 14.456C78.4959 14.4667 78.3252 14.4827 78.1759 14.504V21H75.7919V12.872ZM84.8138 16.792C84.8138 16.184 84.9098 15.6133 85.1018 15.08C85.3044 14.536 85.5924 14.0667 85.9658 13.672C86.3391 13.2667 86.7924 12.9467 87.3258 12.712C87.8591 12.4773 88.4671 12.36 89.1498 12.36C89.5978 12.36 90.0084 12.4027 90.3818 12.488C90.7551 12.5627 91.1178 12.6747 91.4698 12.824L90.9738 14.728C90.7498 14.6427 90.5044 14.568 90.2378 14.504C89.9711 14.44 89.6724 14.408 89.3418 14.408C88.6378 14.408 88.1098 14.6267 87.7578 15.064C87.4164 15.5013 87.2458 16.0773 87.2458 16.792C87.2458 17.5493 87.4058 18.136 87.7258 18.552C88.0564 18.968 88.6271 19.176 89.4378 19.176C89.7258 19.176 90.0351 19.1493 90.3658 19.096C90.6964 19.0427 91.0004 18.9573 91.2778 18.84L91.6138 20.792C91.3364 20.9093 90.9898 21.0107 90.5738 21.096C90.1578 21.1813 89.6991 21.224 89.1978 21.224C88.4298 21.224 87.7684 21.112 87.2138 20.888C86.6591 20.6533 86.2004 20.3387 85.8378 19.944C85.4858 19.5493 85.2244 19.0853 85.0538 18.552C84.8938 18.008 84.8138 17.4213 84.8138 16.792ZM95.5978 21H93.2138V12.584H95.5978V21ZM95.8218 10.152C95.8218 10.5893 95.6778 10.936 95.3898 11.192C95.1124 11.4373 94.7818 11.56 94.3978 11.56C94.0138 11.56 93.6778 11.4373 93.3898 11.192C93.1124 10.936 92.9738 10.5893 92.9738 10.152C92.9738 9.71467 93.1124 9.37333 93.3898 9.128C93.6778 8.872 94.0138 8.744 94.3978 8.744C94.7818 8.744 95.1124 8.872 95.3898 9.128C95.6778 9.37333 95.8218 9.71467 95.8218 10.152ZM105.711 16.776C105.711 17.4373 105.615 18.0453 105.423 18.6C105.231 19.144 104.953 19.6133 104.591 20.008C104.228 20.392 103.791 20.6907 103.279 20.904C102.777 21.1173 102.212 21.224 101.583 21.224C100.964 21.224 100.399 21.1173 99.8868 20.904C99.3854 20.6907 98.9534 20.392 98.5908 20.008C98.2281 19.6133 97.9454 19.144 97.7428 18.6C97.5401 18.0453 97.4388 17.4373 97.4388 16.776C97.4388 16.1147 97.5401 15.512 97.7428 14.968C97.9561 14.424 98.2441 13.96 98.6068 13.576C98.9801 13.192 99.4174 12.8933 99.9188 12.68C100.431 12.4667 100.985 12.36 101.583 12.36C102.191 12.36 102.745 12.4667 103.247 12.68C103.759 12.8933 104.196 13.192 104.559 13.576C104.921 13.96 105.204 14.424 105.407 14.968C105.609 15.512 105.711 16.1147 105.711 16.776ZM103.279 16.776C103.279 16.04 103.129 15.464 102.831 15.048C102.543 14.6213 102.127 14.408 101.583 14.408C101.039 14.408 100.617 14.6213 100.319 15.048C100.02 15.464 99.8708 16.04 99.8708 16.776C99.8708 17.512 100.02 18.0987 100.319 18.536C100.617 18.9627 101.039 19.176 101.583 19.176C102.127 19.176 102.543 18.9627 102.831 18.536C103.129 18.0987 103.279 17.512 103.279 16.776ZM103.551 9.56L100.911 11.784L99.8228 10.808L102.095 8.216L103.551 9.56ZM107.558 12.872C107.963 12.7547 108.486 12.648 109.126 12.552C109.766 12.4453 110.438 12.392 111.141 12.392C111.856 12.392 112.448 12.488 112.918 12.68C113.398 12.8613 113.776 13.1227 114.054 13.464C114.331 13.8053 114.528 14.2107 114.646 14.68C114.763 15.1493 114.822 15.672 114.822 16.248V21H112.438V16.536C112.438 15.768 112.336 15.224 112.134 14.904C111.931 14.584 111.552 14.424 110.998 14.424C110.827 14.424 110.646 14.4347 110.454 14.456C110.262 14.4667 110.091 14.4827 109.942 14.504V21H107.558V12.872ZM126.039 21.224C124.236 21.224 122.86 20.7227 121.911 19.72C120.972 18.7173 120.503 17.2933 120.503 15.448C120.503 14.5307 120.647 13.7147 120.935 13C121.223 12.2747 121.618 11.6667 122.119 11.176C122.62 10.6747 123.218 10.296 123.911 10.04C124.604 9.784 125.356 9.656 126.167 9.656C126.636 9.656 127.063 9.69333 127.447 9.768C127.831 9.832 128.167 9.912 128.455 10.008C128.743 10.0933 128.983 10.184 129.175 10.28C129.367 10.376 129.506 10.4507 129.591 10.504L128.871 12.52C128.53 12.3387 128.13 12.184 127.671 12.056C127.223 11.928 126.711 11.864 126.135 11.864C125.751 11.864 125.372 11.928 124.999 12.056C124.636 12.184 124.311 12.392 124.023 12.68C123.746 12.9573 123.522 13.32 123.351 13.768C123.18 14.216 123.095 14.76 123.095 15.4C123.095 15.912 123.148 16.392 123.255 16.84C123.372 17.2773 123.554 17.656 123.799 17.976C124.055 18.296 124.386 18.552 124.791 18.744C125.196 18.9253 125.687 19.016 126.263 19.016C126.626 19.016 126.951 18.9947 127.239 18.952C127.527 18.9093 127.783 18.8613 128.007 18.808C128.231 18.744 128.428 18.6747 128.599 18.6C128.77 18.5253 128.924 18.456 129.063 18.392L129.751 20.392C129.399 20.6053 128.903 20.7973 128.263 20.968C127.623 21.1387 126.882 21.224 126.039 21.224ZM133.048 15.448C133.048 15.992 133.112 16.4827 133.24 16.92C133.379 17.3573 133.571 17.736 133.816 18.056C134.072 18.3653 134.381 18.6053 134.744 18.776C135.107 18.9467 135.523 19.032 135.992 19.032C136.451 19.032 136.861 18.9467 137.224 18.776C137.597 18.6053 137.907 18.3653 138.152 18.056C138.408 17.736 138.6 17.3573 138.728 16.92C138.867 16.4827 138.936 15.992 138.936 15.448C138.936 14.904 138.867 14.4133 138.728 13.976C138.6 13.528 138.408 13.1493 138.152 12.84C137.907 12.52 137.597 12.2747 137.224 12.104C136.861 11.9333 136.451 11.848 135.992 11.848C135.523 11.848 135.107 11.9387 134.744 12.12C134.381 12.2907 134.072 12.536 133.816 12.856C133.571 13.1653 133.379 13.544 133.24 13.992C133.112 14.4293 133.048 14.9147 133.048 15.448ZM141.512 15.448C141.512 16.3973 141.368 17.2347 141.08 17.96C140.803 18.6747 140.419 19.2773 139.928 19.768C139.437 20.248 138.851 20.6107 138.168 20.856C137.496 21.1013 136.771 21.224 135.992 21.224C135.235 21.224 134.52 21.1013 133.848 20.856C133.176 20.6107 132.589 20.248 132.088 19.768C131.587 19.2773 131.192 18.6747 130.904 17.96C130.616 17.2347 130.472 16.3973 130.472 15.448C130.472 14.4987 130.621 13.6667 130.92 12.952C131.219 12.2267 131.619 11.6187 132.12 11.128C132.632 10.6373 133.219 10.2693 133.88 10.024C134.552 9.77867 135.256 9.656 135.992 9.656C136.749 9.656 137.464 9.77867 138.136 10.024C138.808 10.2693 139.395 10.6373 139.896 11.128C140.397 11.6187 140.792 12.2267 141.08 12.952C141.368 13.6667 141.512 14.4987 141.512 15.448ZM146.482 21C146.045 20.072 145.613 19.1067 145.186 18.104C144.76 17.1013 144.354 16.1093 143.97 15.128C143.586 14.1467 143.229 13.208 142.898 12.312C142.578 11.416 142.301 10.616 142.066 9.912H144.818C145.032 10.552 145.261 11.2453 145.506 11.992C145.762 12.728 146.018 13.464 146.274 14.2C146.541 14.936 146.797 15.64 147.042 16.312C147.288 16.984 147.517 17.5653 147.73 18.056C147.933 17.5653 148.157 16.984 148.402 16.312C148.658 15.64 148.914 14.936 149.17 14.2C149.437 13.464 149.693 12.728 149.938 11.992C150.194 11.2453 150.429 10.552 150.642 9.912H153.298C153.053 10.616 152.77 11.416 152.45 12.312C152.13 13.208 151.778 14.1467 151.394 15.128C151.01 16.1093 150.605 17.1013 150.178 18.104C149.752 19.1067 149.32 20.072 148.882 21H146.482ZM154.733 9.912H157.229V21H154.733V9.912ZM162.292 18.968C162.409 18.9787 162.542 18.9893 162.692 19C162.852 19 163.038 19 163.252 19C164.5 19 165.422 18.6853 166.02 18.056C166.628 17.4267 166.932 16.5573 166.932 15.448C166.932 14.2853 166.644 13.4053 166.068 12.808C165.492 12.2107 164.58 11.912 163.332 11.912C163.161 11.912 162.985 11.9173 162.804 11.928C162.622 11.928 162.452 11.9387 162.292 11.96V18.968ZM169.508 15.448C169.508 16.408 169.358 17.2453 169.06 17.96C168.761 18.6747 168.334 19.2667 167.78 19.736C167.236 20.2053 166.569 20.5573 165.78 20.792C164.99 21.0267 164.105 21.144 163.124 21.144C162.676 21.144 162.153 21.1227 161.556 21.08C160.958 21.048 160.372 20.9733 159.796 20.856V10.056C160.372 9.94933 160.969 9.88 161.588 9.848C162.217 9.80533 162.756 9.784 163.204 9.784C164.153 9.784 165.012 9.89067 165.78 10.104C166.558 10.3173 167.225 10.6533 167.78 11.112C168.334 11.5707 168.761 12.1573 169.06 12.872C169.358 13.5867 169.508 14.4453 169.508 15.448ZM171.025 15.144H175.665V17.304H171.025V15.144ZM177.183 12.216C177.492 12.088 177.812 11.944 178.143 11.784C178.484 11.6133 178.815 11.432 179.135 11.24C179.455 11.0373 179.759 10.8293 180.047 10.616C180.345 10.392 180.612 10.1573 180.847 9.912H182.511V21H180.127V13.016C179.807 13.2293 179.449 13.4267 179.055 13.608C178.66 13.7787 178.276 13.928 177.903 14.056L177.183 12.216ZM189.78 15.048C190.026 15.048 190.282 15.0267 190.548 14.984C190.815 14.9307 191.012 14.8613 191.14 14.776V14.632C191.14 14.5893 191.14 14.5467 191.14 14.504C191.151 14.4613 191.156 14.424 191.156 14.392C191.146 14.008 191.114 13.6507 191.06 13.32C191.007 12.9787 190.916 12.6853 190.788 12.44C190.66 12.184 190.484 11.9867 190.26 11.848C190.047 11.6987 189.78 11.624 189.46 11.624C189.204 11.624 188.98 11.6773 188.788 11.784C188.596 11.8907 188.442 12.0293 188.324 12.2C188.207 12.3707 188.116 12.5573 188.052 12.76C187.999 12.9627 187.972 13.16 187.972 13.352C187.972 13.928 188.111 14.3547 188.388 14.632C188.676 14.9093 189.14 15.048 189.78 15.048ZM190.948 16.6C190.724 16.7067 190.474 16.7867 190.196 16.84C189.93 16.8827 189.7 16.904 189.508 16.904C188.815 16.904 188.223 16.824 187.732 16.664C187.242 16.4933 186.836 16.2587 186.516 15.96C186.207 15.6507 185.978 15.2827 185.828 14.856C185.679 14.4293 185.604 13.96 185.604 13.448C185.604 13.0213 185.674 12.584 185.812 12.136C185.962 11.688 186.191 11.2827 186.5 10.92C186.81 10.5467 187.199 10.2427 187.668 10.008C188.148 9.76267 188.724 9.64 189.396 9.64C190.772 9.64 191.807 10.0667 192.5 10.92C193.204 11.7627 193.556 12.9787 193.556 14.568C193.556 15.6133 193.418 16.536 193.14 17.336C192.874 18.136 192.452 18.808 191.876 19.352C191.311 19.896 190.586 20.312 189.7 20.6C188.815 20.8773 187.764 21.0213 186.548 21.032C186.538 20.6907 186.522 20.36 186.5 20.04C186.479 19.72 186.458 19.3893 186.436 19.048C187.044 19.0373 187.594 18.9947 188.084 18.92C188.575 18.8347 189.007 18.7013 189.38 18.52C189.754 18.328 190.068 18.0773 190.324 17.768C190.591 17.4587 190.799 17.0693 190.948 16.6Z" fill="white"/>
<path d="M29.0625 13.875C28.9394 13.875 28.8175 13.8992 28.7037 13.9463C28.59 13.9934 28.4866 14.0625 28.3995 14.1495C28.3125 14.2366 28.2434 14.34 28.1963 14.4537C28.1492 14.5675 28.125 14.6894 28.125 14.8125V15.75H25.5452C25.3169 13.8062 24.5531 11.964 23.3389 10.429L25.1647 8.60309L25.8996 9.22534C25.9866 9.31256 26.0899 9.38177 26.2037 9.42902C26.3175 9.47627 26.4394 9.50063 26.5626 9.5007C26.6858 9.50078 26.8078 9.47657 26.9217 9.42946C27.0355 9.38236 27.1389 9.31327 27.2261 9.22617C27.3132 9.13906 27.3823 9.03563 27.4294 8.9218C27.4765 8.80797 27.5007 8.68597 27.5007 8.56277C27.5006 8.43957 27.4763 8.3176 27.429 8.20382C27.3818 8.09003 27.3126 7.98668 27.2254 7.89966L24.1004 4.77466C23.9246 4.59885 23.6862 4.50007 23.4376 4.50006C23.189 4.50005 22.9505 4.59881 22.7747 4.7746C22.5989 4.9504 22.5001 5.18884 22.5001 5.43746C22.5001 5.68609 22.5989 5.92453 22.7747 6.10034L23.3969 6.83521L21.5711 8.66107C20.036 7.44698 18.1938 6.68321 16.25 6.45496V3.875H17.1875C17.4361 3.875 17.6746 3.77623 17.8504 3.60041C18.0262 3.4246 18.125 3.18614 18.125 2.9375C18.125 2.68886 18.0262 2.4504 17.8504 2.27459C17.6746 2.09877 17.4361 2 17.1875 2H12.8125C12.5639 2 12.3254 2.09877 12.1496 2.27459C11.9738 2.4504 11.875 2.68886 11.875 2.9375C11.875 3.18614 11.9738 3.4246 12.1496 3.60041C12.3254 3.77623 12.5639 3.875 12.8125 3.875H13.75V6.45496C11.8062 6.68321 9.96403 7.44698 8.42896 8.66107L6.60309 6.83521L7.22537 6.10034C7.31241 6.01329 7.38146 5.90995 7.42857 5.79621C7.47567 5.68247 7.49992 5.56057 7.49991 5.43746C7.49991 5.31436 7.47565 5.19246 7.42854 5.07872C7.38142 4.96499 7.31237 4.86165 7.22532 4.7746C7.13826 4.68756 7.03492 4.61851 6.92118 4.5714C6.80744 4.5243 6.68554 4.50006 6.56243 4.50006C6.31381 4.50007 6.07537 4.59885 5.89957 4.77466L2.84661 7.89966C2.67152 8.07562 2.57337 8.31384 2.57369 8.56208C2.574 8.81031 2.67276 9.04828 2.8483 9.2238C3.02383 9.39931 3.26182 9.49804 3.51005 9.49833C3.75828 9.49862 3.99649 9.40045 4.17244 9.22534L4.83536 8.60309L6.66111 10.429C5.44691 11.964 4.68308 13.8062 4.45484 15.75H1.875V14.8125C1.875 14.5639 1.77623 14.3254 1.60041 14.1496C1.4246 13.9738 1.18614 13.875 0.9375 13.875C0.68886 13.875 0.450403 13.9738 0.274587 14.1496C0.098772 14.3254 0 14.5639 0 14.8125L0 19.1875C0 19.4361 0.098772 19.6746 0.274587 19.8504C0.450403 20.0262 0.68886 20.125 0.9375 20.125C1.18614 20.125 1.4246 20.0262 1.60041 19.8504C1.77623 19.6746 1.875 19.4361 1.875 19.1875V18.25H4.45484C4.68307 20.1938 5.4469 22.036 6.66109 23.571L4.83536 25.3969L4.10047 24.7747C3.9246 24.5992 3.68627 24.5007 3.43782 24.5008C3.18938 24.5009 2.95114 24.5997 2.77545 24.7753C2.59976 24.951 2.50099 25.1892 2.50084 25.4377C2.50069 25.6861 2.59916 25.9245 2.77463 26.1003L5.89957 29.2253C5.98662 29.3124 6.08996 29.3815 6.20369 29.4286C6.31743 29.4757 6.43933 29.4999 6.56243 29.4999C6.68554 29.4999 6.80744 29.4757 6.92118 29.4286C7.03492 29.3815 7.13826 29.3124 7.22532 29.2254C7.31237 29.1384 7.38142 29.035 7.42854 28.9213C7.47565 28.8075 7.49991 28.6856 7.49991 28.5625C7.49992 28.4394 7.47567 28.3175 7.42857 28.2038C7.38146 28.0901 7.31241 27.9867 7.22537 27.8997L6.60309 27.1648L8.42888 25.3389C9.96397 26.553 11.8062 27.3168 13.75 27.545V30.125H12.8125C12.5639 30.125 12.3254 30.2238 12.1496 30.3996C11.9738 30.5754 11.875 30.8139 11.875 31.0625C11.875 31.3111 11.9738 31.5496 12.1496 31.7254C12.3254 31.9012 12.5639 32 12.8125 32H17.1875C17.4361 32 17.6746 31.9012 17.8504 31.7254C18.0262 31.5496 18.125 31.3111 18.125 31.0625C18.125 30.8139 18.0262 30.5754 17.8504 30.3996C17.6746 30.2238 17.4361 30.125 17.1875 30.125H16.25V27.545C18.1938 27.3168 20.036 26.553 21.5711 25.3389L23.3969 27.1648L22.7746 27.8997C22.5988 28.0755 22.5001 28.3139 22.5001 28.5625C22.5001 28.8112 22.5989 29.0496 22.7747 29.2254C22.9505 29.4012 23.1889 29.5 23.4376 29.4999C23.6862 29.4999 23.9246 29.4012 24.1004 29.2253L27.2254 26.1003C27.3126 26.0133 27.3818 25.91 27.429 25.7962C27.4762 25.6824 27.5006 25.5604 27.5007 25.4372C27.5007 25.314 27.4765 25.192 27.4294 25.0782C27.3823 24.9644 27.3132 24.8609 27.226 24.7738C27.1389 24.6867 27.0355 24.6176 26.9217 24.5705C26.8078 24.5234 26.6858 24.4992 26.5626 24.4993C26.4394 24.4994 26.3174 24.5237 26.2037 24.571C26.0899 24.6182 25.9865 24.6874 25.8995 24.7747L25.1646 25.3969L23.3389 23.571C24.5531 22.036 25.3169 20.1938 25.5452 18.25H28.125V19.1875C28.125 19.4361 28.2238 19.6746 28.3996 19.8504C28.5754 20.0262 28.8139 20.125 29.0625 20.125C29.3111 20.125 29.5496 20.0262 29.7254 19.8504C29.9012 19.6746 30 19.4361 30 19.1875V14.8125C30 14.6894 29.9758 14.5675 29.9287 14.4537C29.8816 14.34 29.8125 14.2366 29.7255 14.1495C29.6384 14.0625 29.535 13.9934 29.4213 13.9463C29.3075 13.8992 29.1856 13.875 29.0625 13.875ZM11.5625 14.5C11.1299 14.5 10.7069 14.3717 10.3472 14.1313C9.98746 13.891 9.70708 13.5493 9.54151 13.1496C9.37595 12.7499 9.33263 12.3101 9.41703 11.8857C9.50144 11.4614 9.70978 11.0716 10.0157 10.7657C10.3216 10.4598 10.7114 10.2514 11.1357 10.167C11.5601 10.0826 11.9999 10.1259 12.3996 10.2915C12.7993 10.4571 13.141 10.7375 13.3813 11.0972C13.6217 11.4569 13.75 11.8799 13.75 12.3125C13.75 12.5998 13.6934 12.8842 13.5835 13.1496C13.4736 13.415 13.3124 13.6562 13.1093 13.8593C12.9062 14.0624 12.665 14.2236 12.3996 14.3335C12.1342 14.4434 11.8498 14.5 11.5625 14.5ZM18.75 22.625C18.5028 22.625 18.2611 22.5517 18.0555 22.4143C17.85 22.277 17.6898 22.0818 17.5951 21.8534C17.5005 21.6249 17.4758 21.3736 17.524 21.1311C17.5723 20.8887 17.6913 20.6659 17.8661 20.4911C18.0409 20.3163 18.2637 20.1973 18.5061 20.149C18.7486 20.1008 18.9999 20.1255 19.2284 20.2201C19.4568 20.3148 19.652 20.475 19.7893 20.6805C19.9267 20.8861 20 21.1278 20 21.375C20 21.7065 19.8683 22.0245 19.6339 22.2589C19.3995 22.4933 19.0815 22.625 18.75 22.625Z" fill="white"/>
</svg>
