<?xml version="1.0" encoding="UTF-8"?>
<svg width="281px" height="109px" viewBox="0 0 281 109" version="1.1" xmlns="http://www.w3.org/2000/svg" xmlns:xlink="http://www.w3.org/1999/xlink">
    <!-- Generator: Sketch 61.2 (89653) - https://sketch.com -->
    <title>Group 2</title>
    <desc>Created with Sketch.</desc>
    <g id="App-1.1-Collection" stroke="none" stroke-width="1" fill="none" fill-rule="evenodd">
        <g id="01-" transform="translate(-34.000000, -187.000000)" fill="#FFFFFF">
            <g id="Group-2" transform="translate(34.750000, 187.771484)">
                <path d="M13.55,42.1785156 C15.95,42.1785156 18.2,41.5785156 20.3,40.3785156 C22.4,39.1785156 24.0583333,37.5785156 25.275,35.5785156 C26.4916667,33.5785156 27.1,31.3951823 27.1,29.0285156 L27.1,29.0285156 L27.05,5.52851562 L21.45,8.52851562 L21.45,17.6285156 C19.05,15.9285156 16.4166667,15.0785156 13.55,15.0785156 C11.1166667,15.0785156 8.86666667,15.6785156 6.8,16.8785156 C4.7,18.111849 3.04166667,19.7701823 1.825,21.8535156 C0.608333333,23.936849 2.84217094e-14,26.1951823 2.84217094e-14,28.6285156 C2.84217094e-14,31.0951823 0.616666667,33.3451823 1.85,35.3785156 C3.05,37.4785156 4.69166667,39.136849 6.775,40.3535156 C8.85833333,41.5701823 11.1166667,42.1785156 13.55,42.1785156 Z M13.55,36.5285156 C12.0833333,36.5285156 10.7666667,36.161849 9.6,35.4285156 C8.4,34.7285156 7.44166667,33.7701823 6.725,32.5535156 C6.00833333,31.336849 5.65,30.0285156 5.65,28.6285156 C5.65,27.161849 6.01666667,25.8451823 6.75,24.6785156 C7.45,23.4785156 8.40833333,22.5201823 9.625,21.8035156 C10.8416667,21.086849 12.15,20.7285156 13.55,20.7285156 C14.9833333,20.7285156 16.3,21.0785156 17.5,21.7785156 C18.7,22.511849 19.6583333,23.486849 20.375,24.7035156 C21.0916667,25.9201823 21.45,27.2285156 21.45,28.6285156 C21.45,30.061849 21.1,31.3785156 20.4,32.5785156 C19.6666667,33.7785156 18.6916667,34.736849 17.475,35.4535156 C16.2583333,36.1701823 14.95,36.5285156 13.55,36.5285156 Z M35.0173913,12.7785156 C36.0507246,12.7785156 36.9257246,12.4201823 37.6423913,11.7035156 C38.359058,10.986849 38.7173913,10.111849 38.7173913,9.07851562 C38.7173913,8.07851562 38.359058,7.22018229 37.6423913,6.50351562 C36.9257246,5.78684896 36.0507246,5.42851562 35.0173913,5.42851562 C33.984058,5.42851562 33.109058,5.78684896 32.3923913,6.50351562 C31.6757246,7.22018229 31.3173913,8.07851562 31.3173913,9.07851562 C31.3173913,10.111849 31.6757246,10.986849 32.3923913,11.7035156 C33.109058,12.4201823 33.984058,12.7785156 35.0173913,12.7785156 Z M38.4173913,42.2785156 L38.4173913,15.1285156 L31.8673913,15.1285156 L31.8673913,42.2785156 L38.4173913,42.2785156 Z M56.4847826,42.1285156 C59.3514493,42.1285156 61.9847826,41.2785156 64.3847826,39.5785156 L64.3847826,39.5785156 L64.3847826,41.9785156 L69.9847826,41.9785156 L70.0347826,28.1785156 C70.0347826,25.811849 69.4181159,23.611849 68.1847826,21.5785156 C66.9514493,19.5785156 65.2931159,17.986849 63.2097826,16.8035156 C61.1264493,15.6201823 58.8847826,15.0285156 56.4847826,15.0285156 C54.0514493,15.0285156 51.8014493,15.6285156 49.7347826,16.8285156 C47.6347826,18.061849 45.9764493,19.7201823 44.7597826,21.8035156 C43.5431159,23.886849 42.9347826,26.1451823 42.9347826,28.5785156 C42.9347826,31.0451823 43.5514493,33.2951823 44.7847826,35.3285156 C45.9847826,37.4285156 47.6264493,39.086849 49.7097826,40.3035156 C51.7931159,41.5201823 54.0514493,42.1285156 56.4847826,42.1285156 Z M56.4847826,36.4785156 C55.0181159,36.4785156 53.7014493,36.111849 52.5347826,35.3785156 C51.3347826,34.6785156 50.3764493,33.7201823 49.6597826,32.5035156 C48.9431159,31.286849 48.5847826,29.9785156 48.5847826,28.5785156 C48.5847826,27.111849 48.9514493,25.7951823 49.6847826,24.6285156 C50.3847826,23.4285156 51.3431159,22.4701823 52.5597826,21.7535156 C53.7764493,21.036849 55.0847826,20.6785156 56.4847826,20.6785156 C57.9181159,20.6785156 59.2347826,21.0285156 60.4347826,21.7285156 C61.6347826,22.461849 62.5931159,23.436849 63.3097826,24.6535156 C64.0264493,25.8701823 64.3847826,27.1785156 64.3847826,28.5785156 C64.3847826,30.011849 64.0347826,31.3285156 63.3347826,32.5285156 C62.6014493,33.7285156 61.6264493,34.686849 60.4097826,35.4035156 C59.1931159,36.1201823 57.8847826,36.4785156 56.4847826,36.4785156 Z M89.0021739,51.5785156 C90.8688406,51.5785156 92.7355072,51.0951823 94.6021739,50.1285156 C96.4688406,49.1285156 97.9188406,47.7201823 98.9521739,45.9035156 C99.9855072,44.086849 100.502174,42.0951823 100.502174,39.9285156 C100.502174,38.3285156 100.202174,36.761849 99.6021739,35.2285156 C100.768841,33.161849 101.352174,30.911849 101.352174,28.4785156 C101.352174,26.011849 100.735507,23.761849 99.5021739,21.7285156 C98.2688406,19.661849 96.6105072,18.036849 94.5271739,16.8535156 C92.4438406,15.6701823 90.1855072,15.0785156 87.7521739,15.0785156 C85.2521739,15.0785156 82.9855072,15.6951823 80.9521739,16.9285156 C78.8855072,18.161849 77.2521739,19.8201823 76.0521739,21.9035156 C74.8521739,23.986849 74.2521739,26.2451823 74.2521739,28.6785156 C74.2521739,31.1785156 74.8688406,33.4451823 76.1021739,35.4785156 C77.3355072,37.5451823 78.9938406,39.1785156 81.0771739,40.3785156 C83.1605072,41.5785156 85.4188406,42.1785156 87.8521739,42.1785156 C90.4855072,42.1785156 92.9188406,41.461849 95.1521739,40.0285156 C95.1855072,40.1285156 95.2021739,40.3785156 95.2021739,40.7785156 C95.2021739,41.8785156 94.9521739,42.8451823 94.4521739,43.6785156 C93.9521739,44.5785156 93.1938406,45.311849 92.1771739,45.8785156 C91.1605072,46.4451823 90.1021739,46.7285156 89.0021739,46.7285156 C88.2021739,46.7285156 87.4105072,46.586849 86.6271739,46.3035156 C85.8438406,46.0201823 85.1355072,45.611849 84.5021739,45.0785156 L84.5021739,45.0785156 L80.0521739,47.5285156 C81.1855072,48.8285156 82.5355072,49.8285156 84.1021739,50.5285156 C85.6688406,51.2285156 87.3021739,51.5785156 89.0021739,51.5785156 Z M87.8521739,36.5285156 C86.4855072,36.5285156 85.1688406,36.1785156 83.9021739,35.4785156 C82.6688406,34.7785156 81.6938406,33.8201823 80.9771739,32.6035156 C80.2605072,31.386849 79.9021739,30.0785156 79.9021739,28.6785156 C79.9021739,27.2785156 80.2521739,25.961849 80.9521739,24.7285156 C81.6521739,23.4951823 82.6105072,22.5201823 83.8271739,21.8035156 C85.0438406,21.086849 86.3521739,20.7285156 87.7521739,20.7285156 C89.1521739,20.7285156 90.4688406,21.0785156 91.7021739,21.7785156 C92.9355072,22.4785156 93.9105072,23.436849 94.6271739,24.6535156 C95.3438406,25.8701823 95.7021739,27.1785156 95.7021739,28.5785156 C95.7021739,29.9451823 95.3521739,31.261849 94.6521739,32.5285156 C93.9521739,33.761849 92.9938406,34.736849 91.7771739,35.4535156 C90.5605072,36.1701823 89.2521739,36.5285156 87.8521739,36.5285156 Z M111.169565,42.1785156 L111.169565,27.0285156 C111.169565,25.0951823 111.836232,23.5701823 113.169565,22.4535156 C114.502899,21.336849 116.136232,20.7785156 118.069565,20.7785156 C119.969565,20.7785156 121.586232,21.336849 122.919565,22.4535156 C124.252899,23.5701823 124.919565,25.0951823 124.919565,27.0285156 L124.919565,27.0285156 L124.919565,42.1785156 L130.519565,42.1785156 L130.619565,27.0285156 C130.619565,24.6951823 130.036232,22.5951823 128.869565,20.7285156 C127.669565,18.961849 126.119565,17.586849 124.219565,16.6035156 C122.319565,15.6201823 120.269565,15.1285156 118.069565,15.1285156 C115.936232,15.1285156 113.902899,15.611849 111.969565,16.5785156 C110.002899,17.5785156 108.444565,18.986849 107.294565,20.8035156 C106.144565,22.6201823 105.569565,24.6951823 105.569565,27.0285156 L105.569565,27.0285156 L105.569565,42.1785156 L111.169565,42.1785156 Z M148.386957,42.1785156 C150.853623,42.1785156 153.12029,41.561849 155.186957,40.3285156 C157.253623,39.1285156 158.89529,37.486849 160.111957,35.4035156 C161.328623,33.3201823 161.936957,31.061849 161.936957,28.6285156 C161.936957,26.1951823 161.336957,23.9285156 160.136957,21.8285156 C158.903623,19.761849 157.236957,18.1201823 155.136957,16.9035156 C153.036957,15.686849 150.786957,15.0785156 148.386957,15.0785156 C145.953623,15.0785156 143.703623,15.6785156 141.636957,16.8785156 C139.536957,18.111849 137.878623,19.7701823 136.661957,21.8535156 C135.44529,23.936849 134.836957,26.1951823 134.836957,28.6285156 C134.836957,31.0951823 135.453623,33.3451823 136.686957,35.3785156 C137.886957,37.4785156 139.528623,39.136849 141.611957,40.3535156 C143.69529,41.5701823 145.953623,42.1785156 148.386957,42.1785156 Z M148.386957,36.1285156 C147.053623,36.1285156 145.803623,35.7951823 144.636957,35.1285156 C143.47029,34.461849 142.553623,33.5535156 141.886957,32.4035156 C141.22029,31.2535156 140.886957,29.9951823 140.886957,28.6285156 C140.886957,27.261849 141.22029,25.9951823 141.886957,24.8285156 C142.553623,23.661849 143.461957,22.7535156 144.611957,22.1035156 C145.761957,21.4535156 147.02029,21.1285156 148.386957,21.1285156 C149.753623,21.1285156 151.02029,21.461849 152.186957,22.1285156 C153.353623,22.7951823 154.261957,23.7035156 154.911957,24.8535156 C155.561957,26.0035156 155.886957,27.261849 155.886957,28.6285156 C155.886957,29.961849 155.553623,31.211849 154.886957,32.3785156 C154.22029,33.5451823 153.311957,34.461849 152.161957,35.1285156 C151.011957,35.7951823 149.753623,36.1285156 148.386957,36.1285156 Z M175.704348,41.7785156 C179.137681,41.8785156 181.879348,41.336849 183.929348,40.1535156 C185.979348,38.9701823 187.287681,37.211849 187.854348,34.8785156 C188.021014,34.0451823 188.104348,33.3451823 188.104348,32.7785156 C188.104348,30.4785156 186.971014,28.6951823 184.704348,27.4285156 C183.404348,26.761849 181.254348,26.061849 178.254348,25.3285156 C175.621014,24.6285156 174.154348,24.1951823 173.854348,24.0285156 C172.821014,23.6285156 172.304348,23.1285156 172.304348,22.5285156 C172.304348,22.3285156 172.321014,22.1451823 172.354348,21.9785156 C172.654348,20.7785156 173.871014,20.1951823 176.004348,20.2285156 L176.004348,20.2285156 L183.154348,20.8785156 L184.954348,16.0285156 C181.421014,15.4951823 178.371014,15.2285156 175.804348,15.2285156 C173.671014,15.2285156 172.004348,15.4451823 170.804348,15.8785156 C169.371014,16.3785156 168.237681,17.3285156 167.404348,18.7285156 C166.571014,20.1285156 166.154348,21.661849 166.154348,23.3285156 C166.154348,24.6951823 166.521014,25.8285156 167.254348,26.7285156 C167.987681,27.6285156 168.987681,28.361849 170.254348,28.9285156 C171.521014,29.4951823 173.171014,30.061849 175.204348,30.6285156 L175.204348,30.6285156 L176.904348,31.0285156 C179.004348,31.5285156 180.187681,31.861849 180.454348,32.0285156 C181.354348,32.461849 181.804348,33.0785156 181.804348,33.8785156 C181.804348,34.111849 181.787681,34.2785156 181.754348,34.3785156 C181.587681,35.1451823 181.121014,35.7035156 180.354348,36.0535156 C179.587681,36.4035156 178.404348,36.561849 176.804348,36.5285156 L176.804348,36.5285156 L170.104348,35.8285156 L167.854348,40.9785156 L175.704348,41.7785156 Z M199.871739,42.0785156 L199.871739,19.5285156 L204.321739,19.5285156 L205.871739,13.7285156 L199.871739,13.7285156 L199.871739,5.57851562 L193.321739,5.57851562 L193.321739,42.0785156 L199.871739,42.0785156 Z M213.78913,12.7785156 C214.822464,12.7785156 215.697464,12.4201823 216.41413,11.7035156 C217.130797,10.986849 217.48913,10.111849 217.48913,9.07851562 C217.48913,8.07851562 217.130797,7.22018229 216.41413,6.50351562 C215.697464,5.78684896 214.822464,5.42851562 213.78913,5.42851562 C212.755797,5.42851562 211.880797,5.78684896 211.16413,6.50351562 C210.447464,7.22018229 210.08913,8.07851562 210.08913,9.07851562 C210.08913,10.111849 210.447464,10.986849 211.16413,11.7035156 C211.880797,12.4201823 212.755797,12.7785156 213.78913,12.7785156 Z M217.18913,42.2785156 L217.18913,15.1285156 L210.63913,15.1285156 L210.63913,42.2785156 L217.18913,42.2785156 Z M235.256522,42.1785156 C237.423188,42.1785156 239.423188,41.711849 241.256522,40.7785156 C243.123188,39.8451823 244.689855,38.561849 245.956522,36.9285156 C247.223188,35.2951823 248.073188,33.461849 248.506522,31.4285156 L248.506522,31.4285156 L242.656522,31.4285156 C242.089855,32.9285156 241.131522,34.1535156 239.781522,35.1035156 C238.431522,36.0535156 236.923188,36.5285156 235.256522,36.5285156 C233.789855,36.5285156 232.473188,36.161849 231.306522,35.4285156 C230.106522,34.7285156 229.148188,33.7701823 228.431522,32.5535156 C227.714855,31.336849 227.356522,30.0285156 227.356522,28.6285156 C227.356522,27.161849 227.723188,25.8451823 228.456522,24.6785156 C229.156522,23.4785156 230.114855,22.5201823 231.331522,21.8035156 C232.548188,21.086849 233.856522,20.7285156 235.256522,20.7285156 C236.923188,20.7285156 238.423188,21.1951823 239.756522,22.1285156 C241.089855,23.061849 242.039855,24.2785156 242.606522,25.7785156 L242.606522,25.7785156 L248.506522,25.8285156 C248.073188,23.8285156 247.223188,21.9951823 245.956522,20.3285156 C244.656522,18.6951823 243.073188,17.411849 241.206522,16.4785156 C239.339855,15.5451823 237.356522,15.0785156 235.256522,15.0785156 C232.823188,15.0785156 230.573188,15.6785156 228.506522,16.8785156 C226.406522,18.111849 224.748188,19.7701823 223.531522,21.8535156 C222.314855,23.936849 221.706522,26.1951823 221.706522,28.6285156 C221.706522,31.0951823 222.323188,33.3451823 223.556522,35.3785156 C224.756522,37.4785156 226.398188,39.136849 228.481522,40.3535156 C230.564855,41.5701823 232.823188,42.1785156 235.256522,42.1785156 Z M266.273913,42.1785156 C268.74058,42.1785156 271.007246,41.561849 273.073913,40.3285156 C275.14058,39.1285156 276.782246,37.486849 277.998913,35.4035156 C279.21558,33.3201823 279.823913,31.061849 279.823913,28.6285156 C279.823913,26.1951823 279.223913,23.9285156 278.023913,21.8285156 C276.79058,19.761849 275.123913,18.1201823 273.023913,16.9035156 C270.923913,15.686849 268.673913,15.0785156 266.273913,15.0785156 C263.84058,15.0785156 261.59058,15.6785156 259.523913,16.8785156 C257.423913,18.111849 255.76558,19.7701823 254.548913,21.8535156 C253.332246,23.936849 252.723913,26.1951823 252.723913,28.6285156 C252.723913,31.0951823 253.34058,33.3451823 254.573913,35.3785156 C255.773913,37.4785156 257.41558,39.136849 259.498913,40.3535156 C261.582246,41.5701823 263.84058,42.1785156 266.273913,42.1785156 Z M266.273913,36.1285156 C264.94058,36.1285156 263.69058,35.7951823 262.523913,35.1285156 C261.357246,34.461849 260.44058,33.5535156 259.773913,32.4035156 C259.107246,31.2535156 258.773913,29.9951823 258.773913,28.6285156 C258.773913,27.261849 259.107246,25.9951823 259.773913,24.8285156 C260.44058,23.661849 261.348913,22.7535156 262.498913,22.1035156 C263.648913,21.4535156 264.907246,21.1285156 266.273913,21.1285156 C267.64058,21.1285156 268.907246,21.461849 270.073913,22.1285156 C271.24058,22.7951823 272.148913,23.7035156 272.798913,24.8535156 C273.448913,26.0035156 273.773913,27.261849 273.773913,28.6285156 C273.773913,29.961849 273.44058,31.211849 272.773913,32.3785156 C272.107246,33.5451823 271.198913,34.461849 270.048913,35.1285156 C268.898913,35.7951823 267.64058,36.1285156 266.273913,36.1285156 Z M3.7,68.7785156 C4.73333333,68.7785156 5.60833333,68.4201823 6.325,67.7035156 C7.04166667,66.986849 7.4,66.111849 7.4,65.0785156 C7.4,64.0785156 7.04166667,63.2201823 6.325,62.5035156 C5.60833333,61.786849 4.73333333,61.4285156 3.7,61.4285156 C2.66666667,61.4285156 1.79166667,61.786849 1.075,62.5035156 C0.358333333,63.2201823 2.84217094e-14,64.0785156 2.84217094e-14,65.0785156 C2.84217094e-14,66.111849 0.358333333,66.986849 1.075,67.7035156 C1.79166667,68.4201823 2.66666667,68.7785156 3.7,68.7785156 Z M7.1,98.2785156 L7.1,71.1285156 L0.55,71.1285156 L0.55,98.2785156 L7.1,98.2785156 Z M18.2173913,98.1785156 L18.2173913,83.0285156 C18.2173913,81.0951823 18.884058,79.5701823 20.2173913,78.4535156 C21.5507246,77.336849 23.184058,76.7785156 25.1173913,76.7785156 C27.0173913,76.7785156 28.634058,77.336849 29.9673913,78.4535156 C31.3007246,79.5701823 31.9673913,81.0951823 31.9673913,83.0285156 L31.9673913,83.0285156 L31.9673913,98.1785156 L37.5673913,98.1785156 L37.6673913,83.0285156 C37.6673913,80.6951823 37.084058,78.5951823 35.9173913,76.7285156 C34.7173913,74.961849 33.1673913,73.586849 31.2673913,72.6035156 C29.3673913,71.6201823 27.3173913,71.1285156 25.1173913,71.1285156 C22.984058,71.1285156 20.9507246,71.611849 19.0173913,72.5785156 C17.0507246,73.5785156 15.4923913,74.986849 14.3423913,76.8035156 C13.1923913,78.6201823 12.6173913,80.6951823 12.6173913,83.0285156 L12.6173913,83.0285156 L12.6173913,98.1785156 L18.2173913,98.1785156 Z M49.4347826,98.0785156 L49.4347826,75.5285156 L53.8847826,75.5285156 L55.4347826,69.7285156 L49.4347826,69.7285156 L49.4347826,61.5785156 L42.8847826,61.5785156 L42.8847826,98.0785156 L49.4347826,98.0785156 Z M70.4021739,98.1785156 C72.7021739,98.1785156 74.8688406,97.6285156 76.9021739,96.5285156 C78.9355072,95.4285156 80.5688406,93.9285156 81.8021739,92.0285156 L81.8021739,92.0285156 L76.3521739,89.9285156 C75.6188406,90.761849 74.7271739,91.4035156 73.6771739,91.8535156 C72.6271739,92.3035156 71.5355072,92.5285156 70.4021739,92.5285156 C69.4021739,92.5285156 68.4688406,92.361849 67.6021739,92.0285156 C66.5355072,91.6285156 65.6021739,91.0201823 64.8021739,90.2035156 C64.0021739,89.386849 63.4021739,88.4285156 63.0021739,87.3285156 L63.0021739,87.3285156 L83.7021739,86.7785156 L83.7021739,86.7285156 L83.8021739,86.7785156 C83.9021739,86.0785156 83.9521739,85.361849 83.9521739,84.6285156 C83.9521739,81.8951823 83.1688406,79.3451823 81.6021739,76.9785156 C80.1688406,74.8785156 78.4355072,73.3701823 76.4021739,72.4535156 C74.3688406,71.536849 72.4021739,71.0785156 70.5021739,71.0785156 C67.7021739,71.0785156 65.1355072,71.8785156 62.8021739,73.4785156 C60.4688406,75.0785156 58.8021739,77.1785156 57.8021739,79.7785156 C57.2021739,81.3785156 56.9021739,82.9785156 56.9021739,84.5785156 C56.9021739,87.311849 57.7021739,89.861849 59.3021739,92.2285156 C60.7355072,94.361849 62.4605072,95.886849 64.4771739,96.8035156 C66.4938406,97.7201823 68.4688406,98.1785156 70.4021739,98.1785156 Z M62.9521739,82.1285156 L63.0521739,81.8285156 C63.6521739,80.261849 64.6355072,79.0285156 66.0021739,78.1285156 C67.3688406,77.2285156 68.8688406,76.7785156 70.5021739,76.7785156 C71.5021739,76.7785156 72.4355072,76.9451823 73.3021739,77.2785156 C74.3688406,77.6785156 75.2938406,78.2701823 76.0771739,79.0535156 C76.8605072,79.836849 77.4355072,80.7451823 77.8021739,81.7785156 L77.8021739,81.7785156 L62.9521739,82.1285156 Z M95.2195652,98.1285156 L95.2195652,61.2285156 L88.6695652,61.2285156 L88.6695652,98.1285156 L95.2195652,98.1285156 Z M103.636957,68.7785156 C104.67029,68.7785156 105.54529,68.4201823 106.261957,67.7035156 C106.978623,66.986849 107.336957,66.111849 107.336957,65.0785156 C107.336957,64.0785156 106.978623,63.2201823 106.261957,62.5035156 C105.54529,61.786849 104.67029,61.4285156 103.636957,61.4285156 C102.603623,61.4285156 101.728623,61.786849 101.011957,62.5035156 C100.29529,63.2201823 99.9369565,64.0785156 99.9369565,65.0785156 C99.9369565,66.111849 100.29529,66.986849 101.011957,67.7035156 C101.728623,68.4201823 102.603623,68.7785156 103.636957,68.7785156 Z M107.036957,98.2785156 L107.036957,71.1285156 L100.486957,71.1285156 L100.486957,98.2785156 L107.036957,98.2785156 Z M126.304348,107.578516 C128.171014,107.578516 130.037681,107.095182 131.904348,106.128516 C133.771014,105.128516 135.221014,103.720182 136.254348,101.903516 C137.287681,100.086849 137.804348,98.0951823 137.804348,95.9285156 C137.804348,94.3285156 137.504348,92.761849 136.904348,91.2285156 C138.071014,89.161849 138.654348,86.911849 138.654348,84.4785156 C138.654348,82.011849 138.037681,79.761849 136.804348,77.7285156 C135.571014,75.661849 133.912681,74.036849 131.829348,72.8535156 C129.746014,71.6701823 127.487681,71.0785156 125.054348,71.0785156 C122.554348,71.0785156 120.287681,71.6951823 118.254348,72.9285156 C116.187681,74.161849 114.554348,75.8201823 113.354348,77.9035156 C112.154348,79.986849 111.554348,82.2451823 111.554348,84.6785156 C111.554348,87.1785156 112.171014,89.4451823 113.404348,91.4785156 C114.637681,93.5451823 116.296014,95.1785156 118.379348,96.3785156 C120.462681,97.5785156 122.721014,98.1785156 125.154348,98.1785156 C127.787681,98.1785156 130.221014,97.461849 132.454348,96.0285156 C132.487681,96.1285156 132.504348,96.3785156 132.504348,96.7785156 C132.504348,97.8785156 132.254348,98.8451823 131.754348,99.6785156 C131.254348,100.578516 130.496014,101.311849 129.479348,101.878516 C128.462681,102.445182 127.404348,102.728516 126.304348,102.728516 C125.504348,102.728516 124.712681,102.586849 123.929348,102.303516 C123.146014,102.020182 122.437681,101.611849 121.804348,101.078516 L121.804348,101.078516 L117.354348,103.528516 C118.487681,104.828516 119.837681,105.828516 121.404348,106.528516 C122.971014,107.228516 124.604348,107.578516 126.304348,107.578516 Z M125.154348,92.5285156 C123.787681,92.5285156 122.471014,92.1785156 121.204348,91.4785156 C119.971014,90.7785156 118.996014,89.8201823 118.279348,88.6035156 C117.562681,87.386849 117.204348,86.0785156 117.204348,84.6785156 C117.204348,83.2785156 117.554348,81.961849 118.254348,80.7285156 C118.954348,79.4951823 119.912681,78.5201823 121.129348,77.8035156 C122.346014,77.086849 123.654348,76.7285156 125.054348,76.7285156 C126.454348,76.7285156 127.771014,77.0785156 129.004348,77.7785156 C130.237681,78.4785156 131.212681,79.436849 131.929348,80.6535156 C132.646014,81.8701823 133.004348,83.1785156 133.004348,84.5785156 C133.004348,85.9451823 132.654348,87.261849 131.954348,88.5285156 C131.254348,89.761849 130.296014,90.736849 129.079348,91.4535156 C127.862681,92.1701823 126.554348,92.5285156 125.154348,92.5285156 Z M156.371739,98.1785156 C158.671739,98.1785156 160.838406,97.6285156 162.871739,96.5285156 C164.905072,95.4285156 166.538406,93.9285156 167.771739,92.0285156 L167.771739,92.0285156 L162.321739,89.9285156 C161.588406,90.761849 160.696739,91.4035156 159.646739,91.8535156 C158.596739,92.3035156 157.505072,92.5285156 156.371739,92.5285156 C155.371739,92.5285156 154.438406,92.361849 153.571739,92.0285156 C152.505072,91.6285156 151.571739,91.0201823 150.771739,90.2035156 C149.971739,89.386849 149.371739,88.4285156 148.971739,87.3285156 L148.971739,87.3285156 L169.671739,86.7785156 L169.671739,86.7285156 L169.771739,86.7785156 C169.871739,86.0785156 169.921739,85.361849 169.921739,84.6285156 C169.921739,81.8951823 169.138406,79.3451823 167.571739,76.9785156 C166.138406,74.8785156 164.405072,73.3701823 162.371739,72.4535156 C160.338406,71.536849 158.371739,71.0785156 156.471739,71.0785156 C153.671739,71.0785156 151.105072,71.8785156 148.771739,73.4785156 C146.438406,75.0785156 144.771739,77.1785156 143.771739,79.7785156 C143.171739,81.3785156 142.871739,82.9785156 142.871739,84.5785156 C142.871739,87.311849 143.671739,89.861849 145.271739,92.2285156 C146.705072,94.361849 148.430072,95.886849 150.446739,96.8035156 C152.463406,97.7201823 154.438406,98.1785156 156.371739,98.1785156 Z M148.921739,82.1285156 L149.021739,81.8285156 C149.621739,80.261849 150.605072,79.0285156 151.971739,78.1285156 C153.338406,77.2285156 154.838406,76.7785156 156.471739,76.7785156 C157.471739,76.7785156 158.405072,76.9451823 159.271739,77.2785156 C160.338406,77.6785156 161.263406,78.2701823 162.046739,79.0535156 C162.830072,79.836849 163.405072,80.7451823 163.771739,81.7785156 L163.771739,81.7785156 L148.921739,82.1285156 Z M179.73913,98.1785156 L179.73913,83.0285156 C179.73913,81.0951823 180.405797,79.5701823 181.73913,78.4535156 C183.072464,77.336849 184.705797,76.7785156 186.63913,76.7785156 C188.53913,76.7785156 190.155797,77.336849 191.48913,78.4535156 C192.822464,79.5701823 193.48913,81.0951823 193.48913,83.0285156 L193.48913,83.0285156 L193.48913,98.1785156 L199.08913,98.1785156 L199.18913,83.0285156 C199.18913,80.6951823 198.605797,78.5951823 197.43913,76.7285156 C196.23913,74.961849 194.68913,73.586849 192.78913,72.6035156 C190.88913,71.6201823 188.83913,71.1285156 186.63913,71.1285156 C184.505797,71.1285156 182.472464,71.611849 180.53913,72.5785156 C178.572464,73.5785156 177.01413,74.986849 175.86413,76.8035156 C174.71413,78.6201823 174.13913,80.6951823 174.13913,83.0285156 L174.13913,83.0285156 L174.13913,98.1785156 L179.73913,98.1785156 Z M210.956522,98.0785156 L210.956522,75.5285156 L215.406522,75.5285156 L216.956522,69.7285156 L210.956522,69.7285156 L210.956522,61.5785156 L204.406522,61.5785156 L204.406522,98.0785156 L210.956522,98.0785156 Z M231.923913,98.1785156 C234.223913,98.1785156 236.39058,97.6285156 238.423913,96.5285156 C240.457246,95.4285156 242.09058,93.9285156 243.323913,92.0285156 L243.323913,92.0285156 L237.873913,89.9285156 C237.14058,90.761849 236.248913,91.4035156 235.198913,91.8535156 C234.148913,92.3035156 233.057246,92.5285156 231.923913,92.5285156 C230.923913,92.5285156 229.99058,92.361849 229.123913,92.0285156 C228.057246,91.6285156 227.123913,91.0201823 226.323913,90.2035156 C225.523913,89.386849 224.923913,88.4285156 224.523913,87.3285156 L224.523913,87.3285156 L245.223913,86.7785156 L245.223913,86.7285156 L245.323913,86.7785156 C245.423913,86.0785156 245.473913,85.361849 245.473913,84.6285156 C245.473913,81.8951823 244.69058,79.3451823 243.123913,76.9785156 C241.69058,74.8785156 239.957246,73.3701823 237.923913,72.4535156 C235.89058,71.536849 233.923913,71.0785156 232.023913,71.0785156 C229.223913,71.0785156 226.657246,71.8785156 224.323913,73.4785156 C221.99058,75.0785156 220.323913,77.1785156 219.323913,79.7785156 C218.723913,81.3785156 218.423913,82.9785156 218.423913,84.5785156 C218.423913,87.311849 219.223913,89.861849 220.823913,92.2285156 C222.257246,94.361849 223.982246,95.886849 225.998913,96.8035156 C228.01558,97.7201823 229.99058,98.1785156 231.923913,98.1785156 Z M224.473913,82.1285156 L224.573913,81.8285156 C225.173913,80.261849 226.157246,79.0285156 227.523913,78.1285156 C228.89058,77.2285156 230.39058,76.7785156 232.023913,76.7785156 C233.023913,76.7785156 233.957246,76.9451823 234.823913,77.2785156 C235.89058,77.6785156 236.81558,78.2701823 237.598913,79.0535156 C238.382246,79.836849 238.957246,80.7451823 239.323913,81.7785156 L239.323913,81.7785156 L224.473913,82.1285156 Z" id="DiagnosticoInteligente" fill-rule="nonzero"></path>
                <polygon id="Path-5" points="157.25 5.67802368 160.75 -6.1284311e-14 164.25 1.87632022 160.260224 7.22851562"></polygon>
            </g>
        </g>
    </g>
</svg>