<svg width="140" height="148" viewBox="0 0 140 148" fill="none" xmlns="http://www.w3.org/2000/svg">
<g filter="url(#filter0_d)">
<path d="M36.2648 24H103.724C107.194 24 110 26.7732 110 30.1924V92.4166C110 95.8357 107.194 98.6089 103.735 98.6089H84.4338C82.7662 98.6089 81.1775 99.266 79.9944 100.424L71.1268 109.201C67.1718 113.11 60.4225 110.337 60.4225 104.812C60.4225 101.393 57.6169 98.62 54.1577 98.62H36.2648C32.8056 98.62 30 95.8469 30 92.4277V30.1924C30 26.7732 32.8056 24 36.2648 24Z" fill="white"/>
<path d="M69.8986 86.3022C84.5225 86.3022 96.3775 74.5843 96.3775 60.1295C96.3775 45.6747 84.5225 33.9568 69.8986 33.9568C55.2747 33.9568 43.4197 45.6747 43.4197 60.1295C43.4197 74.5843 55.2747 86.3022 69.8986 86.3022Z" fill="#F9B712"/>
<path d="M62.7212 62.3569C64.2769 62.3569 65.5381 60.3623 65.5381 57.9019C65.5381 55.4416 64.2769 53.447 62.7212 53.447C61.1655 53.447 59.9043 55.4416 59.9043 57.9019C59.9043 60.3623 61.1655 62.3569 62.7212 62.3569Z" fill="#312A79"/>
<path d="M76.2423 62.3569C77.798 62.3569 79.0592 60.3623 79.0592 57.9019C79.0592 55.4416 77.798 53.447 76.2423 53.447C74.6865 53.447 73.4254 55.4416 73.4254 57.9019C73.4254 60.3623 74.6865 62.3569 76.2423 62.3569Z" fill="#312A79"/>
<path d="M61.5156 75.7106C63.6902 75.7106 63.6902 72.3694 61.5156 72.3694C59.3409 72.3694 59.3297 75.7106 61.5156 75.7106Z" fill="#F9B712"/>
<path d="M54.2592 69.9749C58.1352 75.3097 64.7268 78.6286 71.4423 78.0049C77.9662 77.3924 83.9042 73.4052 86.8226 67.6026C87.7916 65.687 84.8733 63.983 83.9042 65.9209C81.538 70.632 76.8057 74.1514 71.4423 74.6748C65.9775 75.2094 60.3887 72.7035 57.1887 68.3043C55.9155 66.5557 52.9859 68.2152 54.2592 69.9749Z" fill="#312A79"/>
</g>
<defs>
<filter id="filter0_d" x="0" y="0" width="140" height="147.03" filterUnits="userSpaceOnUse" color-interpolation-filters="sRGB">
<feFlood flood-opacity="0" result="BackgroundImageFix"/>
<feColorMatrix in="SourceAlpha" type="matrix" values="0 0 0 0 0 0 0 0 0 0 0 0 0 0 0 0 0 0 127 0"/>
<feOffset dy="6"/>
<feGaussianBlur stdDeviation="15"/>
<feColorMatrix type="matrix" values="0 0 0 0 0 0 0 0 0 0 0 0 0 0 0 0 0 0 0.2 0"/>
<feBlend mode="normal" in2="BackgroundImageFix" result="effect1_dropShadow"/>
<feBlend mode="normal" in="SourceGraphic" in2="effect1_dropShadow" result="shape"/>
</filter>
</defs>
</svg>
