<?xml version="1.0" encoding="UTF-8"?>
<svg width="252px" height="14px" viewBox="0 0 252 14" version="1.1" xmlns="http://www.w3.org/2000/svg" xmlns:xlink="http://www.w3.org/1999/xlink">
    <!-- Generator: Sketch 61.2 (89653) - https://sketch.com -->
    <title>TUALIADOCONTRAELCOVID-19</title>
    <desc>Created with Sketch.</desc>
    <g id="App-1.1-Collection" stroke="none" stroke-width="1" fill="none" fill-rule="evenodd">
        <g id="A---Inicio" transform="translate(-54.000000, -297.000000)" fill="#FFFFFF" fill-rule="nonzero">
            <path d="M59.032,310 L59.032,298.933 L62.364,298.933 L62.364,297.93 L54.646,297.93 L54.646,298.933 L57.978,298.933 L57.978,310 L59.032,310 Z M68.297,310.17 C70.694,310.17 72.513,308.589 72.513,305.767 L72.513,297.93 L71.459,297.93 L71.459,305.75 C71.459,307.994 70.082,309.15 68.297,309.15 C66.512,309.15 65.135,307.994 65.135,305.75 L65.135,297.93 L64.081,297.93 L64.081,305.767 C64.081,308.589 65.917,310.17 68.297,310.17 Z M78.82,310 L80.044,306.923 L86.028,306.923 L87.252,310 L88.391,310 L83.546,297.93 L82.526,297.93 L77.681,310 L78.82,310 Z M85.637,305.937 L80.435,305.937 L83.036,299.341 L85.637,305.937 Z M96.449,310 L96.449,308.997 L90.907,308.997 L90.907,297.93 L89.853,297.93 L89.853,310 L96.449,310 Z M99.305,310 L99.305,297.93 L98.251,297.93 L98.251,310 L99.305,310 Z M101.906,310 L103.13,306.923 L109.114,306.923 L110.338,310 L111.477,310 L106.632,297.93 L105.612,297.93 L100.767,310 L101.906,310 Z M108.723,305.937 L103.521,305.937 L106.122,299.341 L108.723,305.937 Z M116.203,310 C119.875,310 122.187,307.569 122.187,303.965 C122.187,300.361 119.875,297.93 116.203,297.93 L112.939,297.93 L112.939,310 L116.203,310 Z M116.169,308.997 L113.993,308.997 L113.993,298.933 L116.169,298.933 C119.331,298.933 121.099,300.922 121.099,303.965 C121.099,307.008 119.331,308.997 116.169,308.997 Z M129.905,310.17 C133.135,310.17 135.991,307.688 135.991,303.965 C135.991,300.242 133.135,297.76 129.905,297.76 C126.692,297.76 123.819,300.242 123.819,303.965 C123.819,307.688 126.692,310.17 129.905,310.17 Z M129.905,309.15 C127.287,309.15 124.89,307.11 124.89,303.965 C124.89,300.82 127.287,298.78 129.905,298.78 C132.523,298.78 134.92,300.82 134.92,303.965 C134.92,307.11 132.523,309.15 129.905,309.15 Z M147.619,310.17 C149.03,310.17 150.9,309.728 152.243,307.926 L151.461,307.331 C150.356,308.793 148.809,309.15 147.653,309.15 C144.848,309.15 142.57,307.076 142.57,303.965 C142.57,300.854 144.848,298.78 147.636,298.78 C148.809,298.78 150.356,299.137 151.461,300.599 L152.243,300.004 C150.9,298.202 149.013,297.76 147.602,297.76 C144.236,297.76 141.499,300.293 141.499,303.965 C141.499,307.637 144.253,310.17 147.619,310.17 Z M159.961,310.17 C163.191,310.17 166.047,307.688 166.047,303.965 C166.047,300.242 163.191,297.76 159.961,297.76 C156.748,297.76 153.875,300.242 153.875,303.965 C153.875,307.688 156.748,310.17 159.961,310.17 Z M159.961,309.15 C157.343,309.15 154.946,307.11 154.946,303.965 C154.946,300.82 157.343,298.78 159.961,298.78 C162.579,298.78 164.976,300.82 164.976,303.965 C164.976,307.11 162.579,309.15 159.961,309.15 Z M169.073,310 L169.073,299.715 L169.158,299.715 L176.485,310 L177.573,310 L177.573,297.93 L176.519,297.93 L176.519,308.215 L176.434,308.215 L169.107,297.93 L168.019,297.93 L168.019,310 L169.073,310 Z M183.676,310 L183.676,298.933 L187.008,298.933 L187.008,297.93 L179.29,297.93 L179.29,298.933 L182.622,298.933 L182.622,310 L183.676,310 Z M189.779,310 L189.779,305.597 L192.72,305.597 L195.695,310 L196.868,310 L193.774,305.444 C195.508,304.985 196.494,303.591 196.494,301.772 C196.494,299.579 194.998,297.93 192.465,297.93 L188.725,297.93 L188.725,310 L189.779,310 Z M192.329,304.628 L189.779,304.628 L189.779,298.933 L192.329,298.933 C194.233,298.933 195.406,299.936 195.406,301.772 C195.406,303.608 194.233,304.628 192.329,304.628 Z M199.129,310 L200.353,306.923 L206.337,306.923 L207.561,310 L208.7,310 L203.855,297.93 L202.835,297.93 L197.99,310 L199.129,310 Z M205.946,305.937 L200.744,305.937 L203.345,299.341 L205.946,305.937 Z M220.328,310 L220.328,308.997 L214.922,308.997 L214.922,304.424 L219.41,304.424 L219.41,303.455 L214.922,303.455 L214.922,298.933 L220.175,298.933 L220.175,297.93 L213.868,297.93 L213.868,310 L220.328,310 Z M228.811,310 L228.811,308.997 L223.269,308.997 L223.269,297.93 L222.215,297.93 L222.215,310 L228.811,310 Z M240.269,310.17 C241.68,310.17 243.55,309.728 244.893,307.926 L244.111,307.331 C243.006,308.793 241.459,309.15 240.303,309.15 C237.498,309.15 235.22,307.076 235.22,303.965 C235.22,300.854 237.498,298.78 240.286,298.78 C241.459,298.78 243.006,299.137 244.111,300.599 L244.893,300.004 C243.55,298.202 241.663,297.76 240.252,297.76 C236.886,297.76 234.149,300.293 234.149,303.965 C234.149,307.637 236.903,310.17 240.269,310.17 Z M252.611,310.17 C255.841,310.17 258.697,307.688 258.697,303.965 C258.697,300.242 255.841,297.76 252.611,297.76 C249.398,297.76 246.525,300.242 246.525,303.965 C246.525,307.688 249.398,310.17 252.611,310.17 Z M252.611,309.15 C249.993,309.15 247.596,307.11 247.596,303.965 C247.596,300.82 249.993,298.78 252.611,298.78 C255.229,298.78 257.626,300.82 257.626,303.965 C257.626,307.11 255.229,309.15 252.611,309.15 Z M265.939,310 L270.784,297.93 L269.645,297.93 L265.429,308.589 L261.213,297.93 L260.074,297.93 L264.919,310 L265.939,310 Z M273.385,310 L273.385,297.93 L272.331,297.93 L272.331,310 L273.385,310 Z M278.791,310 C282.463,310 284.775,307.569 284.775,303.965 C284.775,300.361 282.463,297.93 278.791,297.93 L275.527,297.93 L275.527,310 L278.791,310 Z M278.757,308.997 L276.581,308.997 L276.581,298.933 L278.757,298.933 C281.919,298.933 283.687,300.922 283.687,303.965 C283.687,307.008 281.919,308.997 278.757,308.997 Z M291.541,305.648 L291.541,304.798 L286.271,304.798 L286.271,305.648 L291.541,305.648 Z M295.944,310 L295.944,297.93 L293.309,297.93 L293.309,298.916 L294.907,298.916 L294.907,310 L295.944,310 Z M301.061,310 L304.002,305.852 C304.648,304.951 305.838,303.506 305.838,301.602 C305.838,299.273 304.121,297.76 301.979,297.76 C299.837,297.76 298.103,299.273 298.103,301.551 C298.103,303.761 299.769,305.223 301.826,305.223 C302.353,305.223 303.016,305.138 303.679,304.679 L299.871,310 L301.061,310 Z M301.979,304.305 C300.449,304.305 299.106,303.251 299.106,301.517 C299.106,299.766 300.449,298.712 301.979,298.712 C303.509,298.712 304.835,299.766 304.835,301.517 C304.835,303.251 303.509,304.305 301.979,304.305 Z" id="TUALIADOCONTRAELCOVID-19"></path>
        </g>
    </g>
</svg>