<svg width="360" height="400" viewBox="0 0 360 400" fill="none" xmlns="http://www.w3.org/2000/svg">
<rect width="360" height="194" rx="20" fill="#319CFF"/>
<circle cx="180" cy="224" r="170" fill="#665CFF" fill-opacity="0.3"/>
<circle cx="180" cy="226" r="154" fill="#665CFF"/>
<path d="M322.402 85.2512L314.56 83C313.539 83 312.583 83.28 311.758 83.7632V83.5655L245.622 127.2C242.16 129.484 240.074 133.366 240.074 137.534V353.302C240.074 358.133 242.728 362.57 246.971 364.838L311.758 399.44V399.237C312.583 399.72 313.539 400 314.56 400L322.402 397.749C325.482 397.749 328 395.218 328 392.121V90.8846C328 87.7879 325.482 85.2512 322.402 85.2512Z" fill="white"/>
<path d="M37.5978 85.2512L45.4401 83C46.4614 83 47.4171 83.28 48.2418 83.7632V83.5655L114.378 127.2C117.84 129.484 119.926 133.366 119.926 137.534V353.302C119.926 358.133 117.272 362.57 113.029 364.838L48.2418 399.44V399.237C47.4171 399.72 46.4614 400 45.4401 400L37.5978 397.749C34.5176 397.749 32 395.218 32 392.121V90.8846C32 87.7879 34.5176 85.2512 37.5978 85.2512Z" fill="white"/>
<path d="M50.5683 88.5017L114.214 130.495C117.447 132.63 119.38 136.227 119.38 140.114V350.518C119.38 355.037 116.912 359.16 112.947 361.28L50.5683 394.603V88.5017ZM50.0222 87.4859V395.514L113.203 361.768C117.343 359.555 119.926 355.229 119.926 350.518V140.114C119.926 136.051 117.889 132.263 114.514 130.033L50.0222 87.4859Z" fill="#1D00D0"/>
<path d="M47.368 87.4859C50.0441 87.5243 52.2067 89.7261 52.2067 92.4275V390.572C52.2067 393.274 50.0441 395.476 47.368 395.514L39.7987 393.34L39.7277 393.318H39.6458C36.937 393.318 34.7307 391.1 34.7307 388.376V94.6238C34.7307 91.9004 36.937 89.6822 39.6458 89.6822H39.7223L39.7933 89.6602L47.368 87.4859ZM47.2916 86.9368L39.6458 89.1331C36.6421 89.1331 34.1846 91.6039 34.1846 94.6238V388.376C34.1846 391.396 36.6421 393.867 39.6458 393.867L47.2916 396.063C50.2953 396.063 52.7528 393.592 52.7528 390.572V92.4275C52.7528 89.4076 50.2953 86.9368 47.2916 86.9368Z" fill="#1D00D0"/>
<path d="M113.4 132.85L98.5564 123.439C98.2451 124.455 96.6231 128.688 91.8008 126.744C87.1587 124.878 84.5373 116.57 83.8547 114.116L62.938 100.85C60.1747 99.1042 56.5757 101.097 56.5757 104.381V382.155C56.5757 383.764 58.2468 384.813 59.6831 384.11L111.997 358.523C115.175 356.969 117.196 353.724 117.196 350.166V139.763C117.196 136.957 115.765 134.349 113.4 132.85Z" fill="#312A79"/>
<path d="M310.524 88.5017V394.597L248.145 361.28C244.175 359.16 241.712 355.037 241.712 350.518V140.114C241.712 136.227 243.645 132.63 246.878 130.495L310.524 88.5017ZM311.07 87.4859L246.578 130.039C243.203 132.268 241.166 136.057 241.166 140.12V350.523C241.166 355.234 243.755 359.561 247.889 361.774L311.07 395.514V87.4859Z" fill="#1D00D0"/>
<path d="M313.724 87.4859L321.293 89.6602L321.364 89.6822H321.446C324.155 89.6822 326.361 91.9004 326.361 94.6238V388.376C326.361 391.1 324.155 393.318 321.446 393.318H321.37L321.299 393.34L313.73 395.514C311.054 395.476 308.891 393.274 308.891 390.572V92.4275C308.885 89.7261 311.048 87.5298 313.724 87.4859ZM313.801 86.9368C310.797 86.9368 308.339 89.4076 308.339 92.4275V390.572C308.339 393.592 310.797 396.063 313.801 396.063L321.446 393.867C324.45 393.867 326.908 391.396 326.908 388.376V94.6238C326.908 91.6039 324.45 89.1331 321.446 89.1331L313.801 86.9368Z" fill="#1D00D0"/>
<path d="M298.154 100.856L277.237 114.121C276.555 116.576 273.933 124.883 269.291 126.75C264.469 128.688 262.847 124.455 262.536 123.444L247.692 132.856C245.327 134.355 243.896 136.963 243.896 139.774V350.177C243.896 353.735 245.917 356.98 249.096 358.534L301.409 384.121C302.845 384.824 304.516 383.769 304.516 382.166V104.381C304.516 101.097 300.917 99.1042 298.154 100.856Z" fill="#312A79"/>
<path d="M198.345 184.616C196.023 183.815 198.465 175.557 198.956 173.997C200.289 169.802 202.653 165.937 205.821 162.89C210.141 158.728 216.148 155.911 222.166 155.625C227.699 155.362 231.145 159.09 233.144 163.922C234.301 166.722 234.509 170.082 232.963 172.685C230.713 176.468 225.826 177.407 221.708 178.906C219.9 179.565 218.054 180.476 217.022 182.113C215.618 184.342 216.099 187.208 215.973 189.844C215.913 191.112 207.394 187.73 206.072 187.279C203.5 186.39 200.922 185.506 198.345 184.616Z" fill="#FCB39C"/>
<path d="M161.159 156.394C161.159 156.394 156.79 159.689 158.974 166.277C161.159 172.866 164.435 180.004 164.981 186.593C165.528 193.182 152.967 187.142 152.967 187.142C152.967 187.142 141.498 158.041 145.321 154.747C149.144 151.453 158.428 149.805 161.159 156.394Z" fill="#322A7F"/>
<path d="M131.668 167.925C155.697 169.572 164.981 236.558 173.719 236.558C183.004 236.558 191.31 182.162 196.93 181.926C210.037 181.377 228.905 201.698 227.24 205.81C219.305 225.412 192.697 275.828 173.173 274.993C147.505 273.895 125.666 208.721 121.838 191.535C120.756 186.681 118.413 167.019 131.668 167.925Z" fill="#AAD4FF"/>
<g opacity="0.6">
<g opacity="0.6">
<path opacity="0.6" d="M199.502 188.872C199.579 187.955 199.661 186.999 200.119 186.203C200.578 185.407 201.545 184.825 202.413 185.111C203.352 185.423 203.74 186.527 203.969 187.499C205.488 193.89 205.755 200.523 205.46 207.09C205.313 210.368 205.013 213.706 203.713 216.715C202.211 220.191 199.371 223.057 195.92 224.583C193.609 225.604 186.832 226.324 187.87 222.063C188.241 220.542 190.431 218.741 191.294 217.412C192.375 215.749 193.315 213.992 194.139 212.185C197.471 204.894 198.836 196.817 199.502 188.872Z" fill="#665CFF"/>
</g>
</g>
<g opacity="0.6">
<g opacity="0.6">
<path opacity="0.6" d="M156.074 203.598C156.052 202.648 156.265 201.396 157.199 201.264C157.942 201.16 158.505 201.89 158.887 202.538C162.251 208.199 164.954 214.228 167.647 220.24C167.882 220.762 168.116 221.366 167.892 221.893C167.543 222.711 166.412 222.738 165.533 222.623C161.907 222.129 156.347 220.871 155.834 216.429C155.654 214.881 156.255 213.003 156.265 211.416C156.282 208.814 156.14 206.195 156.074 203.598Z" fill="#665CFF"/>
</g>
</g>
<path d="M233.679 320.67C236.557 323.207 237.398 328.094 237.578 331.608C237.802 336.028 237.502 340.695 239.539 344.621C240.718 346.894 242.602 348.739 243.727 351.039C244.137 351.874 244.443 352.84 244.142 353.719C243.695 355.048 242.084 355.58 240.691 355.564C233.826 355.476 226.224 356.519 219.834 353.378C215.029 351.017 211.49 346.455 209.709 341.387C207.929 336.313 207.787 330.773 208.584 325.453C209.709 317.936 217 318.897 222.925 319.095C225.531 319.182 228.938 318.529 231.418 319.358C232.286 319.649 233.034 320.099 233.679 320.67Z" fill="#FCB0AB"/>
<path d="M214.908 163.724C216.945 162.912 219.141 162.56 221.26 162.857C234.574 164.707 233.821 189.124 234.214 198.793C235.776 237.376 232.352 276.152 236.131 314.581C236.333 316.646 236.557 318.754 236.071 320.764C234.498 327.298 213.374 329.11 209.769 323.311C207.039 318.919 207.585 266.768 207.585 250.291C207.585 239.485 205.275 228.504 204.434 217.676C203.511 205.756 203.254 193.742 204.483 181.833C204.892 177.852 205.499 173.789 207.394 170.269C208.923 167.403 211.724 164.998 214.908 163.724Z" fill="#5997EF"/>
<path d="M70.2307 318.644C74.0535 320.841 82.7915 308.212 82.7915 304.369C82.7915 300.525 109.006 282.955 109.006 282.955C109.006 282.955 99.1753 287.896 96.9908 284.053C94.8063 280.209 98.6292 278.562 102.452 274.17C106.275 269.777 130.304 260.443 139.589 218.714C145.596 191.721 140.632 171.85 136.377 161.182C130.354 158.036 123.281 157.141 115.286 158.832C93.0969 163.521 89.6836 195.576 77.6033 211.301C68.3192 223.381 56.8506 226.126 56.8506 226.126V315.723C59.4447 314.598 61.9022 313.565 63.131 313.154C66.4078 312.055 66.4078 316.448 70.2307 318.644Z" fill="#B3DBFF"/>
<path d="M139.86 268.404C148.385 254.733 153.617 239.106 155.697 223.134C157.603 208.506 157.986 189.761 150.821 176.397C147.063 169.396 142.208 164.229 136.37 161.182C140.624 171.85 145.589 191.716 139.581 218.714C130.297 260.443 106.268 269.777 102.445 274.17C98.6219 278.562 94.799 280.209 96.9835 284.053C99.168 287.896 108.998 282.955 108.998 282.955C108.998 282.955 82.7842 300.525 82.7842 304.368C82.7842 308.212 74.0462 320.841 70.2233 318.644C66.4005 316.448 66.4005 312.055 63.1237 313.154C61.8949 313.565 59.4374 314.598 56.8433 315.723V328.802C56.8487 328.802 114.192 309.585 139.86 268.404Z" fill="#92CAF4"/>
<g opacity="0.6">
<path opacity="0.6" d="M101.358 184.671C101.358 184.671 99.7196 198.947 111.188 214.321C117.491 222.766 131.182 231.507 141.881 237.497C150.291 242.208 153.529 252.75 149.182 261.387C149.16 261.426 149.144 261.464 149.122 261.503C147.26 265.165 94.8045 240.127 101.358 184.671Z" fill="#665CFF"/>
</g>
<path d="M303.697 226.126V328.802C303.697 328.802 246.354 309.585 220.686 268.404C212.161 254.733 206.929 239.106 204.849 223.134C202.943 208.506 202.56 189.761 209.726 176.397C217.355 162.165 229.534 155.505 245.267 158.832C267.457 163.521 270.87 195.576 282.95 211.301C292.229 223.381 303.697 226.126 303.697 226.126Z" fill="#5997EF"/>
<g opacity="0.6">
<path opacity="0.6" d="M211.866 172.899C211.866 172.899 215.76 254.568 226.421 272.522C248.266 309.31 265.409 310.128 272.399 314.389C279.389 318.65 304.517 331.822 304.517 331.822C304.517 331.822 307.247 295.034 291.956 278.562C276.664 262.09 254.273 254.403 242.258 238.48C230.244 222.557 224.782 173.141 222.052 170.395C219.321 167.65 212.058 167.172 211.866 172.899Z" fill="#665CFF"/>
</g>
<g opacity="0.6">
<g opacity="0.6">
<path opacity="0.6" d="M234.072 203.065C240.396 203.872 245.655 208.484 249.276 213.761C252.902 219.032 255.267 225.061 258.467 230.601C266.856 245.124 281.186 256.05 297.351 260.256C299.126 260.717 301.141 261.267 301.983 262.903C302.387 263.682 302.441 264.594 302.474 265.472C303.157 281.73 300.164 298.137 293.78 313.093C291.497 318.447 288.57 323.86 283.693 327.007C279.646 329.615 274.649 330.372 269.848 330.098C256.315 329.324 244.099 320.775 236.06 309.804C228.015 298.834 223.608 285.629 220.167 272.446C217.726 263.106 215.706 253.585 215.4 243.932C215.034 232.04 216.039 200.764 234.072 203.065Z" fill="#665CFF"/>
</g>
</g>
<g opacity="0.6">
<path opacity="0.6" d="M203.937 184.809C203.937 184.809 212.767 182.475 216.044 176.984C219.321 171.494 222.052 167.101 219.321 166.003C216.59 164.905 209.491 169.846 207.852 172.592C206.214 175.337 202.2 181.102 203.937 184.809Z" fill="#665CFF"/>
</g>
<path d="M213.314 208.281C216.028 208.281 218.229 204.225 218.229 199.222C218.229 194.218 216.028 190.162 213.314 190.162C210.599 190.162 208.398 194.218 208.398 199.222C208.398 204.225 210.599 208.281 213.314 208.281Z" fill="#AEAEAF"/>
<path d="M242.57 160.287C241.882 159.161 240.565 158.744 239.571 157.915C238.25 156.811 237.31 155.494 236.415 154.006C233.837 149.734 233.051 145.479 234.651 140.63C236.011 136.512 238.392 132.762 239.435 128.551C240.882 122.72 239.517 116.252 235.836 111.513C229.616 103.508 217.038 101.432 207.885 104.776C201.048 107.274 195.335 112.425 191.441 118.607C189.814 121.193 188.476 124.219 188.296 127.315C188.039 131.593 192.37 135.672 190.901 139.719C190.322 141.317 189.29 142.739 188.869 144.381C188.252 146.796 189.038 149.361 190.196 151.568C191.239 153.555 192.626 155.417 194.516 156.608C197.203 158.305 200.442 158.387 203.5 158.019C205.264 157.805 210.075 155.916 211.49 157.712C212.036 158.404 212.172 159.315 212.353 160.177C213.232 164.312 215.744 168.869 219.632 170.807C222.177 172.076 225.132 172.174 227.966 171.999C230.992 171.812 234.05 171.334 236.77 169.995C239.489 168.655 241.854 166.354 242.739 163.444C243.007 162.56 243.132 161.583 242.788 160.721C242.728 160.567 242.652 160.424 242.57 160.287Z" fill="#FCBFAB"/>
<path d="M234.656 140.636C236.491 136.705 238.397 132.768 239.44 128.556C240.887 122.725 239.522 116.257 235.841 111.519C229.621 103.513 217.044 101.438 207.891 104.782C201.151 107.247 195.51 112.282 191.621 118.338C191.496 118.53 191.408 118.744 191.354 118.97C191.043 120.276 190.289 124.795 194.483 126.201C203.636 129.259 212.112 108.817 221.292 118.541C223.684 121.073 224.564 124.652 225.235 128.079C226.12 132.587 227.234 137.287 230.336 140.823C230.467 140.976 230.577 141.147 230.659 141.333C231.396 143.019 233.761 142.92 234.421 141.201C234.487 141.009 234.569 140.823 234.656 140.636Z" fill="#130B4A"/>
<path d="M202.664 171.219C202.664 171.219 205.395 170.67 209.218 167.925C211.408 166.354 212.975 165.86 214.679 163.801C214.756 163.713 214.837 163.614 214.952 163.592C215.067 163.571 215.198 163.598 215.28 163.68C221.779 170.67 206.793 181.02 203.483 181.926" fill="#FCB39C"/>
<path d="M266.446 320.67C269.324 323.207 270.165 328.094 270.345 331.608C270.569 336.028 270.269 340.695 272.306 344.621C273.486 346.894 275.37 348.739 276.495 351.039C276.904 351.874 277.21 352.84 276.91 353.719C276.462 355.048 274.851 355.58 273.458 355.564C266.594 355.476 258.991 356.519 252.602 353.378C247.796 351.017 244.257 346.455 242.477 341.387C240.696 336.313 240.554 330.773 241.352 325.453C242.477 317.936 249.767 318.897 255.693 319.095C258.298 319.182 261.706 318.529 264.185 319.358C265.053 319.649 265.802 320.099 266.446 320.67Z" fill="#FCB0AB"/>
<path d="M247.676 163.724C249.713 162.912 251.908 162.56 254.027 162.857C267.342 164.707 266.588 189.124 266.981 198.793C268.543 237.376 265.119 276.152 268.898 314.581C269.1 316.646 269.324 318.754 268.838 320.764C267.265 327.298 246.141 329.11 242.537 323.311C239.806 318.919 240.352 266.768 240.352 250.291C240.352 239.485 238.042 228.504 237.201 217.676C236.278 205.756 236.022 193.742 237.25 181.833C237.66 177.852 238.266 173.789 240.161 170.269C241.69 167.403 244.492 164.998 247.676 163.724Z" fill="#81B7FF"/>
<path d="M222.325 333.195C222.325 333.195 224.056 350.765 217.41 350.765C213.041 350.765 215.225 338.685 214.133 334.842" fill="#FCB0AB"/>
<path d="M150.236 207.458C150.236 207.458 148.598 189.887 145.867 180.004C144.294 174.305 137.129 161.885 137.129 161.885L149.701 170.45C151.241 171.499 150.689 173.899 148.849 174.168L146.413 174.519L152.77 178.11C154.196 178.917 154.966 180.542 154.676 182.167L150.236 207.458Z" fill="#F5FAFF"/>
<path d="M117.72 160.287C118.408 159.161 119.724 158.744 120.718 157.915C122.04 156.811 122.979 155.494 123.875 154.006C126.452 149.734 127.239 145.479 125.639 140.63C124.279 136.512 121.898 132.762 120.855 128.551C119.407 122.72 120.773 116.252 124.454 111.513C130.674 103.508 143.251 101.432 152.404 104.776C159.242 107.274 164.954 112.425 168.848 118.607C170.476 121.193 171.814 124.219 171.994 127.315C172.25 131.593 167.92 135.672 169.389 139.719C169.968 141.317 171 142.739 171.42 144.381C172.037 146.796 171.251 149.361 170.093 151.568C169.05 153.555 167.663 155.417 165.773 156.608C163.086 158.305 159.848 158.387 156.79 158.019C155.026 157.805 150.214 155.916 148.8 157.712C148.254 158.404 148.117 159.315 147.937 160.177C147.058 164.312 144.545 168.869 140.657 170.807C138.112 172.076 135.158 172.174 132.323 171.999C129.298 171.812 126.239 171.334 123.52 169.995C120.8 168.655 118.435 166.354 117.551 163.444C117.283 162.56 117.157 161.583 117.501 160.721C117.561 160.567 117.632 160.424 117.72 160.287Z" fill="#FCB0AB"/>
<g opacity="0.6">
<g opacity="0.6">
<path opacity="0.6" d="M156.134 128.611C161.792 129.435 167.537 129.385 173.25 129.572C174.184 129.605 175.183 129.665 175.904 130.258C176.783 130.983 176.947 132.339 176.538 133.399C176.128 134.464 175.249 135.277 174.309 135.925C169.957 138.934 164.212 138.928 159.002 138.05C154.682 137.325 150.378 136.046 146.746 133.58C143.715 131.521 139.265 127.046 139.8 123.104C142.252 123.247 144.666 125.344 146.976 126.261C149.914 127.436 153.016 128.161 156.134 128.611Z" fill="#665CFF"/>
</g>
</g>
<g opacity="0.6">
<g opacity="0.6">
<path opacity="0.6" d="M142.579 142.882C143.393 145.193 144.393 147.455 145.84 149.426C149.717 154.709 156.451 157.289 162.912 157.794C163.824 157.866 164.719 158.19 165.38 158.827C167.002 160.391 166.003 162.269 164.845 163.565C161.677 167.128 156.757 169.034 152.033 168.54C147.309 168.045 142.885 165.157 140.51 161.017C139.281 158.876 138.593 156.466 138.074 154.05C136.572 147.082 136.037 139.115 137.648 132.109C138.767 127.244 139.647 129.029 140.176 132.938C140.635 136.326 141.443 139.659 142.579 142.882Z" fill="#665CFF"/>
</g>
</g>
<path d="M124.601 152.671C124.568 154.198 125.355 161.638 132.88 168.622C139.428 174.7 149.144 199.222 150.236 209.105C150.263 209.346 140.613 196.537 138.221 192.084C134.77 185.643 123.771 179.175 124.142 179.027C125.584 178.439 129.483 174.513 129.483 174.513L118.392 170.703C118.392 170.703 115.83 160.787 117.469 157.492C119.107 154.198 124.601 152.671 124.601 152.671Z" fill="#F5FAFF"/>
<path d="M222.871 132.235C223.908 130.05 228.277 122.841 230.2 128.062C231.445 131.439 231.691 135.184 230.893 138.698C230.735 139.389 230.457 140.169 229.796 140.416C229.353 140.581 228.867 140.46 228.414 140.328C226.907 139.9 226.513 139.395 225.055 138.824" fill="#FCB39C"/>
<path d="M160.252 189.882C160.465 194.258 160.23 198.64 160.236 203.016C160.241 207.265 160.443 211.526 161.148 215.727C162.366 222.963 165.304 230.217 170.765 235.268C175.942 240.05 183.522 242.565 190.393 240.391C197.454 238.151 202.271 231.968 205.002 225.313C206.64 221.322 207.536 217.127 208.464 212.932C209.382 208.781 210.441 204.602 212.773 200.995C213.352 200.106 211.932 199.277 211.359 200.166C207.328 206.398 206.935 214.068 204.8 221.009C202.735 227.707 199.054 234.285 192.681 237.657C186.428 240.962 178.946 239.573 173.452 235.394C167.843 231.134 164.648 224.353 163.168 217.594C162.196 213.157 161.912 208.6 161.874 204.064C161.83 199.337 162.114 194.609 161.885 189.882C161.841 188.828 160.203 188.822 160.252 189.882Z" fill="white"/>
<path d="M213.314 204.257C214.822 204.257 216.044 202.002 216.044 199.222C216.044 196.441 214.822 194.187 213.314 194.187C211.806 194.187 210.583 196.441 210.583 199.222C210.583 202.002 211.806 204.257 213.314 204.257Z" fill="#C6C6C6"/>
<path d="M209.764 217.341C209.764 217.341 213.041 213.497 213.041 209.105C213.041 204.712 211.402 200.32 213.587 196.476C215.771 192.633 221.233 186.593 223.417 187.691C225.602 188.789 222.871 198.673 222.871 198.673C222.871 198.673 226.694 194.28 229.424 193.731C232.155 193.182 232.701 194.829 232.701 194.829C232.701 194.829 236.524 193.182 238.162 194.829C239.801 196.476 242.531 200.869 242.531 206.909C242.531 212.948 235.432 216.243 235.432 216.243C235.432 216.243 241.985 229.97 234.34 239.853C226.694 249.736 220.686 250.834 219.048 250.285C217.41 249.736 207.579 222.283 209.764 217.341Z" fill="#FDD7C1"/>
<path d="M154.059 99.84C132.214 92.153 121.292 109.174 121.292 109.174C121.292 109.174 116.923 110.272 115.83 114.665C114.738 119.057 119.653 139.922 118.561 147.609C117.48 155.208 115.333 158.514 115.284 158.59C115.448 158.59 123.766 158.651 125.524 157.525C125.568 157.498 125.611 157.459 125.661 157.421C126.999 156.18 128.719 155.724 130.281 155.993C131.395 162.544 132.711 167.43 133.039 168.748C133.328 169.918 137.566 178.84 141.465 186.933C143.612 192.523 146.277 198.634 147.68 199.743C147.926 200.248 148.063 200.528 148.063 200.528C148.063 200.528 148.112 200.298 148.188 199.897C148.33 199.842 148.445 199.672 148.521 199.37C149.1 197.119 149.663 192.347 149.685 187.175C149.75 185.105 149.701 183.057 149.45 181.24C149.155 177.918 148.554 174.761 147.517 172.317C147.222 171.625 146.921 170.901 146.621 170.17C144.502 159.782 141.739 141.652 139.909 129.133C140.188 127.321 140.422 126.195 140.422 126.195C140.422 126.195 145.337 131.686 155.173 132.235C159.236 132.46 163.3 132.68 167.352 133.026C171.786 133.405 174.107 135.046 175.855 130.396C177.444 126.173 174.752 119.81 172.611 116.279C168.537 109.591 161.563 102.481 154.059 99.84Z" fill="#322A7F"/>
<path d="M128.937 136.628V125.097C128.937 125.097 124.022 123.999 123.476 128.941C122.93 133.882 128.937 136.628 128.937 136.628Z" fill="#FCB0AB"/>
<g opacity="0.6">
<g opacity="0.6">
<path opacity="0.6" d="M123.869 128.457C123.929 130.028 124.317 131.587 125 133.004C127.086 137.314 130.63 134.053 129.615 130.407C129.058 128.397 123.738 124.971 123.869 128.457Z" fill="#665CFF"/>
</g>
</g>
<path d="M126.584 131.071C129.309 132.68 130.658 135.678 131.581 138.588C132.744 142.256 133.607 146.033 134.59 149.75C136.72 157.811 138.768 165.893 140.99 173.926C141.93 177.325 143.071 180.778 145.152 183.661C147.085 186.335 149.734 188.356 152.776 189.591C155.736 190.793 159.067 191.178 162.202 190.563C163.829 190.244 165.424 189.558 166.615 188.372C167.761 187.23 168.482 185.687 168.805 184.106C169.662 179.834 167.756 175.727 166.227 171.85C164.507 167.485 162.786 163.126 161.06 158.761C160.678 157.789 159.089 158.212 159.482 159.2C160.973 162.978 162.464 166.75 163.949 170.527C164.665 172.339 165.408 174.146 166.085 175.979C166.751 177.797 167.346 179.697 167.385 181.646C167.456 184.82 165.992 187.735 162.841 188.707C159.848 189.629 156.484 189.251 153.595 188.152C150.673 187.049 148.068 185.039 146.299 182.448C144.365 179.62 143.333 176.314 142.443 173.031C140.33 165.267 138.325 157.476 136.272 149.701C135.212 145.693 134.311 141.591 133.001 137.654C131.947 134.492 130.363 131.379 127.408 129.638C126.502 129.111 125.672 130.533 126.584 131.071Z" fill="white"/>
<path d="M112.827 273.395L98.4362 252.833C98.4362 252.833 78.6993 265.319 87.8305 277.201C100.708 293.953 112.827 273.395 112.827 273.395Z" fill="#AAD4FF"/>
<path d="M165.528 145.138C167.187 145.138 168.531 144.278 168.531 143.216C168.531 142.155 167.187 141.295 165.528 141.295C163.869 141.295 162.524 142.155 162.524 143.216C162.524 144.278 163.869 145.138 165.528 145.138Z" fill="#FB8D85"/>
<g opacity="0.6">
<path opacity="0.6" d="M143.399 250.175C145.376 248.693 148.161 249.017 149.745 250.917C153.524 255.457 160.662 263.117 167.439 265.385C175.467 268.075 188.585 260.514 193.134 257.648C194.194 256.984 195.466 256.77 196.679 257.055C199.442 257.714 201.004 260.69 199.934 263.337C197.285 269.887 190.688 280.242 175.631 279.106C159.389 277.881 146.768 264.517 141.367 257.741C139.718 255.671 140.1 252.646 142.214 251.065L143.399 250.175Z" fill="#665CFF"/>
</g>
<g opacity="0.6">
<path opacity="0.6" d="M194.756 156.685C199.016 161.627 213.09 151.634 221.648 146.308C224.324 144.644 227.546 147.45 226.262 150.343C224.111 155.192 219.938 160.347 220.954 165.459C221.5 168.205 224.231 169.852 222.046 170.401C220.282 170.846 213.871 164.109 211.484 161.512C210.905 160.88 210.102 160.518 209.251 160.485C205.941 160.358 197.394 159.749 194.756 156.685Z" fill="#665CFF"/>
</g>
<g opacity="0.6">
<path opacity="0.6" d="M240.265 198.217C240.265 198.217 243.35 208.281 240.074 209.379C236.797 210.478 232.428 209.379 231.336 212.674C230.243 215.968 232.974 220.361 233.52 229.146C234.066 237.931 230.79 246.716 229.151 248.363C227.513 250.011 239.528 240.127 240.074 234.088C240.62 228.048 238.435 216.517 238.435 216.517C238.435 216.517 244.989 214.321 244.443 208.281C243.897 202.242 240.265 198.217 240.265 198.217Z" fill="#665CFF"/>
</g>
<g opacity="0.6">
<path opacity="0.6" d="M211.135 268.048C210.911 260.113 217 260.476 219.818 255.309C220.064 254.853 220.353 254.326 220.785 254.277C221.063 254.244 221.325 254.425 221.56 254.612C226.743 258.56 229.173 264.61 230.107 271.973C232.046 287.287 231.516 303.583 232.046 319.084C232.21 323.844 232.373 328.632 231.827 333.348C231.505 336.154 231.019 339.383 232.488 341.524C233.236 342.611 234.356 343.171 235.219 344.116C236.082 345.06 236.644 346.806 235.912 347.915C235.623 348.354 235.191 348.591 234.771 348.794C219.447 356.085 213.03 333.354 212.473 318.386C211.845 301.579 211.615 284.844 211.135 268.048Z" fill="#665CFF"/>
</g>
<g opacity="0.6">
<g opacity="0.6">
<path opacity="0.6" d="M228.829 130.5C229.736 130.884 230.14 131.933 230.364 132.894C230.631 134.02 230.773 135.244 230.287 136.298C229.572 137.858 227.409 138.533 225.945 137.649C222.909 135.826 225.727 129.193 228.829 130.5Z" fill="#665CFF"/>
</g>
</g>
<g opacity="0.6">
<g opacity="0.6">
<path opacity="0.6" d="M276.56 349.941C274.725 347.119 271.776 345.055 268.505 344.319C263.983 343.298 259.276 344.736 254.65 344.423C251.384 344.203 248.184 343.083 245.491 341.222C244.394 340.464 243.225 339.542 241.903 339.701C243.498 346.169 248.107 351.814 254.109 354.636C256.277 355.657 258.598 356.316 260.936 356.821C264.513 357.59 281.645 357.771 276.56 349.941Z" fill="#665CFF"/>
</g>
</g>
<g opacity="0.6">
<path opacity="0.6" d="M56.5757 328.528V322.488C56.5757 322.488 62.0369 324.684 92.62 302.721C123.203 280.758 138.478 244.734 140.122 245.722C141.771 246.716 170.476 261.354 182.185 262.09C193.893 262.82 199.661 263.188 193.107 270.875C186.554 278.562 165.255 288.995 152.694 284.053C140.133 279.111 138.795 272.127 135.638 275.894C132.487 279.66 113.373 300.525 89.3432 314.801C65.3137 329.077 57.1218 330.724 57.1218 330.724L56.5757 328.528Z" fill="#665CFF"/>
</g>
<g opacity="0.6">
<g opacity="0.6">
<path opacity="0.6" d="M211.091 171.071C211.992 170.165 213.483 169.616 214.542 170.324C215.87 171.219 215.553 173.256 214.919 174.722C213.199 178.697 205.985 188.861 201.354 183.095C199.497 180.789 200.037 179.148 202.08 177.605C203.543 176.501 205.777 176.424 207.328 175.321C208.967 174.162 209.704 172.46 211.091 171.071Z" fill="#665CFF"/>
</g>
</g>
<g opacity="0.6">
<g opacity="0.6">
<path opacity="0.6" d="M216.012 336.917C214.455 335.254 213.172 332.975 213.761 330.773C215.875 322.883 230.67 325.947 232.614 332.602C236.349 345.411 221.817 343.122 216.012 336.917Z" fill="#665CFF"/>
</g>
</g>
<g opacity="0.6">
<g opacity="0.6">
<path opacity="0.6" d="M268.079 231.628C268.052 220.943 267.986 210.044 264.617 199.913C263.639 196.981 260.892 193.539 258.2 195.038C256.643 195.905 256.288 197.953 256.113 199.732C252.367 237.646 253.989 275.877 256.195 313.911C256.616 321.132 257.353 329.044 262.47 334.128C271.017 342.622 269.275 323.734 268.964 319.869C268.287 311.501 268.27 303.183 268.248 294.782C268.194 273.73 268.139 252.679 268.079 231.628Z" fill="#665CFF"/>
</g>
</g>
<g opacity="0.6">
<g opacity="0.6">
<path opacity="0.6" d="M193.615 186.225C194.522 184.353 195.723 182.316 197.738 181.849C199.267 181.498 200.895 182.2 201.998 183.321C203.101 184.441 203.756 185.929 204.275 187.411C206.574 193.994 206.58 201.16 205.974 208.111C205.57 212.762 204.619 217.895 200.9 220.69C198.202 222.716 194.636 223.035 191.278 223.276C188.421 223.485 183.943 224.138 183.523 220.487C183.14 217.204 184.708 212.74 185.429 209.555C187.264 201.495 190.011 193.649 193.615 186.225Z" fill="#665CFF"/>
</g>
</g>
<path d="M133.034 231.342C137.949 230.244 139.587 229.146 142.318 231.342C145.049 233.539 148.325 240.676 155.425 243.422C162.525 246.167 165.255 243.971 169.624 246.167C173.993 248.363 169.078 249.462 177.816 247.814C186.554 246.167 191.469 242.324 199.661 242.873C207.853 243.422 204.576 245.069 210.038 243.422C213.833 242.28 217.629 237.953 220.507 236.344C219.622 232.484 218.486 229.223 217.651 227.685C206.007 207.249 204.101 217.61 197.777 219.916C179.946 225.401 152.656 218.066 138.643 206.107C133.793 201.967 129.899 196.712 127.267 190.887C125.394 186.741 125.235 181.805 123.974 177.506C123.619 176.303 123.182 175.145 122.592 174.074C119.697 168.803 112.505 167.134 107.453 170.401C103.09 173.223 101.561 179.159 101.217 184.732C102.675 190.195 104.799 196.01 107.901 201.154C117.196 216.517 128.119 232.44 133.034 231.342Z" fill="#C8E4FF"/>
<path d="M218.229 245.069C219.146 246.222 220.446 245.634 221.811 244.888C221.713 243.449 221.544 241.994 221.32 240.561C219.294 242.109 217.109 243.663 218.229 245.069Z" fill="#C8E4FF"/>
<path d="M220.506 236.344C220.818 237.695 221.091 239.117 221.32 240.561L220.506 236.344Z" fill="#B6DCFC"/>
<path d="M101.26 190.804C102.543 209.676 113.7 227.032 128.79 238.332C153.234 256.632 185.439 259.531 214.936 258.966C215.689 258.949 216.443 258.84 217.137 258.549C221.26 256.841 222.221 251.059 221.806 244.888C220.441 245.634 219.141 246.222 218.223 245.069C217.104 243.663 219.288 242.109 221.309 240.561C221.085 239.112 220.807 237.689 220.495 236.344C217.617 237.958 213.822 242.28 210.026 243.422C204.565 245.069 207.842 243.422 199.65 242.873C191.458 242.324 186.543 246.167 177.805 247.814C169.067 249.462 173.982 248.363 169.613 246.167C165.244 243.971 162.513 246.167 155.414 243.422C148.314 240.676 145.037 233.538 142.306 231.342C139.576 229.146 137.937 230.244 133.022 231.342C128.107 232.44 117.185 216.517 107.901 201.143C104.799 196.004 102.669 190.189 101.216 184.721C101.09 186.873 101.134 188.97 101.26 190.804Z" fill="#B6DCFC"/>
<g opacity="0.6">
<g opacity="0.6">
<path opacity="0.6" d="M196.864 133.07C200.523 133.075 204.095 132.021 207.738 131.659C208.622 131.571 209.578 131.543 210.321 132.037C211.309 132.696 211.561 134.124 211.167 135.249C210.774 136.375 209.884 137.248 208.956 137.995C205.652 140.647 201.496 142.212 197.274 142.393C195.592 142.464 193.861 142.311 192.348 141.58C190.196 140.543 185.784 135.381 186.816 132.669C188.115 129.27 194.205 133.07 196.864 133.07Z" fill="#665CFF"/>
</g>
</g>
<g opacity="0.6">
<g opacity="0.6">
<path opacity="0.6" d="M222.603 192.627C222.488 192.237 222.336 191.826 222.002 191.59C221.189 191.008 220.118 191.864 219.572 192.71C217.169 196.443 216.902 201.467 218.895 205.437C219.031 205.712 219.19 205.992 219.447 206.162C220.85 207.073 223.166 194.566 222.603 192.627Z" fill="#665CFF"/>
</g>
</g>
<path d="M192.834 145.687C194.191 145.687 195.292 145.073 195.292 144.315C195.292 143.557 194.191 142.942 192.834 142.942C191.477 142.942 190.376 143.557 190.376 144.315C190.376 145.073 191.477 145.687 192.834 145.687Z" fill="#FCA387"/>
<path d="M134.53 110.744C134.562 113.138 136.452 115.373 138.795 115.79C140.155 116.032 141.542 115.725 142.902 115.488C150.908 114.083 157.21 116.125 164.867 117.701C169.443 118.646 168.63 115.972 165.642 113.342C161.492 109.685 157.565 113.473 152.858 114.237C150.591 114.604 134.584 114.621 134.53 110.744Z" fill="#322A7F"/>
<path d="M206.946 156.702C211.277 155.845 215.302 153.484 218.18 150.118L206.946 156.702Z" fill="#312A79"/>
<path d="M144.655 152.21C148.046 155.28 152.415 157.234 156.954 157.712L144.655 152.21Z" fill="#312A79"/>
<path d="M233.422 212.751C235.792 216.578 237.398 220.882 238.113 225.335C238.31 226.554 238.435 227.823 238.075 229.003" fill="#312A79"/>
<path d="M234.536 213.267C235.536 212.498 236.535 211.729 237.534 210.966L234.536 213.267Z" fill="#312A79"/>
<path d="M222.811 198.003C220.987 199.815 220.266 202.664 221.009 205.135L222.811 198.003Z" fill="#312A79"/>
<path d="M215.236 225.006C217.197 227.598 218.742 230.508 219.796 233.588L215.236 225.006Z" fill="#312A79"/>
<path d="M220.288 235.883C222.991 241.747 222.347 248.676 220.331 254.809C219.96 255.941 219.534 257.083 218.819 258.032C218.103 258.988 217.065 259.751 215.88 259.877" fill="#312A79"/>
<path d="M125.398 236.256C140.952 247.54 164.435 261.267 196.111 258.521L125.398 236.256Z" fill="#312A79"/>
<path d="M213.729 330.9C215.105 335.199 215.815 339.707 215.831 344.22C215.837 345.45 215.842 346.817 216.683 347.707C217.573 348.645 219.141 348.645 220.25 347.992C221.358 347.339 222.079 346.175 222.581 344.983C223.428 342.963 223.761 340.728 223.537 338.548" fill="#312A79"/>
<path d="M251.346 350.534C254.224 354.109 258.484 356.519 263.016 357.145L251.346 350.534Z" fill="#312A79"/>
<path d="M261.214 349.859C263.65 352.868 267.08 355.053 270.826 355.987L261.214 349.859Z" fill="#312A79"/>
<path d="M99.6597 254.518C104.127 260.393 108.665 266.208 113.275 271.968L99.6597 254.518Z" fill="#312A79"/>
<path d="M112.723 273.401C109.834 278.656 104.012 282.142 98.043 282.197L112.723 273.401Z" fill="#312A79"/>
<path d="M217.273 260.432C224.154 274.373 227.775 281.286 240.347 290.367L217.273 260.432Z" fill="#312A79"/>
<path d="M145.485 257.269C140.166 270.864 130.581 282.444 119.588 291.992C108.589 301.546 96.148 309.244 83.7673 316.887" fill="#312A79"/>
<path d="M201.272 138.945C203.473 139.56 205.87 139.236 207.831 138.061C208.284 137.792 207.869 137.078 207.416 137.347C205.635 138.412 203.484 138.703 201.49 138.143C200.982 138.011 200.764 138.802 201.272 138.945Z" fill="#312A79"/>
<path d="M200.911 132.751C202.069 132.565 203.238 132.46 204.406 132.422C204.991 132.405 205.575 132.4 206.165 132.422C206.46 132.433 206.749 132.444 207.044 132.46C207.192 132.471 207.339 132.477 207.481 132.488C207.552 132.493 207.628 132.499 207.699 132.504C207.956 132.548 207.902 132.493 207.547 132.339C207.508 132.202 207.47 132.065 207.437 131.922C207.459 131.845 207.492 131.779 207.541 131.713C207.47 131.785 207.448 131.807 207.481 131.779C207.399 131.796 207.284 131.867 207.202 131.895C206.897 131.999 206.591 132.087 206.274 132.158C205.717 132.285 205.149 132.345 204.581 132.356C203.401 132.372 202.205 132.147 201.124 131.659C200.72 131.477 200.245 131.543 200.005 131.955C199.803 132.306 199.89 132.899 200.299 133.081C202.451 134.047 204.871 134.278 207.153 133.635C207.689 133.487 208.273 133.322 208.672 132.916C209.125 132.455 209.267 131.697 208.759 131.208C208.284 130.758 207.443 130.829 206.837 130.797C206.203 130.764 205.57 130.753 204.936 130.758C203.445 130.78 201.965 130.923 200.491 131.159C200.054 131.23 199.808 131.779 199.917 132.175C200.032 132.647 200.474 132.823 200.911 132.751Z" fill="#312A79"/>
<g opacity="0.73">
<g opacity="0.73">
<path d="M202.637 152.869C202.446 153.105 202.2 153.347 201.905 153.599C200.545 154.747 198.525 154.676 196.832 154.137C195.647 153.759 194.445 153.1 193.954 151.952C191.638 146.538 206.433 148.262 202.637 152.869Z" fill="#EC5965"/>
</g>
</g>
<g opacity="0.73">
<path opacity="0.73" d="M164.84 148.125C162.486 148.301 160.208 147.653 157.926 147.192C157.494 147.104 157.041 147.318 156.915 147.768C156.806 148.175 157.052 148.691 157.489 148.784C159.908 149.273 162.349 149.965 164.834 149.778C165.276 149.745 165.653 149.421 165.653 148.954C165.659 148.526 165.287 148.092 164.84 148.125Z" fill="#EC5965"/>
</g>
<path d="M157.336 138.824C157.939 138.824 158.428 137.841 158.428 136.628C158.428 135.415 157.939 134.431 157.336 134.431C156.732 134.431 156.243 135.415 156.243 136.628C156.243 137.841 156.732 138.824 157.336 138.824Z" fill="#322A7F"/>
<path d="M262.705 269.777H214.171C212.494 269.777 211.135 271.144 211.135 272.83V303.506C211.135 305.192 212.494 306.559 214.171 306.559H239.364C240.172 306.559 240.942 306.883 241.516 307.454L245.814 311.775C247.73 313.703 251.002 312.335 251.002 309.612C251.002 307.926 252.362 306.559 254.038 306.559H262.705C264.382 306.559 265.742 305.192 265.742 303.506V272.83C265.742 271.144 264.382 269.777 262.705 269.777Z" fill="white"/>
<path d="M236.999 300.525C244.087 300.525 249.833 294.748 249.833 287.622C249.833 280.496 244.087 274.719 236.999 274.719C229.911 274.719 224.165 280.496 224.165 287.622C224.165 294.748 229.911 300.525 236.999 300.525Z" fill="#F9B712"/>
<path d="M233.307 279.951C231.368 281.264 229.752 283.032 228.654 285.107C228.452 285.486 228.545 286.019 228.949 286.233C229.326 286.436 229.856 286.343 230.069 285.936C230.314 285.47 230.593 285.014 230.893 284.575C230.97 284.465 231.046 284.355 231.123 284.251C231.172 284.185 231.216 284.124 231.265 284.058C231.21 284.13 231.254 284.075 231.281 284.036C231.456 283.817 231.631 283.608 231.822 283.4C232.177 283.004 232.554 282.631 232.952 282.285C233.051 282.197 233.154 282.109 233.253 282.027C233.302 281.983 233.356 281.944 233.406 281.901C233.422 281.89 233.58 281.769 233.509 281.818C233.444 281.868 233.602 281.747 233.618 281.736C233.673 281.697 233.728 281.659 233.777 281.621C233.897 281.533 234.017 281.45 234.137 281.373C234.492 281.132 234.683 280.638 234.432 280.248C234.203 279.891 233.689 279.693 233.307 279.951Z" fill="#312A79"/>
<path d="M239.866 281.373C240.085 281.522 240.303 281.675 240.511 281.835C240.396 281.747 240.593 281.901 240.593 281.901C240.636 281.933 240.674 281.966 240.718 281.999C240.822 282.082 240.92 282.17 241.018 282.257C241.428 282.614 241.816 282.999 242.176 283.4C242.351 283.597 242.526 283.8 242.69 284.009C242.706 284.025 242.815 284.168 242.733 284.064C242.772 284.119 242.815 284.168 242.853 284.223C242.93 284.327 243.012 284.437 243.083 284.547C243.394 284.992 243.673 285.459 243.929 285.942C244.131 286.321 244.688 286.469 245.049 286.238C245.437 285.991 245.557 285.519 245.344 285.113C244.246 283.037 242.63 281.269 240.691 279.957C240.336 279.715 239.768 279.874 239.571 280.253C239.358 280.66 239.489 281.115 239.866 281.373Z" fill="#312A79"/>
<path d="M233.52 288.72C234.274 288.72 234.885 287.737 234.885 286.524C234.885 285.311 234.274 284.327 233.52 284.327C232.766 284.327 232.155 285.311 232.155 286.524C232.155 287.737 232.766 288.72 233.52 288.72Z" fill="#312A79"/>
<path d="M240.074 288.72C240.828 288.72 241.439 287.737 241.439 286.524C241.439 285.311 240.828 284.327 240.074 284.327C239.32 284.327 238.708 285.311 238.708 286.524C238.708 287.737 239.32 288.72 240.074 288.72Z" fill="#312A79"/>
<path d="M232.936 295.298C233.99 295.298 233.99 293.651 232.936 293.651C231.882 293.651 231.882 295.298 232.936 295.298Z" fill="#F9B712"/>
<path d="M240.729 291.938C240.09 291.295 240.09 290.246 240.729 289.609L248.025 282.274C248.664 281.631 249.707 281.631 250.341 282.274C250.98 282.916 250.98 283.965 250.341 284.602L243.045 291.938C242.411 292.574 241.368 292.574 240.729 291.938Z" fill="#EC5965"/>
<path d="M231.734 295.66C233.635 294.233 235.694 292.789 238.08 292.371C240.057 292.025 242.209 292.547 243.514 294.145C244.186 294.963 245.338 293.793 244.672 292.981C243.132 291.097 240.565 290.411 238.222 290.702C235.459 291.043 233.083 292.607 230.899 294.244C230.074 294.864 230.888 296.297 231.734 295.66Z" fill="#312A79"/>
<path d="M95.1102 313.154H169.312C170.989 313.154 172.349 314.521 172.349 316.206V346.883C172.349 348.569 170.989 349.936 169.312 349.936H118.452C117.643 349.936 116.873 350.26 116.3 350.831L112.002 355.152C110.085 357.079 106.814 355.712 106.814 352.989C106.814 351.303 105.454 349.936 103.777 349.936H95.1102C93.4336 349.936 92.0737 348.569 92.0737 346.883V316.206C92.0737 314.521 93.4336 313.154 95.1102 313.154Z" fill="white"/>
<path d="M142.186 316.662C142.514 316.536 142.853 316.448 143.197 316.415C144.098 316.322 145.802 316.371 147.68 317.607C150.449 319.418 153.218 326.156 153.704 327.177C153.851 327.484 154.234 328.077 154.698 328.753C156.118 330.834 155.446 333.694 153.234 334.891C150.771 336.231 147.56 337.587 144.682 337.554C141.646 337.521 138.041 336.654 135.365 335.858C133.164 335.204 131.881 332.904 132.487 330.674C133.454 327.105 134.863 322.175 135.627 320.791C136.687 318.891 140.947 317.14 142.186 316.662Z" fill="#312A79"/>
<path d="M150.471 345.554H136.578C134.606 345.554 132.99 345.033 132.99 343.045C132.99 343.045 132.99 340.387 132.99 339.498C132.99 337.983 139.696 335.924 141.198 335.924H145.851C147.358 335.924 154.059 337.988 154.059 339.498C154.059 340.382 154.059 343.045 154.059 343.045C154.059 345.033 152.442 345.554 150.471 345.554Z" fill="#E0E0E0"/>
<path d="M136.954 328.5C137.482 328.5 137.91 327.822 137.91 326.985C137.91 326.148 137.482 325.469 136.954 325.469C136.426 325.469 135.999 326.148 135.999 326.985C135.999 327.822 136.426 328.5 136.954 328.5Z" fill="#E09600"/>
<path d="M149.816 328.5C150.343 328.5 150.771 327.822 150.771 326.985C150.771 326.148 150.343 325.469 149.816 325.469C149.288 325.469 148.86 326.148 148.86 326.985C148.86 327.822 149.288 328.5 149.816 328.5Z" fill="#E09600"/>
<path d="M143.388 338.954C141.88 338.954 140.652 337.719 140.652 336.204V333.178C140.652 331.663 141.88 330.427 143.388 330.427C144.895 330.427 146.124 331.663 146.124 333.178V336.204C146.124 337.714 144.895 338.954 143.388 338.954Z" fill="#E09600"/>
<path d="M140.641 335.792L143.803 345.28L146.402 335.836L140.641 335.792Z" fill="#80D0FF"/>
<path d="M140.788 335.929L136.135 336.753L140.236 339.778L139.144 341.431L143.524 345.28L140.788 335.929Z" fill="#EEEEEE"/>
<path d="M146.26 335.929L150.913 336.753L146.806 339.778L147.899 341.431L143.524 345.28L146.26 335.929Z" fill="#EEEEEE"/>
<path d="M143.388 334.276C146.862 334.276 149.679 330.52 149.679 325.887C149.679 321.253 146.862 317.497 143.388 317.497C139.913 317.497 137.096 321.253 137.096 325.887C137.096 330.52 139.913 334.276 143.388 334.276Z" fill="#F8C200"/>
<path d="M137.91 318.589C137.91 318.589 138.462 322.444 143.388 323.822C148.314 325.2 154.059 328.226 154.059 328.226C154.059 328.226 149.586 318.211 146.899 317.03C144.207 315.844 137.904 316.382 137.91 318.589Z" fill="#312A79"/>
<path d="M138.544 318.403C138.544 318.403 139.281 319.699 138.189 321.895C137.096 324.091 133.82 326.276 133.82 326.276C133.82 326.276 134.633 321.895 135.726 319.968C136.818 318.04 138.544 318.403 138.544 318.403Z" fill="#312A79"/>
<path d="M140.652 327.534C141.029 327.534 141.334 327.104 141.334 326.573C141.334 326.042 141.029 325.612 140.652 325.612C140.275 325.612 139.969 326.042 139.969 326.573C139.969 327.104 140.275 327.534 140.652 327.534Z" fill="#312A79"/>
<path d="M146.124 327.534C146.501 327.534 146.806 327.104 146.806 326.573C146.806 326.042 146.501 325.612 146.124 325.612C145.747 325.612 145.441 326.042 145.441 326.573C145.441 327.104 145.747 327.534 146.124 327.534Z" fill="#312A79"/>
<path d="M143.388 329.049C142.94 329.049 142.552 328.879 142.388 328.637C142.328 328.72 142.295 328.813 142.295 328.912C142.295 329.291 142.787 329.598 143.388 329.598C143.994 329.598 144.48 329.291 144.48 328.912C144.48 328.813 144.447 328.72 144.387 328.637C144.218 328.879 143.835 329.049 143.388 329.049Z" fill="#E09600"/>
<path d="M141.476 330.702C141.476 330.982 141.591 331.267 141.842 331.514C142.465 332.129 143.661 332.261 144.518 331.816C145.032 331.547 145.305 331.13 145.305 330.707H141.476V330.702Z" fill="#503F34"/>
<path d="M139.188 343.77V343.221C139.619 343.221 139.969 342.869 139.969 342.436V339.784C139.969 339.35 139.619 338.998 139.188 338.998H137.397C136.965 338.998 136.616 339.35 136.616 339.784V342.436C136.616 342.869 136.965 343.221 137.397 343.221V343.77C136.665 343.77 136.07 343.171 136.07 342.436V339.784C136.07 339.048 136.665 338.449 137.397 338.449H139.188C139.92 338.449 140.515 339.048 140.515 339.784V342.436C140.51 343.166 139.914 343.77 139.188 343.77Z" fill="#312A79"/>
<path d="M149.816 340.245H149.269C149.269 338.663 148.521 335.281 146.217 334.897L146.304 334.353C148.865 334.776 149.816 338.191 149.816 340.245Z" fill="#312A79"/>
<path d="M138.565 338.537H138.019C138.019 337.066 138.702 335.188 140.198 334.529L140.417 335.034C139.199 335.567 138.565 337.203 138.565 338.537Z" fill="#312A79"/>
<path d="M149.521 342.337C150.558 342.337 151.399 341.491 151.399 340.448C151.399 339.405 150.558 338.559 149.521 338.559C148.483 338.559 147.642 339.405 147.642 340.448C147.642 341.491 148.483 342.337 149.521 342.337Z" fill="#9E9E9E"/>
<path d="M111.412 343.874C118.5 343.874 124.246 338.097 124.246 330.971C124.246 323.845 118.5 318.068 111.412 318.068C104.324 318.068 98.5781 323.845 98.5781 330.971C98.5781 338.097 104.324 343.874 111.412 343.874Z" fill="#F9B712"/>
<path d="M107.933 332.069C108.687 332.069 109.299 331.086 109.299 329.873C109.299 328.66 108.687 327.676 107.933 327.676C107.179 327.676 106.568 328.66 106.568 329.873C106.568 331.086 107.179 332.069 107.933 332.069Z" fill="#312A79"/>
<path d="M114.487 332.069C115.241 332.069 115.852 331.086 115.852 329.873C115.852 328.66 115.241 327.676 114.487 327.676C113.733 327.676 113.121 328.66 113.121 329.873C113.121 331.086 113.733 332.069 114.487 332.069Z" fill="#312A79"/>
<path d="M107.349 338.647C108.403 338.647 108.403 337 107.349 337C106.295 337 106.289 338.647 107.349 338.647Z" fill="#F9B712"/>
<path d="M103.832 335.819C105.71 338.449 108.905 340.085 112.16 339.778C115.322 339.476 118.2 337.51 119.615 334.65C120.084 333.705 118.67 332.865 118.2 333.821C117.053 336.143 114.76 337.878 112.16 338.136C109.511 338.4 106.803 337.164 105.252 334.996C104.635 334.134 103.215 334.957 103.832 335.819Z" fill="#312A79"/>
</svg>
