<svg width="86" height="98" viewBox="0 0 86 98" fill="none" xmlns="http://www.w3.org/2000/svg">
<g filter="url(#filter0_d)">
<circle cx="36" cy="42" r="20" fill="white"/>
<g filter="url(#filter1_i)">
<path fill-rule="evenodd" clip-rule="evenodd" d="M39.2671 32.8692C39.2671 34.7197 37.7669 36.2199 35.9164 36.2199C34.0659 36.2199 32.5657 34.7197 32.5657 32.8692C32.5657 31.0187 34.0659 29.5186 35.9164 29.5186C37.7669 29.5186 39.2671 31.0187 39.2671 32.8692ZM39.267 51.2977C39.267 53.1483 37.7669 54.6484 35.9164 54.6484C34.0659 54.6484 32.5657 53.1483 32.5657 51.2977L32.5657 46.2721H26.8696C25.0191 46.2721 23.5189 44.7719 23.5189 42.9214C23.5189 41.0709 25.0191 39.5707 26.8696 39.5707H35.8714C35.8864 39.5705 35.9014 39.5704 35.9164 39.5704C35.9314 39.5704 35.9464 39.5705 35.9613 39.5707L45.1307 39.5707C46.9812 39.5707 48.4813 41.0709 48.4813 42.9214C48.4813 44.7719 46.9812 46.2721 45.1307 46.2721H39.267L39.267 51.2977Z" fill="url(#paint0_radial)"/>
</g>
</g>
<defs>
<filter id="filter0_d" x="-14" y="-2" width="100" height="100" filterUnits="userSpaceOnUse" color-interpolation-filters="sRGB">
<feFlood flood-opacity="0" result="BackgroundImageFix"/>
<feColorMatrix in="SourceAlpha" type="matrix" values="0 0 0 0 0 0 0 0 0 0 0 0 0 0 0 0 0 0 127 0"/>
<feOffset dy="6"/>
<feGaussianBlur stdDeviation="15"/>
<feColorMatrix type="matrix" values="0 0 0 0 0.191667 0 0 0 0 0.612 0 0 0 0 1 0 0 0 0.3 0"/>
<feBlend mode="normal" in2="BackgroundImageFix" result="effect1_dropShadow"/>
<feBlend mode="normal" in="SourceGraphic" in2="effect1_dropShadow" result="shape"/>
</filter>
<filter id="filter1_i" x="23.5189" y="29.5186" width="24.9624" height="29.1299" filterUnits="userSpaceOnUse" color-interpolation-filters="sRGB">
<feFlood flood-opacity="0" result="BackgroundImageFix"/>
<feBlend mode="normal" in="SourceGraphic" in2="BackgroundImageFix" result="shape"/>
<feColorMatrix in="SourceAlpha" type="matrix" values="0 0 0 0 0 0 0 0 0 0 0 0 0 0 0 0 0 0 127 0" result="hardAlpha"/>
<feOffset dy="4"/>
<feGaussianBlur stdDeviation="5"/>
<feComposite in2="hardAlpha" operator="arithmetic" k2="-1" k3="1"/>
<feColorMatrix type="matrix" values="0 0 0 0 0 0 0 0 0 0 0 0 0 0 0 0 0 0 0.25 0"/>
<feBlend mode="normal" in2="shape" result="effect1_innerShadow"/>
</filter>
<radialGradient id="paint0_radial" cx="0" cy="0" r="1" gradientUnits="userSpaceOnUse" gradientTransform="translate(26.4109 29.5185) rotate(59.0312) scale(29.3078 432.06)">
<stop offset="0.00520833" stop-color="#3DA1FF"/>
<stop offset="1" stop-color="#6C33E4"/>
</radialGradient>
</defs>
</svg>
