<svg width="263" height="240" viewBox="0 0 263 240" fill="none" xmlns="http://www.w3.org/2000/svg">
<g filter="url(#filter0_d)">
<path d="M50.0313 192.975C53.0342 193.044 55.2663 192.745 56.7045 192.077C58.1427 191.422 59.0171 190.375 59.3393 188.925C59.3968 188.741 59.4313 188.419 59.4313 187.981C59.4313 186.474 58.5799 185.324 56.8886 184.507C56.3823 184.196 54.1618 183.563 50.2153 182.631L47.0168 181.883C43.1969 180.813 40.0904 179.755 37.7088 178.685C35.3271 177.615 33.4402 176.246 32.071 174.543C30.6903 172.851 30 170.723 30 168.146C30 165.016 30.7824 162.128 32.3471 159.493C33.9119 156.859 36.0404 155.075 38.7443 154.132C40.9994 153.315 44.1289 152.912 48.1443 152.912C51.4625 152.912 55.2166 153.152 59.3994 153.628C62.4735 153.978 64.3355 157.143 63.26 160.044C62.4943 162.109 60.4393 163.405 58.2456 163.206L48.524 162.324C44.5086 162.266 42.219 163.359 41.6552 165.614C41.5976 165.925 41.5631 166.27 41.5631 166.65C41.5631 167.778 42.5296 168.721 44.474 169.469C45.0378 169.779 47.7992 170.596 52.7466 171.908C58.3843 173.289 62.4343 174.6 64.8735 175.854C69.1306 178.236 71.2706 181.584 71.2706 185.91C71.2706 186.98 71.1095 188.292 70.7989 189.857C69.7288 194.24 67.2782 197.554 63.4238 199.775C59.5694 201.995 54.4149 203.019 47.9602 202.835L40.0584 202.034C36.6679 201.691 34.5951 198.144 35.9598 195.021C36.8368 193.015 38.9122 191.807 41.0901 192.036L50.0313 192.975Z" fill="white"/>
<path d="M82.8912 157.146C87.2748 154.143 92.1072 152.636 97.3653 152.636C100.932 152.636 104.637 153.499 108.457 155.225C112.277 156.951 115.544 159.781 118.236 163.739C121.182 168.192 122.655 172.99 122.655 178.121C122.655 179.502 122.563 180.848 122.367 182.16L122.183 182.067V182.16L83.2594 183.195C84.0073 185.266 85.1348 187.061 86.642 188.603C88.1493 190.144 89.8981 191.283 91.9116 192.031C93.5454 192.653 95.2943 192.975 97.1812 192.975C99.3097 192.975 101.369 192.549 103.337 191.709C105.304 190.869 106.984 189.661 108.365 188.085L118.616 192.031C116.292 195.598 113.22 198.428 109.4 200.488C105.58 202.559 101.507 203.594 97.1812 203.594C93.5454 203.594 89.8291 202.732 86.0437 201.006C82.2469 199.28 79.0023 196.415 76.31 192.4C73.2955 187.947 71.7998 183.16 71.7998 178.017C71.7998 175.015 72.3636 172 73.4911 168.997C75.3665 164.107 78.4961 160.161 82.8912 157.146ZM83.1673 173.415L111.091 172.759C110.401 170.815 109.32 169.112 107.847 167.639C106.374 166.167 104.637 165.051 102.623 164.303C100.99 163.682 99.2407 163.359 97.3538 163.359C94.2818 163.359 91.4629 164.211 88.8971 165.902C86.3199 167.593 84.479 169.918 83.3514 172.863L83.1673 173.415Z" fill="white"/>
<path d="M161.866 175.107C161.866 171.471 160.612 168.606 158.104 166.5C155.595 164.406 152.558 163.348 148.98 163.348C145.344 163.348 142.272 164.395 139.764 166.5C137.255 168.606 136.001 171.471 136.001 175.107V198.331C136.001 201.238 133.645 203.594 130.737 203.594C127.83 203.594 125.474 201.238 125.474 198.331V175.107C125.474 170.723 126.555 166.823 128.718 163.405C130.881 159.988 133.815 157.342 137.508 155.467C141.144 153.649 144.964 152.74 148.98 152.74C153.11 152.74 156.976 153.66 160.543 155.513C164.121 157.365 167.032 159.942 169.287 163.267C171.485 166.777 172.578 170.723 172.578 175.118L172.427 198.359C172.409 201.262 170.05 203.606 167.147 203.606C164.23 203.606 161.866 201.242 161.866 198.325V175.107Z" fill="white"/>
<path d="M195.428 192.975C198.431 193.044 200.663 192.745 202.101 192.077C203.54 191.422 204.414 190.375 204.736 188.925C204.794 188.741 204.828 188.419 204.828 187.981C204.828 186.474 203.977 185.324 202.286 184.507C201.779 184.196 199.559 183.563 195.612 182.631L192.414 181.883C188.594 180.813 185.487 179.755 183.106 178.685C180.724 177.615 178.837 176.246 177.468 174.543C176.087 172.851 175.397 170.723 175.397 168.146C175.397 165.016 176.179 162.128 177.744 159.493C179.309 156.859 181.437 155.075 184.141 154.132C186.396 153.315 189.526 152.912 193.541 152.912C196.859 152.912 200.614 153.152 204.796 153.628C207.87 153.978 209.732 157.143 208.657 160.044C207.891 162.109 205.836 163.405 203.643 163.206L193.91 162.324C189.894 162.266 187.604 163.359 187.041 165.614C186.983 165.925 186.949 166.27 186.949 166.65C186.949 167.778 187.915 168.721 189.86 169.469C190.423 169.779 193.185 170.596 198.132 171.908C203.77 173.289 207.82 174.6 210.259 175.854C214.516 178.236 216.656 181.584 216.656 185.91C216.656 186.98 216.495 188.292 216.184 189.857C215.114 194.24 212.664 197.554 208.809 199.775C204.955 201.995 199.8 203.019 193.346 202.835L185.439 202.028C182.05 201.682 179.979 198.135 181.344 195.014C182.222 193.005 184.299 191.797 186.479 192.028L195.428 192.975Z" fill="white"/>
<path d="M231.694 197.634C231.694 201.034 228.938 203.79 225.538 203.79C222.139 203.79 219.383 201.034 219.383 197.634V158.884C219.383 155.484 222.139 152.728 225.538 152.728C228.938 152.728 231.694 155.484 231.694 158.884V197.634Z" fill="white"/>
<path d="M218.347 141.361C218.347 143.305 219.026 144.95 220.372 146.296C221.718 147.643 223.363 148.321 225.308 148.321C227.252 148.321 228.897 147.643 230.243 146.296C231.59 144.95 232.268 143.305 232.268 141.361C232.268 139.474 231.59 137.863 230.243 136.517C228.897 135.171 227.252 134.492 225.308 134.492C223.363 134.492 221.718 135.171 220.372 136.517C219.014 137.863 218.347 139.485 218.347 141.361Z" fill="white"/>
<circle cx="130.909" cy="74.9061" r="50.9061" fill="white"/>
<g filter="url(#filter1_i)">
<path fill-rule="evenodd" clip-rule="evenodd" d="M139.224 51.6657C139.224 56.3758 135.406 60.1941 130.696 60.1941C125.986 60.1941 122.168 56.3758 122.168 51.6657C122.168 46.9555 125.986 43.1372 130.696 43.1372C135.406 43.1372 139.224 46.9555 139.224 51.6657ZM139.224 98.5722C139.224 103.282 135.406 107.101 130.696 107.101C125.986 107.101 122.168 103.282 122.168 98.5722L122.168 85.7798H107.669C102.959 85.7798 99.1407 81.9614 99.1407 77.2513C99.1407 72.5412 102.959 68.7229 107.669 68.7229H130.639C130.658 68.7227 130.677 68.7227 130.696 68.7227C130.715 68.7227 130.734 68.7227 130.753 68.7229L154.149 68.7229C158.859 68.7229 162.678 72.5412 162.678 77.2513C162.678 81.9614 158.859 85.7798 154.149 85.7798H139.224L139.224 98.5722Z" fill="url(#paint0_radial)"/>
</g>
</g>
<defs>
<filter id="filter0_d" x="0" y="0" width="262.268" height="239.79" filterUnits="userSpaceOnUse" color-interpolation-filters="sRGB">
<feFlood flood-opacity="0" result="BackgroundImageFix"/>
<feColorMatrix in="SourceAlpha" type="matrix" values="0 0 0 0 0 0 0 0 0 0 0 0 0 0 0 0 0 0 127 0"/>
<feOffset dy="6"/>
<feGaussianBlur stdDeviation="15"/>
<feColorMatrix type="matrix" values="0 0 0 0 0 0 0 0 0 0 0 0 0 0 0 0 0 0 0.2 0"/>
<feBlend mode="normal" in2="BackgroundImageFix" result="effect1_dropShadow"/>
<feBlend mode="normal" in="SourceGraphic" in2="effect1_dropShadow" result="shape"/>
</filter>
<filter id="filter1_i" x="99.1406" y="43.1372" width="63.5369" height="67.9635" filterUnits="userSpaceOnUse" color-interpolation-filters="sRGB">
<feFlood flood-opacity="0" result="BackgroundImageFix"/>
<feBlend mode="normal" in="SourceGraphic" in2="BackgroundImageFix" result="shape"/>
<feColorMatrix in="SourceAlpha" type="matrix" values="0 0 0 0 0 0 0 0 0 0 0 0 0 0 0 0 0 0 127 0" result="hardAlpha"/>
<feOffset dy="4"/>
<feGaussianBlur stdDeviation="5"/>
<feComposite in2="hardAlpha" operator="arithmetic" k2="-1" k3="1"/>
<feColorMatrix type="matrix" values="0 0 0 0 0 0 0 0 0 0 0 0 0 0 0 0 0 0 0.25 0"/>
<feBlend mode="normal" in2="shape" result="effect1_innerShadow"/>
</filter>
<radialGradient id="paint0_radial" cx="0" cy="0" r="1" gradientUnits="userSpaceOnUse" gradientTransform="translate(106.502 43.1372) rotate(59.0313) scale(74.5975 1099.72)">
<stop offset="0.00520833" stop-color="#3DA1FF"/>
<stop offset="1" stop-color="#6C33E4"/>
</radialGradient>
</defs>
</svg>
