<svg width="28" height="28" viewBox="0 0 28 28" fill="none" xmlns="http://www.w3.org/2000/svg">
<path d="M23.8125 4.0625C25.125 5.4375 26.125 6.9375 26.875 8.625C27.625 10.3125 28 12.0625 28 13.875C28 16.375 27.3125 18.6875 26.0625 20.8125C24.8125 22.9375 23.0625 24.625 20.9375 25.875C18.8125 27.125 16.5 27.75 14 27.75C11.625 27.75 9.375 27.1875 7.375 26.0625L0 28L2 20.8125C0.75 18.6875 0.125 16.375 0.125 13.875C0.125 11.375 0.75 9.0625 2 6.9375C3.25 4.8125 4.9375 3.125 7.0625 1.875C9.1875 0.625 11.5 0 14 0C15.8125 0 17.5625 0.375 19.25 1.0625C20.9375 1.8125 22.4375 2.8125 23.8125 4.0625ZM14 25.4375C16.0625 25.4375 18 24.9375 19.8125 23.875C21.5625 22.875 23 21.4375 24.0625 19.6875C25.125 17.9375 25.6875 16 25.6875 13.875C25.6875 12.375 25.375 10.9375 24.75 9.5C24.125 8.125 23.25 6.875 22.125 5.75C21 4.625 19.75 3.8125 18.375 3.1875C17 2.625 15.5 2.3125 14 2.3125C11.875 2.3125 9.9375 2.875 8.1875 3.875C6.4375 4.9375 5 6.375 4 8.125C2.9375 9.875 2.4375 11.8125 2.4375 13.875C2.4375 16.125 3 18.125 4.25 20L4.5 20.4375L3.3125 24.6875L7.6875 23.5625L8.125 23.8125C9.875 24.9375 11.875 25.4375 14 25.4375ZM20.3125 16.75L20.5 16.875C20.75 17 20.9375 17.125 21 17.1875C21 17.3125 21 17.5 21 17.8125C21 18.1875 20.875 18.5 20.75 18.875C20.625 19.25 20.25 19.5625 19.75 19.9375C19.25 20.3125 18.8125 20.5 18.4375 20.5C17.8125 20.625 17.25 20.625 16.75 20.5C16.125 20.375 15.25 20.125 14.25 19.625C12.125 18.75 10.1875 17 8.4375 14.5L8.3125 14.375C7.375 13.125 6.9375 11.9375 6.9375 10.8125C6.9375 9.75 7.3125 8.8125 8.0625 8L8.125 7.9375C8.375 7.6875 8.6875 7.5 9.0625 7.5H9.8125C9.9375 7.5 10.0625 7.5625 10.1875 7.625C10.3125 7.6875 10.375 7.8125 10.5 8.0625L11.5625 10.625C11.6875 10.875 11.6875 11.125 11.625 11.25C11.375 11.6875 11.125 12.0625 10.8125 12.375C10.625 12.5625 10.5 12.6875 10.5 12.8125C10.4375 12.9375 10.5 13 10.625 13.125C11.1875 14.25 11.875 15.0625 12.6875 15.6875C13.25 16.1875 14.125 16.6875 15.3125 17.25C15.625 17.4375 15.875 17.4375 16.0625 17.1875C16.5625 16.5625 16.9375 16.125 17.1875 15.8125C17.25 15.6875 17.375 15.5625 17.5 15.5625C17.625 15.5625 17.75 15.625 17.9375 15.625C18.25 15.75 19.0625 16.125 20.3125 16.75Z" fill="white"/>
</svg>
