<svg width="140" height="148" viewBox="0 0 140 148" fill="none" xmlns="http://www.w3.org/2000/svg">
<g filter="url(#filter0_d)">
<path d="M36.2648 24H103.724C107.194 24 110 26.7921 110 30.2345V92.882C110 96.3244 107.194 99.1165 103.735 99.1165H84.4338C82.7662 99.1165 81.1775 99.778 79.9944 100.944L71.1268 109.78C67.1718 113.716 60.4225 110.924 60.4225 105.362C60.4225 101.92 57.6169 99.1277 54.1577 99.1277H36.2648C32.8056 99.1277 30 96.3356 30 92.8932V30.2345C30 26.7921 32.8056 24 36.2648 24Z" fill="white"/>
<path d="M70 87.4921C84.3769 87.4921 96.0318 75.8373 96.0318 61.4603C96.0318 47.0834 84.3769 35.4286 70 35.4286C55.6231 35.4286 43.9683 47.0834 43.9683 61.4603C43.9683 75.8373 55.6231 87.4921 70 87.4921Z" fill="#F9B712"/>
<path d="M62.9437 63.6758C64.4732 63.6758 65.713 61.692 65.713 59.2449C65.713 56.7978 64.4732 54.814 62.9437 54.814C61.4142 54.814 60.1744 56.7978 60.1744 59.2449C60.1744 61.692 61.4142 63.6758 62.9437 63.6758Z" fill="#312A79"/>
<path d="M76.2366 63.6758C77.766 63.6758 79.0059 61.692 79.0059 59.2449C79.0059 56.7978 77.766 54.814 76.2366 54.814C74.7071 54.814 73.4672 56.7978 73.4672 59.2449C73.4672 61.692 74.7071 63.6758 76.2366 63.6758Z" fill="#312A79"/>
<path d="M61.7584 76.9465C63.8963 76.9465 63.8963 73.6233 61.7584 73.6233C59.6205 73.6233 59.6094 76.9465 61.7584 76.9465Z" fill="#F9B712"/>
<path d="M59.8864 74.0442C67.4965 72.0281 75.4722 71.8841 83.1488 73.6343C85.2313 74.1107 86.1175 70.9093 84.035 70.433C75.7824 68.5498 67.1974 68.6828 59.0002 70.8428C56.9398 71.3856 57.8149 74.5981 59.8864 74.0442Z" fill="#312A79"/>
</g>
<defs>
<filter id="filter0_d" x="0" y="0" width="140" height="147.622" filterUnits="userSpaceOnUse" color-interpolation-filters="sRGB">
<feFlood flood-opacity="0" result="BackgroundImageFix"/>
<feColorMatrix in="SourceAlpha" type="matrix" values="0 0 0 0 0 0 0 0 0 0 0 0 0 0 0 0 0 0 127 0"/>
<feOffset dy="6"/>
<feGaussianBlur stdDeviation="15"/>
<feColorMatrix type="matrix" values="0 0 0 0 0 0 0 0 0 0 0 0 0 0 0 0 0 0 0.2 0"/>
<feBlend mode="normal" in2="BackgroundImageFix" result="effect1_dropShadow"/>
<feBlend mode="normal" in="SourceGraphic" in2="effect1_dropShadow" result="shape"/>
</filter>
</defs>
</svg>
