<svg width="28" height="28" viewBox="0 0 28 28" fill="none" xmlns="http://www.w3.org/2000/svg">
<path d="M20.6875 12.6875H18V10H20.6875V12.6875ZM15.3125 12.6875H12.6875V10H15.3125V12.6875ZM10 12.6875H7.3125V10H10V12.6875ZM24.6875 0.6875H3.3125C2.5625 0.6875 1.9375 0.9375 1.4375 1.4375C0.9375 1.9375 0.6875 2.5625 0.6875 3.3125V27.3125L6 22H24.6875C25.4375 22 26.0625 21.75 26.5625 21.25C27.0625 20.7083 27.3125 20.0625 27.3125 19.3125V3.3125C27.3125 2.5625 27.0625 1.9375 26.5625 1.4375C26.0625 0.9375 25.4375 0.6875 24.6875 0.6875Z" fill="white"/>
</svg>
