<svg width="230" height="30" viewBox="0 0 230 30" fill="none" xmlns="http://www.w3.org/2000/svg">
<path d="M55.968 9.912H58.464V21H55.968V16.296H51.776V21H49.28V9.912H51.776V14.152H55.968V9.912ZM64.086 19.336C64.3207 19.336 64.5447 19.3307 64.758 19.32C64.9713 19.3093 65.142 19.2933 65.27 19.272V17.464C65.174 17.4427 65.03 17.4213 64.838 17.4C64.646 17.3787 64.47 17.368 64.31 17.368C64.086 17.368 63.8727 17.384 63.67 17.416C63.478 17.4373 63.3073 17.4853 63.158 17.56C63.0087 17.6347 62.8913 17.736 62.806 17.864C62.7207 17.992 62.678 18.152 62.678 18.344C62.678 18.7173 62.8007 18.9787 63.046 19.128C63.302 19.2667 63.6487 19.336 64.086 19.336ZM63.894 12.36C64.598 12.36 65.1847 12.44 65.654 12.6C66.1233 12.76 66.4967 12.9893 66.774 13.288C67.062 13.5867 67.2647 13.9493 67.382 14.376C67.4993 14.8027 67.558 15.2773 67.558 15.8V20.76C67.2167 20.8347 66.742 20.92 66.134 21.016C65.526 21.1227 64.79 21.176 63.926 21.176C63.382 21.176 62.886 21.128 62.438 21.032C62.0007 20.936 61.622 20.7813 61.302 20.568C60.982 20.344 60.7367 20.056 60.566 19.704C60.3953 19.352 60.31 18.92 60.31 18.408C60.31 17.9173 60.406 17.5013 60.598 17.16C60.8007 16.8187 61.0673 16.5467 61.398 16.344C61.7287 16.1413 62.1073 15.9973 62.534 15.912C62.9607 15.816 63.4033 15.768 63.862 15.768C64.1713 15.768 64.4433 15.784 64.678 15.816C64.9233 15.8373 65.1207 15.8693 65.27 15.912V15.688C65.27 15.2827 65.1473 14.9573 64.902 14.712C64.6567 14.4667 64.23 14.344 63.622 14.344C63.2167 14.344 62.8167 14.376 62.422 14.44C62.0273 14.4933 61.686 14.5733 61.398 14.68L61.094 12.76C61.2327 12.7173 61.4033 12.6747 61.606 12.632C61.8193 12.5787 62.0487 12.536 62.294 12.504C62.5393 12.4613 62.7953 12.4293 63.062 12.408C63.3393 12.376 63.6167 12.36 63.894 12.36ZM75.1058 16.728C75.1058 15.192 74.5404 14.424 73.4098 14.424C73.1644 14.424 72.9191 14.456 72.6738 14.52C72.4391 14.584 72.2471 14.664 72.0978 14.76V19.096C72.2151 19.1173 72.3644 19.1387 72.5458 19.16C72.7271 19.1707 72.9244 19.176 73.1378 19.176C73.7884 19.176 74.2791 18.952 74.6098 18.504C74.9404 18.056 75.1058 17.464 75.1058 16.728ZM77.5378 16.792C77.5378 17.464 77.4364 18.072 77.2338 18.616C77.0418 19.16 76.7591 19.624 76.3858 20.008C76.0124 20.392 75.5538 20.6907 75.0098 20.904C74.4658 21.1067 73.8471 21.208 73.1538 21.208C72.8658 21.208 72.5618 21.192 72.2418 21.16C71.9324 21.1387 71.6231 21.1067 71.3138 21.064C71.0151 21.0213 70.7271 20.9733 70.4498 20.92C70.1724 20.856 69.9271 20.792 69.7138 20.728V8.968L72.0978 8.584V12.776C72.3644 12.6587 72.6418 12.568 72.9298 12.504C73.2178 12.44 73.5271 12.408 73.8578 12.408C74.4551 12.408 74.9831 12.5147 75.4418 12.728C75.9004 12.9307 76.2844 13.224 76.5938 13.608C76.9031 13.992 77.1378 14.456 77.2978 15C77.4578 15.5333 77.5378 16.1307 77.5378 16.792ZM82.73 21.16C82.0367 21.1493 81.4713 21.0747 81.034 20.936C80.6073 20.7973 80.266 20.6053 80.01 20.36C79.7647 20.104 79.594 19.8 79.498 19.448C79.4127 19.0853 79.37 18.68 79.37 18.232V8.968L81.754 8.584V17.752C81.754 17.9653 81.77 18.1573 81.802 18.328C81.834 18.4987 81.8927 18.6427 81.978 18.76C82.074 18.8773 82.2073 18.9733 82.378 19.048C82.5487 19.1227 82.778 19.1707 83.066 19.192L82.73 21.16ZM87.8829 19.336C88.1175 19.336 88.3415 19.3307 88.5549 19.32C88.7682 19.3093 88.9389 19.2933 89.0669 19.272V17.464C88.9709 17.4427 88.8269 17.4213 88.6349 17.4C88.4429 17.3787 88.2669 17.368 88.1069 17.368C87.8829 17.368 87.6695 17.384 87.4669 17.416C87.2749 17.4373 87.1042 17.4853 86.9549 17.56C86.8055 17.6347 86.6882 17.736 86.6029 17.864C86.5175 17.992 86.4749 18.152 86.4749 18.344C86.4749 18.7173 86.5975 18.9787 86.8429 19.128C87.0989 19.2667 87.4455 19.336 87.8829 19.336ZM87.6909 12.36C88.3949 12.36 88.9815 12.44 89.4509 12.6C89.9202 12.76 90.2935 12.9893 90.5709 13.288C90.8589 13.5867 91.0615 13.9493 91.1789 14.376C91.2962 14.8027 91.3549 15.2773 91.3549 15.8V20.76C91.0135 20.8347 90.5389 20.92 89.9309 21.016C89.3229 21.1227 88.5869 21.176 87.7229 21.176C87.1789 21.176 86.6829 21.128 86.2349 21.032C85.7975 20.936 85.4189 20.7813 85.0989 20.568C84.7789 20.344 84.5335 20.056 84.3629 19.704C84.1922 19.352 84.1069 18.92 84.1069 18.408C84.1069 17.9173 84.2029 17.5013 84.3949 17.16C84.5975 16.8187 84.8642 16.5467 85.1949 16.344C85.5255 16.1413 85.9042 15.9973 86.3309 15.912C86.7575 15.816 87.2002 15.768 87.6589 15.768C87.9682 15.768 88.2402 15.784 88.4749 15.816C88.7202 15.8373 88.9175 15.8693 89.0669 15.912V15.688C89.0669 15.2827 88.9442 14.9573 88.6989 14.712C88.4535 14.4667 88.0269 14.344 87.4189 14.344C87.0135 14.344 86.6135 14.376 86.2189 14.44C85.8242 14.4933 85.4829 14.5733 85.1949 14.68L84.8909 12.76C85.0295 12.7173 85.2002 12.6747 85.4029 12.632C85.6162 12.5787 85.8455 12.536 86.0909 12.504C86.3362 12.4613 86.5922 12.4293 86.8589 12.408C87.1362 12.376 87.4135 12.36 87.6909 12.36ZM98.5826 14.696C98.3693 14.6427 98.1186 14.5893 97.8306 14.536C97.5426 14.472 97.2333 14.44 96.9026 14.44C96.7533 14.44 96.572 14.456 96.3586 14.488C96.156 14.5093 96.0013 14.536 95.8946 14.568V21H93.5106V13.032C93.9373 12.8827 94.4386 12.744 95.0146 12.616C95.6013 12.4773 96.252 12.408 96.9666 12.408C97.0946 12.408 97.2493 12.4187 97.4306 12.44C97.612 12.4507 97.7933 12.472 97.9746 12.504C98.156 12.5253 98.3373 12.5573 98.5186 12.6C98.7 12.632 98.8546 12.6747 98.9826 12.728L98.5826 14.696ZM103.704 16.792C103.704 16.184 103.8 15.6133 103.992 15.08C104.195 14.536 104.483 14.0667 104.856 13.672C105.23 13.2667 105.683 12.9467 106.216 12.712C106.75 12.4773 107.358 12.36 108.04 12.36C108.488 12.36 108.899 12.4027 109.272 12.488C109.646 12.5627 110.008 12.6747 110.36 12.824L109.864 14.728C109.64 14.6427 109.395 14.568 109.128 14.504C108.862 14.44 108.563 14.408 108.232 14.408C107.528 14.408 107 14.6267 106.648 15.064C106.307 15.5013 106.136 16.0773 106.136 16.792C106.136 17.5493 106.296 18.136 106.616 18.552C106.947 18.968 107.518 19.176 108.328 19.176C108.616 19.176 108.926 19.1493 109.256 19.096C109.587 19.0427 109.891 18.9573 110.168 18.84L110.504 20.792C110.227 20.9093 109.88 21.0107 109.464 21.096C109.048 21.1813 108.59 21.224 108.088 21.224C107.32 21.224 106.659 21.112 106.104 20.888C105.55 20.6533 105.091 20.3387 104.728 19.944C104.376 19.5493 104.115 19.0853 103.944 18.552C103.784 18.008 103.704 17.4213 103.704 16.792ZM119.57 16.776C119.57 17.4373 119.474 18.0453 119.282 18.6C119.09 19.144 118.813 19.6133 118.45 20.008C118.087 20.392 117.65 20.6907 117.138 20.904C116.637 21.1173 116.071 21.224 115.442 21.224C114.823 21.224 114.258 21.1173 113.746 20.904C113.245 20.6907 112.813 20.392 112.45 20.008C112.087 19.6133 111.805 19.144 111.602 18.6C111.399 18.0453 111.298 17.4373 111.298 16.776C111.298 16.1147 111.399 15.512 111.602 14.968C111.815 14.424 112.103 13.96 112.466 13.576C112.839 13.192 113.277 12.8933 113.778 12.68C114.29 12.4667 114.845 12.36 115.442 12.36C116.05 12.36 116.605 12.4667 117.106 12.68C117.618 12.8933 118.055 13.192 118.418 13.576C118.781 13.96 119.063 14.424 119.266 14.968C119.469 15.512 119.57 16.1147 119.57 16.776ZM117.138 16.776C117.138 16.04 116.989 15.464 116.69 15.048C116.402 14.6213 115.986 14.408 115.442 14.408C114.898 14.408 114.477 14.6213 114.178 15.048C113.879 15.464 113.73 16.04 113.73 16.776C113.73 17.512 113.879 18.0987 114.178 18.536C114.477 18.9627 114.898 19.176 115.442 19.176C115.986 19.176 116.402 18.9627 116.69 18.536C116.989 18.0987 117.138 17.512 117.138 16.776ZM121.417 12.872C121.822 12.7547 122.345 12.648 122.985 12.552C123.625 12.4453 124.297 12.392 125.001 12.392C125.716 12.392 126.308 12.488 126.777 12.68C127.257 12.8613 127.636 13.1227 127.913 13.464C128.19 13.8053 128.388 14.2107 128.505 14.68C128.622 15.1493 128.681 15.672 128.681 16.248V21H126.297V16.536C126.297 15.768 126.196 15.224 125.993 14.904C125.79 14.584 125.412 14.424 124.857 14.424C124.686 14.424 124.505 14.4347 124.313 14.456C124.121 14.4667 123.95 14.4827 123.801 14.504V21H121.417V12.872ZM141.867 20.712C141.461 20.8293 140.939 20.936 140.299 21.032C139.659 21.1387 138.987 21.192 138.283 21.192C137.568 21.192 136.971 21.096 136.491 20.904C136.021 20.712 135.648 20.4453 135.371 20.104C135.093 19.752 134.896 19.336 134.779 18.856C134.661 18.376 134.603 17.848 134.603 17.272V12.584H136.987V16.984C136.987 17.752 137.088 18.3067 137.291 18.648C137.493 18.9893 137.872 19.16 138.427 19.16C138.597 19.16 138.779 19.1547 138.971 19.144C139.163 19.1227 139.333 19.1013 139.483 19.08V12.584H141.867V20.712ZM144.104 12.872C144.51 12.7547 145.032 12.648 145.672 12.552C146.312 12.4453 146.984 12.392 147.688 12.392C148.403 12.392 148.995 12.488 149.464 12.68C149.944 12.8613 150.323 13.1227 150.6 13.464C150.878 13.8053 151.075 14.2107 151.192 14.68C151.31 15.1493 151.368 15.672 151.368 16.248V21H148.984V16.536C148.984 15.768 148.883 15.224 148.68 14.904C148.478 14.584 148.099 14.424 147.544 14.424C147.374 14.424 147.192 14.4347 147 14.456C146.808 14.4667 146.638 14.4827 146.488 14.504V21H144.104V12.872ZM162.762 16.856C162.762 16.12 162.597 15.5333 162.266 15.096C161.935 14.648 161.445 14.424 160.794 14.424C160.581 14.424 160.383 14.4347 160.202 14.456C160.021 14.4667 159.871 14.4827 159.754 14.504V18.808C159.903 18.904 160.095 18.984 160.33 19.048C160.575 19.112 160.821 19.144 161.066 19.144C162.197 19.144 162.762 18.3813 162.762 16.856ZM165.194 16.792C165.194 17.4427 165.114 18.0347 164.954 18.568C164.794 19.1013 164.559 19.56 164.25 19.944C163.941 20.328 163.557 20.6267 163.098 20.84C162.639 21.0533 162.111 21.16 161.514 21.16C161.183 21.16 160.874 21.128 160.586 21.064C160.298 21 160.021 20.9093 159.754 20.792V23.96H157.37V12.872C157.583 12.808 157.829 12.7493 158.106 12.696C158.383 12.632 158.671 12.5787 158.97 12.536C159.279 12.4933 159.589 12.4613 159.898 12.44C160.218 12.408 160.522 12.392 160.81 12.392C161.503 12.392 162.122 12.4987 162.666 12.712C163.21 12.9147 163.669 13.208 164.042 13.592C164.415 13.9653 164.698 14.424 164.89 14.968C165.093 15.512 165.194 16.12 165.194 16.792ZM169.442 19.288C169.88 19.288 170.189 19.2453 170.37 19.16C170.552 19.0747 170.642 18.9093 170.642 18.664C170.642 18.472 170.525 18.3067 170.29 18.168C170.056 18.0187 169.698 17.8533 169.218 17.672C168.845 17.5333 168.504 17.3893 168.194 17.24C167.896 17.0907 167.64 16.9147 167.426 16.712C167.213 16.4987 167.048 16.248 166.93 15.96C166.813 15.672 166.754 15.3253 166.754 14.92C166.754 14.1307 167.048 13.5067 167.634 13.048C168.221 12.5893 169.026 12.36 170.05 12.36C170.562 12.36 171.053 12.408 171.522 12.504C171.992 12.5893 172.365 12.6853 172.642 12.792L172.226 14.648C171.949 14.552 171.645 14.4667 171.314 14.392C170.994 14.3173 170.632 14.28 170.226 14.28C169.48 14.28 169.106 14.488 169.106 14.904C169.106 15 169.122 15.0853 169.154 15.16C169.186 15.2347 169.25 15.3093 169.346 15.384C169.442 15.448 169.57 15.5227 169.73 15.608C169.901 15.6827 170.114 15.768 170.37 15.864C170.893 16.056 171.325 16.248 171.666 16.44C172.008 16.6213 172.274 16.824 172.466 17.048C172.669 17.2613 172.808 17.5013 172.882 17.768C172.968 18.0347 173.01 18.344 173.01 18.696C173.01 19.528 172.696 20.1573 172.066 20.584C171.448 21.0107 170.568 21.224 169.426 21.224C168.68 21.224 168.056 21.16 167.554 21.032C167.064 20.904 166.722 20.7973 166.53 20.712L166.93 18.776C167.336 18.936 167.752 19.064 168.178 19.16C168.605 19.2453 169.026 19.288 169.442 19.288ZM177.176 21H174.792V12.584H177.176V21ZM177.4 10.152C177.4 10.5893 177.256 10.936 176.968 11.192C176.691 11.4373 176.36 11.56 175.976 11.56C175.592 11.56 175.256 11.4373 174.968 11.192C174.691 10.936 174.552 10.5893 174.552 10.152C174.552 9.71467 174.691 9.37333 174.968 9.128C175.256 8.872 175.592 8.744 175.976 8.744C176.36 8.744 176.691 8.872 176.968 9.128C177.256 9.37333 177.4 9.71467 177.4 10.152ZM179.017 16.792C179.017 16.184 179.113 15.6133 179.305 15.08C179.508 14.536 179.796 14.0667 180.169 13.672C180.542 13.2667 180.996 12.9467 181.529 12.712C182.062 12.4773 182.67 12.36 183.353 12.36C183.801 12.36 184.212 12.4027 184.585 12.488C184.958 12.5627 185.321 12.6747 185.673 12.824L185.177 14.728C184.953 14.6427 184.708 14.568 184.441 14.504C184.174 14.44 183.876 14.408 183.545 14.408C182.841 14.408 182.313 14.6267 181.961 15.064C181.62 15.5013 181.449 16.0773 181.449 16.792C181.449 17.5493 181.609 18.136 181.929 18.552C182.26 18.968 182.83 19.176 183.641 19.176C183.929 19.176 184.238 19.1493 184.569 19.096C184.9 19.0427 185.204 18.9573 185.481 18.84L185.817 20.792C185.54 20.9093 185.193 21.0107 184.777 21.096C184.361 21.1813 183.902 21.224 183.401 21.224C182.633 21.224 181.972 21.112 181.417 20.888C180.862 20.6533 180.404 20.3387 180.041 19.944C179.689 19.5493 179.428 19.0853 179.257 18.552C179.097 18.008 179.017 17.4213 179.017 16.792ZM194.883 16.776C194.883 17.4373 194.787 18.0453 194.595 18.6C194.403 19.144 194.125 19.6133 193.763 20.008C193.4 20.392 192.963 20.6907 192.451 20.904C191.949 21.1173 191.384 21.224 190.755 21.224C190.136 21.224 189.571 21.1173 189.059 20.904C188.557 20.6907 188.125 20.392 187.763 20.008C187.4 19.6133 187.117 19.144 186.915 18.6C186.712 18.0453 186.611 17.4373 186.611 16.776C186.611 16.1147 186.712 15.512 186.915 14.968C187.128 14.424 187.416 13.96 187.779 13.576C188.152 13.192 188.589 12.8933 189.091 12.68C189.603 12.4667 190.157 12.36 190.755 12.36C191.363 12.36 191.917 12.4667 192.419 12.68C192.931 12.8933 193.368 13.192 193.731 13.576C194.093 13.96 194.376 14.424 194.579 14.968C194.781 15.512 194.883 16.1147 194.883 16.776ZM192.451 16.776C192.451 16.04 192.301 15.464 192.003 15.048C191.715 14.6213 191.299 14.408 190.755 14.408C190.211 14.408 189.789 14.6213 189.491 15.048C189.192 15.464 189.043 16.04 189.043 16.776C189.043 17.512 189.192 18.0987 189.491 18.536C189.789 18.9627 190.211 19.176 190.755 19.176C191.299 19.176 191.715 18.9627 192.003 18.536C192.301 18.0987 192.451 17.512 192.451 16.776ZM192.723 9.56L190.083 11.784L188.995 10.808L191.267 8.216L192.723 9.56ZM200.089 21.16C199.396 21.1493 198.831 21.0747 198.393 20.936C197.967 20.7973 197.625 20.6053 197.369 20.36C197.124 20.104 196.953 19.8 196.857 19.448C196.772 19.0853 196.729 18.68 196.729 18.232V8.968L199.113 8.584V17.752C199.113 17.9653 199.129 18.1573 199.161 18.328C199.193 18.4987 199.252 18.6427 199.337 18.76C199.433 18.8773 199.567 18.9733 199.737 19.048C199.908 19.1227 200.137 19.1707 200.425 19.192L200.089 21.16ZM209.664 16.776C209.664 17.4373 209.568 18.0453 209.376 18.6C209.184 19.144 208.907 19.6133 208.544 20.008C208.181 20.392 207.744 20.6907 207.232 20.904C206.731 21.1173 206.165 21.224 205.536 21.224C204.917 21.224 204.352 21.1173 203.84 20.904C203.339 20.6907 202.907 20.392 202.544 20.008C202.181 19.6133 201.899 19.144 201.696 18.6C201.493 18.0453 201.392 17.4373 201.392 16.776C201.392 16.1147 201.493 15.512 201.696 14.968C201.909 14.424 202.197 13.96 202.56 13.576C202.933 13.192 203.371 12.8933 203.872 12.68C204.384 12.4667 204.939 12.36 205.536 12.36C206.144 12.36 206.699 12.4667 207.2 12.68C207.712 12.8933 208.149 13.192 208.512 13.576C208.875 13.96 209.157 14.424 209.36 14.968C209.563 15.512 209.664 16.1147 209.664 16.776ZM207.232 16.776C207.232 16.04 207.083 15.464 206.784 15.048C206.496 14.6213 206.08 14.408 205.536 14.408C204.992 14.408 204.571 14.6213 204.272 15.048C203.973 15.464 203.824 16.04 203.824 16.776C203.824 17.512 203.973 18.0987 204.272 18.536C204.571 18.9627 204.992 19.176 205.536 19.176C206.08 19.176 206.496 18.9627 206.784 18.536C207.083 18.0987 207.232 17.512 207.232 16.776ZM213.543 16.52C213.543 17.8533 214.081 18.52 215.159 18.52C215.404 18.52 215.633 18.488 215.847 18.424C216.06 18.36 216.241 18.2853 216.391 18.2V14.392C216.273 14.3707 216.135 14.3547 215.975 14.344C215.815 14.3227 215.628 14.312 215.415 14.312C214.785 14.312 214.316 14.52 214.007 14.936C213.697 15.352 213.543 15.88 213.543 16.52ZM218.775 19.944C218.775 21.32 218.423 22.3387 217.719 23C217.025 23.672 215.948 24.008 214.487 24.008C213.975 24.008 213.463 23.96 212.951 23.864C212.439 23.7787 211.964 23.6613 211.527 23.512L211.943 21.512C212.316 21.6613 212.705 21.7787 213.111 21.864C213.527 21.9493 213.996 21.992 214.519 21.992C215.201 21.992 215.681 21.8427 215.959 21.544C216.247 21.2453 216.391 20.8613 216.391 20.392V20.088C216.135 20.2053 215.868 20.296 215.591 20.36C215.324 20.4133 215.031 20.44 214.711 20.44C213.548 20.44 212.657 20.0987 212.039 19.416C211.42 18.7227 211.111 17.7573 211.111 16.52C211.111 15.9013 211.207 15.3413 211.399 14.84C211.591 14.328 211.868 13.8907 212.231 13.528C212.604 13.1653 213.057 12.888 213.591 12.696C214.124 12.4933 214.727 12.392 215.399 12.392C215.687 12.392 215.98 12.408 216.279 12.44C216.588 12.4613 216.892 12.4933 217.191 12.536C217.489 12.5787 217.772 12.632 218.039 12.696C218.316 12.7493 218.561 12.808 218.775 12.872V19.944ZM228.883 16.776C228.883 17.4373 228.787 18.0453 228.595 18.6C228.403 19.144 228.125 19.6133 227.763 20.008C227.4 20.392 226.963 20.6907 226.451 20.904C225.949 21.1173 225.384 21.224 224.755 21.224C224.136 21.224 223.571 21.1173 223.059 20.904C222.557 20.6907 222.125 20.392 221.763 20.008C221.4 19.6133 221.117 19.144 220.915 18.6C220.712 18.0453 220.611 17.4373 220.611 16.776C220.611 16.1147 220.712 15.512 220.915 14.968C221.128 14.424 221.416 13.96 221.779 13.576C222.152 13.192 222.589 12.8933 223.091 12.68C223.603 12.4667 224.157 12.36 224.755 12.36C225.363 12.36 225.917 12.4667 226.419 12.68C226.931 12.8933 227.368 13.192 227.731 13.576C228.093 13.96 228.376 14.424 228.579 14.968C228.781 15.512 228.883 16.1147 228.883 16.776ZM226.451 16.776C226.451 16.04 226.301 15.464 226.003 15.048C225.715 14.6213 225.299 14.408 224.755 14.408C224.211 14.408 223.789 14.6213 223.491 15.048C223.192 15.464 223.043 16.04 223.043 16.776C223.043 17.512 223.192 18.0987 223.491 18.536C223.789 18.9627 224.211 19.176 224.755 19.176C225.299 19.176 225.715 18.9627 226.003 18.536C226.301 18.0987 226.451 17.512 226.451 16.776Z" fill="white"/>
<path d="M22.6875 13.6875H20V11H22.6875V13.6875ZM17.3125 13.6875H14.6875V11H17.3125V13.6875ZM12 13.6875H9.3125V11H12V13.6875ZM26.6875 1.6875H5.3125C4.5625 1.6875 3.9375 1.9375 3.4375 2.4375C2.9375 2.9375 2.6875 3.5625 2.6875 4.3125V28.3125L8 23H26.6875C27.4375 23 28.0625 22.75 28.5625 22.25C29.0625 21.7083 29.3125 21.0625 29.3125 20.3125V4.3125C29.3125 3.5625 29.0625 2.9375 28.5625 2.4375C28.0625 1.9375 27.4375 1.6875 26.6875 1.6875Z" fill="white"/>
</svg>
