<svg width="140" height="148" viewBox="0 0 140 148" fill="none" xmlns="http://www.w3.org/2000/svg">
<g filter="url(#filter0_d)">
<path d="M36.2648 24H103.724C107.194 24 110 26.7921 110 30.2345V92.882C110 96.3244 107.194 99.1165 103.735 99.1165H84.4338C82.7662 99.1165 81.1775 99.778 79.9944 100.944L71.1268 109.78C67.1718 113.716 60.4225 110.924 60.4225 105.362C60.4225 101.92 57.6169 99.1277 54.1577 99.1277H36.2648C32.8056 99.1277 30 96.3356 30 92.8932V30.2345C30 26.7921 32.8056 24 36.2648 24Z" fill="white"/>
<path d="M69.036 85.5717C82.8805 85.5717 94.1037 74.3468 94.1037 60.5001C94.1037 46.6535 82.8805 35.4286 69.036 35.4286C55.1915 35.4286 43.9683 46.6535 43.9683 60.5001C43.9683 74.3468 55.1915 85.5717 69.036 85.5717Z" fill="#F9B712"/>
<path d="M61.8251 45.5851C58.0383 48.135 54.8808 51.5703 52.7367 55.6031C52.342 56.3392 52.5234 57.3741 53.3127 57.7902C54.0488 58.1849 55.0835 58.0036 55.4995 57.2141C55.9795 56.3072 56.5235 55.4217 57.1102 54.5682C57.2596 54.3549 57.4089 54.1415 57.5582 53.9388C57.6542 53.8107 57.7396 53.6934 57.8356 53.5654C57.7289 53.7041 57.8143 53.5974 57.8676 53.5227C58.2089 53.0959 58.5503 52.6905 58.9236 52.2851C59.617 51.517 60.353 50.7915 61.1317 50.1194C61.3237 49.9487 61.5264 49.778 61.7184 49.6179C61.8144 49.5326 61.9211 49.4579 62.0171 49.3725C62.0491 49.3512 62.3584 49.1165 62.2198 49.2125C62.0918 49.3085 62.4011 49.0738 62.4331 49.0525C62.5398 48.9778 62.6465 48.9031 62.7425 48.8284C62.9771 48.6577 63.2118 48.4977 63.4465 48.3483C64.1399 47.8789 64.5132 46.9187 64.0225 46.1613C63.5638 45.4785 62.5611 45.0944 61.8251 45.5851Z" fill="#312A79"/>
<path d="M74.6362 48.3589C75.0629 48.647 75.4896 48.9457 75.8949 49.2551C75.6709 49.0844 76.0549 49.3831 76.0549 49.3831C76.1403 49.4472 76.2149 49.5112 76.3003 49.5752C76.5029 49.7352 76.695 49.9059 76.887 50.0766C77.687 50.7701 78.4444 51.5169 79.1484 52.2957C79.4897 52.6798 79.8311 53.0745 80.1511 53.4799C80.1831 53.512 80.3964 53.7893 80.2364 53.5866C80.3111 53.6933 80.3964 53.7893 80.4711 53.896C80.6204 54.0987 80.7805 54.3121 80.9191 54.5255C81.5272 55.3897 82.0712 56.2965 82.5725 57.2353C82.9672 57.9715 84.0553 58.2595 84.7593 57.8115C85.5167 57.3314 85.7513 56.4139 85.3353 55.6244C83.1912 51.5916 80.0338 48.1562 76.2469 45.6064C75.5536 45.137 74.4442 45.4464 74.0602 46.1825C73.6335 46.972 73.8895 47.8575 74.6362 48.3589Z" fill="#312A79"/>
<path d="M62.2415 62.6339C63.7146 62.6339 64.9087 60.7233 64.9087 58.3664C64.9087 56.0095 63.7146 54.0989 62.2415 54.0989C60.7685 54.0989 59.5743 56.0095 59.5743 58.3664C59.5743 60.7233 60.7685 62.6339 62.2415 62.6339Z" fill="#312A79"/>
<path d="M75.0419 62.6339C76.515 62.6339 77.7091 60.7233 77.7091 58.3664C77.7091 56.0095 76.515 54.0989 75.0419 54.0989C73.5689 54.0989 72.3748 56.0095 72.3748 58.3664C72.3748 60.7233 73.5689 62.6339 75.0419 62.6339Z" fill="#312A79"/>
<path d="M61.0999 75.415C63.159 75.415 63.159 72.2144 61.0999 72.2144C59.0409 72.2144 59.0302 75.415 61.0999 75.415Z" fill="#F9B712"/>
<path d="M76.3215 68.8858C75.0735 67.6375 75.0735 65.5998 76.3215 64.3622L90.5728 50.1088C91.8208 48.8605 93.8583 48.8605 95.0956 50.1088C96.3437 51.357 96.3437 53.3948 95.0956 54.6323L80.8444 68.8858C79.5963 70.1234 77.5589 70.1234 76.3215 68.8858Z" fill="#C62828"/>
<path d="M58.7529 76.1192C62.4651 73.3454 66.4866 70.5395 71.1481 69.7287C75.0096 69.0565 79.2124 70.0701 81.7619 73.1747C83.0739 74.7643 85.3247 72.4919 84.0233 70.9129C81.0152 67.2535 76.0016 65.9199 71.4255 66.4854C66.0279 67.1468 61.3877 70.1874 57.1209 73.3667C55.5101 74.5723 57.0995 77.3462 58.7529 76.1192Z" fill="#312A79"/>
</g>
<defs>
<filter id="filter0_d" x="0" y="0" width="140" height="147.622" filterUnits="userSpaceOnUse" color-interpolation-filters="sRGB">
<feFlood flood-opacity="0" result="BackgroundImageFix"/>
<feColorMatrix in="SourceAlpha" type="matrix" values="0 0 0 0 0 0 0 0 0 0 0 0 0 0 0 0 0 0 127 0"/>
<feOffset dy="6"/>
<feGaussianBlur stdDeviation="15"/>
<feColorMatrix type="matrix" values="0 0 0 0 0 0 0 0 0 0 0 0 0 0 0 0 0 0 0.2 0"/>
<feBlend mode="normal" in2="BackgroundImageFix" result="effect1_dropShadow"/>
<feBlend mode="normal" in="SourceGraphic" in2="effect1_dropShadow" result="shape"/>
</filter>
</defs>
</svg>
