<svg width="93" height="18" viewBox="0 0 93 18" fill="none" xmlns="http://www.w3.org/2000/svg">
<path d="M4.59645 14.5525C5.35074 14.5681 5.91646 14.498 6.2936 14.342C6.67075 14.1705 6.90647 13.9054 7.00075 13.5468C7.03218 13.422 7.0479 13.3051 7.0479 13.1959C7.0479 12.884 6.85146 12.6345 6.45861 12.4474C6.33289 12.3695 5.78289 12.2135 4.8086 11.9796L4.03074 11.7925C2.82073 11.4494 1.94072 11.1298 1.39072 10.8335C0.856433 10.5372 0.471431 10.1396 0.235716 9.64061C0.0785719 9.34434 0 9.00129 0 8.61145C0 8.23721 0.0550003 7.88636 0.165001 7.5589C0.400716 6.82601 0.691432 6.24905 1.03715 5.82803C1.38286 5.40701 1.8543 5.09515 2.45144 4.89243C3.01716 4.68972 3.81073 4.58836 4.83217 4.58836C5.62693 4.58836 6.52259 4.6436 7.51917 4.75409C8.3182 4.84268 8.783 5.68593 8.46148 6.42276C8.25079 6.90561 7.75457 7.19928 7.22992 7.15161L4.76145 6.92737C3.82192 6.9128 3.23895 7.14999 3.01255 7.63894C2.98031 7.70857 2.96307 7.7839 2.94925 7.85937C2.9317 7.95513 2.91581 8.05441 2.94416 8.14755C2.97558 8.25073 3.04175 8.34677 3.14268 8.43567C3.4115 8.67246 3.76736 8.78792 4.10959 8.89381C4.45203 8.99977 4.96003 9.13955 5.6336 9.31315C7.00075 9.65621 7.99861 9.98367 8.62719 10.2955C9.22434 10.6386 9.64077 11.0674 9.87648 11.582C9.98648 11.8159 10.0415 12.1434 10.0415 12.5644C10.0415 12.9542 9.97863 13.3596 9.85291 13.7807C9.52291 14.8722 8.84719 15.6986 7.82576 16.26C6.82004 16.8058 5.50789 17.0553 3.88931 17.0085L2.06335 16.8214C1.18303 16.7313 0.667531 15.7855 1.0688 14.9968C1.30532 14.5319 1.80385 14.2608 2.32262 14.315L4.59645 14.5525Z" fill="#319CFF"/>
<path d="M11.1742 8.58806C11.6456 7.37178 12.4314 6.38939 13.5314 5.64091C14.6314 4.89243 15.8414 4.51819 17.1614 4.51819C18.0571 4.51819 18.9842 4.7365 19.9428 5.17311C20.9014 5.59413 21.7185 6.29583 22.3943 7.27822C23.1328 8.38535 23.5021 9.57824 23.5021 10.8569C23.5021 11.1916 23.4797 11.5188 23.4348 11.8386C23.4332 11.8505 23.4204 11.8572 23.4097 11.8519L23.3973 11.8458C23.3913 11.8428 23.3843 11.8472 23.3843 11.8539C23.3843 11.8588 23.3804 11.8628 23.3755 11.8629L15.2371 12.0775C14.4454 12.0983 13.9236 12.9074 14.4742 13.4766C14.8514 13.8508 15.2914 14.1315 15.7942 14.3186C16.2028 14.4746 16.6428 14.5525 17.1142 14.5525C17.6485 14.5525 18.1592 14.4512 18.6464 14.2485C18.832 14.1679 19.007 14.0756 19.1712 13.9716C19.6718 13.6547 20.2856 13.4763 20.839 13.6879C21.687 14.0122 22.0179 15.0517 21.3277 15.6415C20.9807 15.938 20.5976 16.1988 20.1785 16.4237C19.22 16.9383 18.1985 17.1956 17.1142 17.1956C16.2028 17.1956 15.2678 16.9851 14.3092 16.5641C13.3664 16.1275 12.5571 15.4102 11.8814 14.4122C11.1271 13.3051 10.7499 12.1122 10.7499 10.8335C10.7499 10.085 10.8913 9.33654 11.1742 8.58806ZM13.6492 9.54705C13.6263 9.61531 13.6781 9.68562 13.7501 9.68393L19.0805 9.55927C19.83 9.54174 20.3211 8.77722 19.7778 8.2606C19.4164 7.88636 18.9842 7.60568 18.4814 7.41856C18.0728 7.26262 17.6328 7.18466 17.1614 7.18466C16.3914 7.18466 15.6842 7.39517 15.0399 7.81619C14.3957 8.23721 13.9321 8.81416 13.6492 9.54705Z" fill="#319CFF"/>
<path d="M33.3383 10.1084C33.3383 9.204 33.024 8.4945 32.3954 7.97992C31.7668 7.44975 31.0047 7.18466 30.109 7.18466C29.1975 7.18466 28.4275 7.44975 27.799 7.97992C27.1704 8.4945 26.8561 9.204 26.8561 10.1084V15.8756C26.8561 16.6046 26.2651 17.1956 25.5361 17.1956C24.8071 17.1956 24.2161 16.6046 24.2161 15.8756V10.1084C24.2161 9.01688 24.4832 8.05009 25.0175 7.20805C25.5675 6.35041 26.3061 5.68769 27.2332 5.21989C28.1447 4.76768 29.1033 4.54158 30.109 4.54158C31.1461 4.54158 32.1126 4.77548 33.0083 5.24328C33.904 5.69549 34.6347 6.33482 35.2004 7.16127C35.7504 8.0345 36.0254 9.01688 36.0254 10.1084L35.987 15.88C35.9822 16.608 35.3907 17.1956 34.6627 17.1956C33.9312 17.1956 33.3383 16.6027 33.3383 15.8712V10.1084Z" fill="#319CFF"/>
<path d="M41.7592 14.5525C42.5135 14.5681 43.0714 14.498 43.4328 14.342C43.7942 14.1705 44.0142 13.9054 44.0928 13.5468C44.1085 13.5 44.1164 13.422 44.1164 13.3129C44.1164 12.9386 43.9042 12.6501 43.4799 12.4474C43.3542 12.3695 42.7964 12.2135 41.8064 11.9796L41.0049 11.7925C40.0464 11.5274 39.2685 11.2623 38.6713 10.9972C38.0742 10.7322 37.6028 10.3891 37.257 9.96807C36.9113 9.54705 36.7385 9.01688 36.7385 8.37755C36.7385 7.59788 36.9349 6.88059 37.3278 6.22566C37.7206 5.57074 38.2549 5.12633 38.9306 4.89243C39.4963 4.68972 40.2821 4.58836 41.2878 4.58836C42.1224 4.58836 43.0654 4.64771 44.1168 4.76641C44.8832 4.85293 45.347 5.64282 45.0768 6.36523C44.8854 6.87683 44.3757 7.19742 43.8317 7.14835L41.3821 6.92737C40.3764 6.91177 39.8028 7.18466 39.6614 7.74602C39.6456 7.82399 39.6378 7.90975 39.6378 8.00331C39.6378 8.28399 39.8813 8.51789 40.3685 8.70501C40.5099 8.78298 41.2014 8.98569 42.4428 9.31315C43.8571 9.65621 44.8707 9.98367 45.4835 10.2955C46.5521 10.8881 47.0864 11.7223 47.0864 12.7983C47.0864 13.0634 47.0471 13.3908 46.9685 13.7807C46.7014 14.8722 46.0807 15.6986 45.1064 16.26C44.1478 16.8058 42.8592 17.0553 41.2406 17.0085L39.2522 16.8074C38.407 16.7219 37.8911 15.8366 38.2334 15.0591C38.4523 14.562 38.9669 14.263 39.507 14.319L41.7592 14.5525Z" fill="#319CFF"/>
<path d="M51.1348 15.6985C51.1348 16.5511 50.4436 17.2424 49.5909 17.2424C48.7382 17.2424 48.0469 16.5511 48.0469 15.6985V6.08551C48.0469 5.23282 48.7382 4.54158 49.5909 4.54158C50.4436 4.54158 51.1348 5.23282 51.1348 6.08551V15.6985ZM49.5319 3.44225C49.0448 3.44225 48.6284 3.27852 48.2826 2.95106C47.9526 2.608 47.7876 2.19478 47.7876 1.71138C47.7876 1.24358 47.9526 0.845949 48.2826 0.518488C48.6284 0.175433 49.0448 0.00390625 49.5319 0.00390625C50.0191 0.00390625 50.4277 0.175433 50.7577 0.518488C51.1034 0.845949 51.2762 1.24358 51.2762 1.71138C51.2762 2.19478 51.1034 2.608 50.7577 2.95106C50.4277 3.27852 50.0191 3.44225 49.5319 3.44225Z" fill="#319CFF"/>
<path fill-rule="evenodd" clip-rule="evenodd" d="M65.7975 14.1397C66.3782 13.1986 66.6685 12.1713 66.6685 11.0577L66.6449 0L64.0086 1.41162V5.69353C62.8787 4.89361 61.639 4.49365 60.2894 4.49365C59.1439 4.49365 58.0846 4.77597 57.1117 5.34062C56.123 5.92095 55.3384 6.70519 54.7578 7.69332C54.1928 8.66577 53.9104 9.72448 53.9104 10.8695C53.9104 12.0301 54.2007 13.0888 54.7813 14.0456C55.3462 15.0337 56.1152 15.818 57.0881 16.3983C58.0768 16.9629 59.1439 17.2453 60.2894 17.2453C61.4193 17.2453 62.4785 16.9629 63.4672 16.3983C64.4558 15.8337 65.2326 15.0808 65.7975 14.1397ZM63.4907 9.03436C63.836 9.599 64.0086 10.2107 64.0086 10.8695C64.0086 11.5439 63.8438 12.1634 63.5143 12.7281C63.169 13.2927 62.7061 13.7476 62.1255 14.0927C61.5605 14.422 60.9485 14.5867 60.2894 14.5867C59.599 14.5867 58.9791 14.4142 58.4298 14.0691C57.8649 13.7398 57.4098 13.2927 57.0646 12.7281C56.735 12.1478 56.5703 11.5282 56.5703 10.8695C56.5703 10.1793 56.7429 9.55979 57.0881 9.01083C57.4177 8.44618 57.8649 7.99917 58.4298 7.66979C59.0105 7.32473 59.6303 7.1522 60.2894 7.1522C60.9642 7.1522 61.5841 7.31689 62.149 7.64627C62.7139 7.99133 63.1612 8.45403 63.4907 9.03436ZM70.5588 16.3983C71.5474 16.963 72.6145 17.2453 73.7601 17.2453C74.9213 17.2453 75.9884 16.9551 76.9614 16.3748C77.9343 15.8102 78.7033 15.0416 79.2682 14.0692C79.8488 13.081 80.1391 12.0145 80.1391 10.8695C80.1391 9.72453 79.8567 8.65797 79.2917 7.66984C78.7111 6.69739 77.9265 5.92884 76.9378 5.36419C75.9492 4.78386 74.89 4.4937 73.7601 4.4937C72.6145 4.4937 71.5553 4.77602 70.5823 5.34067C69.5937 5.921 68.8091 6.70523 68.2284 7.69336C67.6635 8.66581 67.381 9.72453 67.381 10.8695C67.381 12.0302 67.6714 13.0889 68.252 14.0456C68.8169 15.0338 69.5858 15.818 70.5588 16.3983ZM75.5255 13.928C74.992 14.2417 74.4035 14.3986 73.7601 14.3986C73.1324 14.3986 72.5439 14.2417 71.9947 13.928C71.4454 13.6143 71.0139 13.1908 70.7 12.6576C70.3862 12.1086 70.2292 11.5126 70.2292 10.8695C70.2292 10.2264 70.3862 9.63042 70.7 9.08146C71.0139 8.53249 71.4376 8.10901 71.9711 7.811C72.5204 7.49731 73.1167 7.34046 73.7601 7.34046C74.4035 7.34046 74.9998 7.49731 75.5491 7.811C76.0983 8.12469 76.522 8.55602 76.8202 9.10498C77.134 9.63826 77.2909 10.2264 77.2909 10.8695C77.2909 11.4969 77.134 12.0851 76.8202 12.634C76.5063 13.183 76.0748 13.6143 75.5255 13.928ZM81.699 7.69336C81.134 8.66581 80.8516 9.72453 80.8516 10.8695C80.8516 12.0302 81.1419 13.0889 81.7225 14.0456C82.2874 15.0338 83.0564 15.818 84.0293 16.3983C85.018 16.963 86.0851 17.2453 87.2306 17.2453C88.2506 17.2453 89.1922 17.0257 90.0553 16.5866C90.9341 16.1474 91.6716 15.5435 92.268 14.775C92.4981 14.4784 92.699 14.1677 92.8707 13.8431C93.2959 13.0392 92.6116 12.187 91.7022 12.187C91.1077 12.187 90.5977 12.5739 90.247 13.0538C90.0058 13.384 89.7065 13.6753 89.3491 13.928C88.7214 14.3672 88.0153 14.5868 87.2306 14.5868C86.5401 14.5868 85.9203 14.4142 85.371 14.0692C84.8061 13.7398 84.351 13.2928 84.0058 12.7281C83.6762 12.1478 83.5115 11.5283 83.5115 10.8695C83.5115 10.1794 83.6841 9.55984 84.0293 9.01087C84.3589 8.44623 84.8061 7.99921 85.371 7.66984C85.9517 7.32477 86.5715 7.15224 87.2306 7.15224C88.0153 7.15224 88.7214 7.37183 89.3491 7.811C89.6974 8.05469 89.9902 8.33942 90.2273 8.66521C90.576 9.14412 91.0812 9.53177 91.6736 9.53679C92.5935 9.54458 93.2859 8.68367 92.8523 7.87228C92.6847 7.55867 92.4899 7.25591 92.268 6.96403C91.6559 6.19548 90.9105 5.59162 90.0318 5.15245C89.153 4.71328 88.2193 4.4937 87.2306 4.4937C86.0851 4.4937 85.0258 4.77602 84.0529 5.34067C83.0642 5.921 82.2796 6.70523 81.699 7.69336Z" fill="#6C33E4"/>
</svg>
