<svg width="133" height="30" viewBox="0 0 133 30" fill="none" xmlns="http://www.w3.org/2000/svg">
<path d="M49.28 21V9.912H56.768V12.008H51.776V14.184H56.208V16.232H51.776V18.904H57.136V21H49.28ZM58.8231 12.872C59.2285 12.7547 59.7511 12.648 60.3911 12.552C61.0311 12.4453 61.7031 12.392 62.4071 12.392C63.1218 12.392 63.7138 12.488 64.1831 12.68C64.6631 12.8613 65.0418 13.1227 65.3191 13.464C65.5965 13.8053 65.7938 14.2107 65.9111 14.68C66.0285 15.1493 66.0871 15.672 66.0871 16.248V21H63.7031V16.536C63.7031 15.768 63.6018 15.224 63.3991 14.904C63.1965 14.584 62.8178 14.424 62.2631 14.424C62.0925 14.424 61.9111 14.4347 61.7191 14.456C61.5271 14.4667 61.3565 14.4827 61.2071 14.504V21H58.8231V12.872ZM70.283 21C69.739 19.9333 69.1843 18.6853 68.619 17.256C68.0643 15.8267 67.5363 14.2693 67.035 12.584H69.563C69.6697 13 69.7923 13.4533 69.931 13.944C70.0803 14.424 70.2297 14.9147 70.379 15.416C70.539 15.9067 70.6937 16.3867 70.843 16.856C71.003 17.3253 71.1577 17.752 71.307 18.136C71.4457 17.752 71.595 17.3253 71.755 16.856C71.915 16.3867 72.0697 15.9067 72.219 15.416C72.379 14.9147 72.5283 14.424 72.667 13.944C72.8163 13.4533 72.9443 13 73.051 12.584H75.515C75.0137 14.2693 74.4803 15.8267 73.915 17.256C73.3603 18.6853 72.811 19.9333 72.267 21H70.283ZM79.1759 21H76.7919V12.584H79.1759V21ZM79.3999 10.152C79.3999 10.5893 79.2559 10.936 78.9679 11.192C78.6905 11.4373 78.3599 11.56 77.9759 11.56C77.5919 11.56 77.2559 11.4373 76.9679 11.192C76.6905 10.936 76.5519 10.5893 76.5519 10.152C76.5519 9.71467 76.6905 9.37333 76.9679 9.128C77.2559 8.872 77.5919 8.744 77.9759 8.744C78.3599 8.744 78.6905 8.872 78.9679 9.128C79.2559 9.37333 79.3999 9.71467 79.3999 10.152ZM84.6329 19.336C84.8675 19.336 85.0915 19.3307 85.3049 19.32C85.5182 19.3093 85.6889 19.2933 85.8169 19.272V17.464C85.7209 17.4427 85.5769 17.4213 85.3849 17.4C85.1929 17.3787 85.0169 17.368 84.8569 17.368C84.6329 17.368 84.4195 17.384 84.2169 17.416C84.0249 17.4373 83.8542 17.4853 83.7049 17.56C83.5555 17.6347 83.4382 17.736 83.3529 17.864C83.2675 17.992 83.2249 18.152 83.2249 18.344C83.2249 18.7173 83.3475 18.9787 83.5929 19.128C83.8489 19.2667 84.1955 19.336 84.6329 19.336ZM84.4409 12.36C85.1449 12.36 85.7315 12.44 86.2009 12.6C86.6702 12.76 87.0435 12.9893 87.3209 13.288C87.6089 13.5867 87.8115 13.9493 87.9289 14.376C88.0462 14.8027 88.1049 15.2773 88.1049 15.8V20.76C87.7635 20.8347 87.2889 20.92 86.6809 21.016C86.0729 21.1227 85.3369 21.176 84.4729 21.176C83.9289 21.176 83.4329 21.128 82.9849 21.032C82.5475 20.936 82.1689 20.7813 81.8489 20.568C81.5289 20.344 81.2835 20.056 81.1129 19.704C80.9422 19.352 80.8569 18.92 80.8569 18.408C80.8569 17.9173 80.9529 17.5013 81.1449 17.16C81.3475 16.8187 81.6142 16.5467 81.9449 16.344C82.2755 16.1413 82.6542 15.9973 83.0809 15.912C83.5075 15.816 83.9502 15.768 84.4089 15.768C84.7182 15.768 84.9902 15.784 85.2249 15.816C85.4702 15.8373 85.6675 15.8693 85.8169 15.912V15.688C85.8169 15.2827 85.6942 14.9573 85.4489 14.712C85.2035 14.4667 84.7769 14.344 84.1689 14.344C83.7635 14.344 83.3635 14.376 82.9689 14.44C82.5742 14.4933 82.2329 14.5733 81.9449 14.68L81.6409 12.76C81.7795 12.7173 81.9502 12.6747 82.1529 12.632C82.3662 12.5787 82.5955 12.536 82.8409 12.504C83.0862 12.4613 83.3422 12.4293 83.6089 12.408C83.8862 12.376 84.1635 12.36 84.4409 12.36ZM95.3326 14.696C95.1193 14.6427 94.8686 14.5893 94.5806 14.536C94.2926 14.472 93.9833 14.44 93.6526 14.44C93.5033 14.44 93.322 14.456 93.1086 14.488C92.906 14.5093 92.7513 14.536 92.6446 14.568V21H90.2606V13.032C90.6873 12.8827 91.1886 12.744 91.7646 12.616C92.3513 12.4773 93.002 12.408 93.7166 12.408C93.8446 12.408 93.9993 12.4187 94.1806 12.44C94.362 12.4507 94.5433 12.472 94.7246 12.504C94.906 12.5253 95.0873 12.5573 95.2686 12.6C95.45 12.632 95.6046 12.6747 95.7326 12.728L95.3326 14.696ZM104.038 19.096C104.39 19.096 104.678 19.0693 104.902 19.016C105.137 18.952 105.324 18.872 105.462 18.776C105.601 18.6693 105.697 18.5467 105.75 18.408C105.804 18.2693 105.83 18.1147 105.83 17.944C105.83 17.5813 105.66 17.2827 105.318 17.048C104.977 16.8027 104.39 16.5413 103.558 16.264C103.196 16.136 102.833 15.992 102.47 15.832C102.108 15.6613 101.782 15.4533 101.494 15.208C101.206 14.952 100.972 14.648 100.79 14.296C100.609 13.9333 100.518 13.496 100.518 12.984C100.518 12.472 100.614 12.0133 100.806 11.608C100.998 11.192 101.27 10.84 101.622 10.552C101.974 10.264 102.401 10.0453 102.902 9.896C103.404 9.736 103.969 9.656 104.598 9.656C105.345 9.656 105.99 9.736 106.534 9.896C107.078 10.056 107.526 10.232 107.878 10.424L107.158 12.392C106.849 12.232 106.502 12.0933 106.118 11.976C105.745 11.848 105.292 11.784 104.758 11.784C104.161 11.784 103.729 11.8693 103.462 12.04C103.206 12.2 103.078 12.4507 103.078 12.792C103.078 12.9947 103.126 13.1653 103.222 13.304C103.318 13.4427 103.452 13.5707 103.622 13.688C103.804 13.7947 104.006 13.896 104.23 13.992C104.465 14.0773 104.721 14.168 104.998 14.264C105.574 14.4773 106.076 14.6907 106.502 14.904C106.929 15.1067 107.281 15.3467 107.558 15.624C107.846 15.9013 108.06 16.2267 108.198 16.6C108.337 16.9733 108.406 17.4267 108.406 17.96C108.406 18.9947 108.044 19.8 107.318 20.376C106.593 20.9413 105.5 21.224 104.038 21.224C103.548 21.224 103.105 21.192 102.71 21.128C102.316 21.0747 101.964 21.0053 101.654 20.92C101.356 20.8347 101.094 20.744 100.87 20.648C100.657 20.552 100.476 20.4613 100.326 20.376L101.03 18.392C101.361 18.5733 101.766 18.7387 102.246 18.888C102.737 19.0267 103.334 19.096 104.038 19.096ZM113.271 9.912C113.463 10.264 113.682 10.7013 113.927 11.224C114.183 11.736 114.444 12.296 114.711 12.904C114.988 13.5013 115.26 14.1147 115.527 14.744C115.794 15.3733 116.044 15.9653 116.279 16.52C116.514 15.9653 116.764 15.3733 117.031 14.744C117.298 14.1147 117.564 13.5013 117.831 12.904C118.108 12.296 118.37 11.736 118.615 11.224C118.871 10.7013 119.095 10.264 119.287 9.912H121.559C121.666 10.648 121.762 11.4747 121.847 12.392C121.943 13.2987 122.023 14.248 122.087 15.24C122.162 16.2213 122.226 17.208 122.279 18.2C122.343 19.192 122.396 20.1253 122.439 21H120.007C119.975 19.9227 119.932 18.7493 119.879 17.48C119.826 16.2107 119.746 14.9307 119.639 13.64C119.447 14.088 119.234 14.584 118.999 15.128C118.764 15.672 118.53 16.216 118.295 16.76C118.071 17.304 117.852 17.8267 117.639 18.328C117.426 18.8187 117.244 19.24 117.095 19.592H115.351C115.202 19.24 115.02 18.8187 114.807 18.328C114.594 17.8267 114.37 17.304 114.135 16.76C113.911 16.216 113.682 15.672 113.447 15.128C113.212 14.584 112.999 14.088 112.807 13.64C112.7 14.9307 112.62 16.2107 112.567 17.48C112.514 18.7493 112.471 19.9227 112.439 21H110.007C110.05 20.1253 110.098 19.192 110.151 18.2C110.215 17.208 110.279 16.2213 110.343 15.24C110.418 14.248 110.498 13.2987 110.583 12.392C110.679 11.4747 110.78 10.648 110.887 9.912H113.271ZM127.71 19.096C128.062 19.096 128.35 19.0693 128.574 19.016C128.809 18.952 128.996 18.872 129.134 18.776C129.273 18.6693 129.369 18.5467 129.422 18.408C129.476 18.2693 129.502 18.1147 129.502 17.944C129.502 17.5813 129.332 17.2827 128.99 17.048C128.649 16.8027 128.062 16.5413 127.23 16.264C126.868 16.136 126.505 15.992 126.142 15.832C125.78 15.6613 125.454 15.4533 125.166 15.208C124.878 14.952 124.644 14.648 124.462 14.296C124.281 13.9333 124.19 13.496 124.19 12.984C124.19 12.472 124.286 12.0133 124.478 11.608C124.67 11.192 124.942 10.84 125.294 10.552C125.646 10.264 126.073 10.0453 126.574 9.896C127.076 9.736 127.641 9.656 128.27 9.656C129.017 9.656 129.662 9.736 130.206 9.896C130.75 10.056 131.198 10.232 131.55 10.424L130.83 12.392C130.521 12.232 130.174 12.0933 129.79 11.976C129.417 11.848 128.964 11.784 128.43 11.784C127.833 11.784 127.401 11.8693 127.134 12.04C126.878 12.2 126.75 12.4507 126.75 12.792C126.75 12.9947 126.798 13.1653 126.894 13.304C126.99 13.4427 127.124 13.5707 127.294 13.688C127.476 13.7947 127.678 13.896 127.902 13.992C128.137 14.0773 128.393 14.168 128.67 14.264C129.246 14.4773 129.748 14.6907 130.174 14.904C130.601 15.1067 130.953 15.3467 131.23 15.624C131.518 15.9013 131.732 16.2267 131.87 16.6C132.009 16.9733 132.078 17.4267 132.078 17.96C132.078 18.9947 131.716 19.8 130.99 20.376C130.265 20.9413 129.172 21.224 127.71 21.224C127.22 21.224 126.777 21.192 126.382 21.128C125.988 21.0747 125.636 21.0053 125.326 20.92C125.028 20.8347 124.766 20.744 124.542 20.648C124.329 20.552 124.148 20.4613 123.998 20.376L124.702 18.392C125.033 18.5733 125.438 18.7387 125.918 18.888C126.409 19.0267 127.006 19.096 127.71 19.096Z" fill="#106EFB"/>
<path d="M12 28.3125C11.625 28.3125 11.3125 28.1875 11.0625 27.9375C10.8125 27.6875 10.6875 27.375 10.6875 27V23H5.3125C4.5625 23 3.9375 22.75 3.4375 22.25C2.9375 21.7083 2.6875 21.0625 2.6875 20.3125V4.3125C2.6875 3.5625 2.9375 2.9375 3.4375 2.4375C3.9375 1.9375 4.5625 1.6875 5.3125 1.6875H26.6875C27.4375 1.6875 28.0625 1.9375 28.5625 2.4375C29.0625 2.9375 29.3125 3.5625 29.3125 4.3125V20.3125C29.3125 21.0625 29.0625 21.7083 28.5625 22.25C28.0625 22.75 27.4375 23 26.6875 23H18.5625L13.625 27.9375C13.3333 28.1875 13.0208 28.3125 12.6875 28.3125H12ZM13.3125 20.3125V24.4375L17.4375 20.3125H26.6875V4.3125H5.3125V20.3125H13.3125ZM8 8.3125H24V11H8V8.3125ZM8 13.6875H20V16.3125H8V13.6875Z" fill="#106EFB"/>
</svg>
