<svg width="26" height="29" viewBox="0 0 26 29" fill="none" xmlns="http://www.w3.org/2000/svg">
<path d="M22.5179 11.9464C22.744 11.7202 22.8571 11.4524 22.8571 11.1429C22.8571 10.8333 22.744 10.5655 22.5179 10.3393C22.2917 10.1131 22.0238 10 21.7143 10C21.4048 10 21.1369 10.1131 20.9107 10.3393C20.6845 10.5655 20.5714 10.8333 20.5714 11.1429C20.5714 11.4524 20.6845 11.7202 20.9107 11.9464C21.1369 12.1726 21.4048 12.2857 21.7143 12.2857C22.0238 12.2857 22.2917 12.1726 22.5179 11.9464ZM25.1429 11.1429C25.1429 11.881 24.9286 12.5417 24.5 13.125C24.0833 13.7083 23.5357 14.125 22.8571 14.375V21.4286C22.8571 23.3214 22.0714 24.9345 20.5 26.2679C18.9405 27.6131 17.0595 28.2857 14.8571 28.2857C12.6548 28.2857 10.7679 27.6131 9.19643 26.2679C7.63691 24.9345 6.85714 23.3214 6.85714 21.4286V19.0714C4.90476 18.8333 3.27381 18.0714 1.96429 16.7857C0.654762 15.5 0 14 0 12.2857V3.14286C0 2.83333 0.113095 2.56547 0.339286 2.33928C0.565476 2.11309 0.833333 2 1.14286 2C1.21429 2 1.30952 2.0119 1.42857 2.03571C1.63095 1.67857 1.91071 1.39286 2.26786 1.17857C2.625 0.964284 3.0119 0.857141 3.42857 0.857141C4.05952 0.857141 4.59524 1.08333 5.03571 1.53571C5.4881 1.97619 5.71429 2.5119 5.71429 3.14286C5.71429 3.77381 5.4881 4.31548 5.03571 4.76786C4.59524 5.20833 4.05952 5.42857 3.42857 5.42857C3.03571 5.42857 2.65476 5.32143 2.28571 5.10714V12.2857C2.28571 13.5476 2.84524 14.625 3.96429 15.5179C5.08333 16.4107 6.42857 16.8571 8 16.8571C9.57143 16.8571 10.9167 16.4107 12.0357 15.5179C13.1548 14.625 13.7143 13.5476 13.7143 12.2857V5.10714C13.3452 5.32143 12.9643 5.42857 12.5714 5.42857C11.9405 5.42857 11.3988 5.20833 10.9464 4.76786C10.506 4.31548 10.2857 3.77381 10.2857 3.14286C10.2857 2.5119 10.506 1.97619 10.9464 1.53571C11.3988 1.08333 11.9405 0.857141 12.5714 0.857141C12.9881 0.857141 13.375 0.964284 13.7321 1.17857C14.0893 1.39286 14.369 1.67857 14.5714 2.03571C14.6905 2.0119 14.7857 2 14.8571 2C15.1667 2 15.4345 2.11309 15.6607 2.33928C15.8869 2.56547 16 2.83333 16 3.14286V12.2857C16 14 15.3452 15.5 14.0357 16.7857C12.7262 18.0714 11.0952 18.8333 9.14286 19.0714V21.4286C9.14286 22.6905 9.70238 23.7679 10.8214 24.6607C11.9405 25.5536 13.2857 26 14.8571 26C16.4286 26 17.7738 25.5536 18.8929 24.6607C20.0119 23.7679 20.5714 22.6905 20.5714 21.4286V14.375C19.8929 14.125 19.3393 13.7083 18.9107 13.125C18.494 12.5417 18.2857 11.881 18.2857 11.1429C18.2857 10.1905 18.619 9.38095 19.2857 8.71428C19.9524 8.04762 20.7619 7.71428 21.7143 7.71428C22.6667 7.71428 23.4762 8.04762 24.1429 8.71428C24.8095 9.38095 25.1429 10.1905 25.1429 11.1429Z" fill="white"/>
</svg>
