<svg width="30" height="30" viewBox="0 0 30 30" fill="none" xmlns="http://www.w3.org/2000/svg">
<path fill-rule="evenodd" clip-rule="evenodd" d="M15 30C23.2843 30 30 23.2843 30 15C30 6.71573 23.2843 0 15 0C6.71573 0 0 6.71573 0 15C0 23.2843 6.71573 30 15 30ZM14.9372 10.665C16.3251 10.665 17.4502 9.53989 17.4502 8.152C17.4502 6.76411 16.3251 5.63901 14.9372 5.63901C13.5494 5.63901 12.4243 6.76411 12.4243 8.152C12.4243 9.53989 13.5494 10.665 14.9372 10.665ZM14.9371 24.4865C16.325 24.4865 17.4501 23.3614 17.4501 21.9735V18.204H21.848C23.2359 18.204 24.361 17.0789 24.361 15.691C24.361 14.3032 23.2359 13.1781 21.848 13.1781H14.9526L14.9371 13.178L14.9217 13.1781H8.15215C6.76427 13.1781 5.63916 14.3032 5.63916 15.691C5.63916 17.0789 6.76427 18.204 8.15215 18.204H12.4241L12.4241 21.9735C12.4241 23.3614 13.5493 24.4865 14.9371 24.4865Z" fill="white"/>
</svg>
