<svg width="246" height="115" viewBox="0 0 246 115" fill="none" xmlns="http://www.w3.org/2000/svg">
<path d="M0.84 0.951998H8.176V10.08H14.896L13.16 16.576H8.176V41.832H0.84V0.951998ZM32.1283 18.256C31.4563 18.1813 31.0269 18.144 30.8403 18.144C29.2723 18.144 27.7976 18.5547 26.4163 19.376C25.0723 20.16 24.0083 21.224 23.2243 22.568C22.4029 23.8747 21.9923 25.3493 21.9923 26.992L22.1043 42.056H15.5523L15.4963 25.984C15.4963 23.3333 16.1683 20.888 17.5123 18.648C18.8936 16.3707 20.7789 14.56 23.1683 13.216C25.4829 11.9093 27.9843 11.256 30.6723 11.256L32.1283 11.368V18.256ZM41.7686 42.056H34.4326V11.648H41.7686V42.056ZM37.9606 9.016C36.8032 9.016 35.8139 8.624 34.9926 7.84C34.2086 7.01867 33.8166 6.02933 33.8166 4.872C33.8166 3.752 34.2086 2.8 34.9926 2.016C35.8139 1.19466 36.8032 0.783997 37.9606 0.783997C39.1179 0.783997 40.0886 1.19466 40.8726 2.016C41.6939 2.8 42.1046 3.752 42.1046 4.872C42.1046 6.02933 41.6939 7.01867 40.8726 7.84C40.0886 8.624 39.1179 9.016 37.9606 9.016ZM67.7937 26.712C67.7937 25.144 67.383 23.688 66.5617 22.344C65.7777 20.9627 64.7137 19.8613 63.3697 19.04C62.0257 18.256 60.551 17.864 58.9457 17.864C57.3777 17.864 55.903 18.2747 54.5217 19.096C53.1777 19.88 52.1137 20.944 51.3297 22.288C50.5084 23.5947 50.0977 25.0693 50.0977 26.712C50.0977 28.28 50.4897 29.7547 51.2737 31.136C52.095 32.48 53.1777 33.544 54.5217 34.328C55.8284 35.1493 57.303 35.56 58.9457 35.56C60.5137 35.56 61.9697 35.168 63.3137 34.384C64.695 33.5627 65.7964 32.48 66.6177 31.136C67.4017 29.792 67.7937 28.3173 67.7937 26.712ZM67.7937 39.032C65.1057 40.936 62.1564 41.888 58.9457 41.888C56.2204 41.888 53.6817 41.216 51.3297 39.872C49.015 38.4907 47.1857 36.624 45.8417 34.272C44.4604 31.9947 43.7697 29.4747 43.7697 26.712C43.7697 23.9867 44.4417 21.4667 45.7857 19.152C47.167 16.8 49.0337 14.9333 51.3857 13.552C53.7004 12.208 56.2204 11.536 58.9457 11.536C61.6337 11.536 64.135 12.208 66.4497 13.552C68.8017 14.8587 70.6684 16.632 72.0497 18.872C73.431 21.1493 74.1217 23.6133 74.1217 26.264L74.0657 41.72H67.7937V39.032ZM89.0326 9.016C87.8752 9.016 86.8859 8.624 86.0646 7.84C85.2806 7.01867 84.8886 6.02933 84.8886 4.872C84.8886 3.752 85.2806 2.8 86.0646 2.016C86.8859 1.19466 87.8752 0.783997 89.0326 0.783997C90.1899 0.783997 91.1606 1.19466 91.9446 2.016C92.7659 2.8 93.1766 3.752 93.1766 4.872C93.1766 6.02933 92.7659 7.01867 91.9446 7.84C91.1606 8.624 90.1899 9.016 89.0326 9.016ZM75.8166 35.056C76.4886 35.1307 76.9179 35.168 77.1046 35.168C78.6726 35.168 80.1286 34.776 81.4726 33.992C82.8539 33.1707 83.9552 32.088 84.7766 30.744C85.5606 29.4 85.9526 27.9253 85.9526 26.32L85.8406 11.256H92.3926L92.4486 27.328C92.4486 29.9787 91.7579 32.424 90.3766 34.664C89.0326 36.904 87.1846 38.696 84.8326 40.04C82.4806 41.384 79.9606 42.056 77.2726 42.056L75.8166 41.944V35.056ZM95.8558 21.336C96.9758 18.424 98.8425 16.072 101.456 14.28C104.069 12.488 106.944 11.592 110.08 11.592C112.208 11.592 114.41 12.1147 116.688 13.16C118.965 14.168 120.906 15.848 122.512 18.2C124.266 20.8507 125.144 23.7067 125.144 26.768C125.144 27.5893 125.088 28.392 124.976 29.176L124.864 29.12V29.176L101.68 29.792C102.128 31.024 102.8 32.1067 103.696 33.04C104.592 33.936 105.637 34.608 106.832 35.056C107.802 35.4293 108.848 35.616 109.968 35.616C111.237 35.616 112.45 35.3733 113.608 34.888C114.802 34.3653 115.81 33.6373 116.632 32.704L122.736 35.056C121.354 37.184 119.525 38.864 117.248 40.096C114.97 41.328 112.544 41.944 109.968 41.944C107.802 41.944 105.581 41.44 103.304 40.432C101.064 39.3867 99.1411 37.6693 97.5358 35.28C95.7438 32.6293 94.8478 29.7733 94.8478 26.712C94.8478 24.92 95.1838 23.128 95.8558 21.336ZM101.624 23.968L118.256 23.576C117.845 22.4187 117.192 21.4107 116.296 20.552C115.437 19.656 114.41 18.984 113.216 18.536C112.245 18.1627 111.2 17.976 110.08 17.976C108.25 17.976 106.57 18.48 105.04 19.488C103.509 20.496 102.408 21.8773 101.736 23.632L101.624 23.968ZM8.792 104.056H1.456V73.648H8.792V104.056ZM4.984 71.016C3.82667 71.016 2.83733 70.624 2.016 69.84C1.232 69.0187 0.84 68.0293 0.84 66.872C0.84 65.752 1.232 64.8 2.016 64.016C2.83733 63.1947 3.82667 62.784 4.984 62.784C6.14133 62.784 7.112 63.1947 7.896 64.016C8.71733 64.8 9.128 65.752 9.128 66.872C9.128 68.0293 8.71733 69.0187 7.896 69.84C7.112 70.624 6.14133 71.016 4.984 71.016ZM33.5589 86.976C33.5589 84.8107 32.8122 83.112 31.3189 81.88C29.8255 80.6107 28.0149 79.976 25.8869 79.976C23.7215 79.976 21.8922 80.6107 20.3989 81.88C18.9055 83.112 18.1589 84.8107 18.1589 86.976V103.944H11.8869V86.976C11.8869 84.3627 12.5215 82.048 13.7909 80.032C15.0975 77.9787 16.8522 76.392 19.0549 75.272C21.2202 74.1893 23.4975 73.648 25.8869 73.648C28.3509 73.648 30.6469 74.208 32.7749 75.328C34.9029 76.4107 36.6389 77.9413 37.9829 79.92C39.2895 82.0107 39.9429 84.3627 39.9429 86.976L39.8309 103.944H33.5589V86.976ZM42.7569 62.952H50.0929V72.08H56.8129L55.0769 78.576H50.0929V103.832H42.7569V62.952ZM56.4261 83.336C57.5461 80.424 59.4128 78.072 62.0261 76.28C64.6395 74.488 67.5141 73.592 70.6501 73.592C72.7781 73.592 74.9808 74.1147 77.2581 75.16C79.5355 76.168 81.4768 77.848 83.0821 80.2C84.8368 82.8507 85.7141 85.7067 85.7141 88.768C85.7141 89.5893 85.6581 90.392 85.5461 91.176L85.4341 91.12V91.176L62.2501 91.792C62.6981 93.024 63.3701 94.1067 64.2661 95.04C65.1621 95.936 66.2075 96.608 67.4021 97.056C68.3728 97.4293 69.4181 97.616 70.5381 97.616C71.8075 97.616 73.0208 97.3733 74.1781 96.888C75.3728 96.3653 76.3808 95.6373 77.2021 94.704L83.3061 97.056C81.9248 99.184 80.0955 100.864 77.8181 102.096C75.5408 103.328 73.1141 103.944 70.5381 103.944C68.3728 103.944 66.1515 103.44 63.8741 102.432C61.6341 101.387 59.7115 99.6693 58.1061 97.28C56.3141 94.6293 55.4181 91.7733 55.4181 88.712C55.4181 86.92 55.7541 85.128 56.4261 83.336ZM62.1941 85.968L78.8261 85.576C78.4155 84.4187 77.7621 83.4107 76.8661 82.552C76.0075 81.656 74.9808 80.984 73.7861 80.536C72.8155 80.1627 71.7701 79.976 70.6501 79.976C68.8208 79.976 67.1408 80.48 65.6101 81.488C64.0795 82.496 62.9781 83.8773 62.3061 85.632L62.1941 85.968ZM95.3063 62.56V103.888H87.9703V62.56H95.3063ZM105.48 104.056H98.1435V73.648H105.48V104.056ZM101.672 71.016C100.514 71.016 99.5248 70.624 98.7035 69.84C97.9195 69.0187 97.5275 68.0293 97.5275 66.872C97.5275 65.752 97.9195 64.8 98.7035 64.016C99.5248 63.1947 100.514 62.784 101.672 62.784C102.829 62.784 103.8 63.1947 104.584 64.016C105.405 64.8 105.816 65.752 105.816 66.872C105.816 68.0293 105.405 69.0187 104.584 69.84C103.8 70.624 102.829 71.016 101.672 71.016ZM107.481 88.824C107.481 86.0987 108.153 83.5787 109.497 81.264C110.841 78.912 112.67 77.0453 114.985 75.664C117.262 74.2827 119.801 73.592 122.601 73.592C125.326 73.592 127.846 74.264 130.161 75.608C132.513 76.9147 134.379 78.7253 135.761 81.04C137.142 83.3173 137.833 85.8373 137.833 88.6C137.833 91.3253 137.179 93.8453 135.873 96.16C136.545 97.8773 136.881 99.632 136.881 101.424C136.881 103.851 136.302 106.072 135.145 108.088C133.987 110.141 132.363 111.728 130.273 112.848C128.182 113.931 126.091 114.472 124.001 114.472C122.097 114.472 120.267 114.08 118.513 113.296C116.758 112.512 115.246 111.392 113.977 109.936L118.961 107.192C119.67 107.789 120.454 108.237 121.313 108.536C122.209 108.872 123.105 109.04 124.001 109.04C125.233 109.04 126.409 108.723 127.529 108.088C128.686 107.453 129.545 106.632 130.105 105.624C130.665 104.691 130.945 103.608 130.945 102.376C130.945 101.928 130.926 101.648 130.889 101.536C128.387 103.141 125.662 103.944 122.713 103.944C119.987 103.944 117.449 103.272 115.097 101.928C112.782 100.584 110.934 98.7547 109.553 96.44C108.171 94.1627 107.481 91.624 107.481 88.824ZM113.809 88.824C113.809 90.392 114.201 91.8667 114.985 93.248C115.806 94.592 116.907 95.656 118.289 96.44C119.707 97.224 121.182 97.616 122.713 97.616C124.281 97.616 125.737 97.224 127.081 96.44C128.462 95.6187 129.545 94.5173 130.329 93.136C131.113 91.7173 131.505 90.2427 131.505 88.712C131.505 87.144 131.094 85.688 130.273 84.344C129.489 82.9627 128.406 81.88 127.025 81.096C125.643 80.312 124.169 79.92 122.601 79.92C121.033 79.92 119.558 80.3307 118.177 81.152C116.833 81.936 115.769 83.0187 114.985 84.4C114.201 85.7813 113.809 87.256 113.809 88.824ZM140.535 83.336C141.656 80.424 143.522 78.072 146.136 76.28C148.749 74.488 151.624 73.592 154.76 73.592C156.888 73.592 159.09 74.1147 161.368 75.16C163.645 76.168 165.586 77.848 167.192 80.2C168.946 82.8507 169.824 85.7067 169.824 88.768C169.824 89.5893 169.768 90.392 169.656 91.176L169.543 91.12V91.176L146.36 91.792C146.808 93.024 147.48 94.1067 148.376 95.04C149.272 95.936 150.317 96.608 151.512 97.056C152.482 97.4293 153.528 97.616 154.648 97.616C155.917 97.616 157.13 97.3733 158.288 96.888C159.482 96.3653 160.49 95.6373 161.312 94.704L167.416 97.056C166.034 99.184 164.205 100.864 161.928 102.096C159.65 103.328 157.224 103.944 154.648 103.944C152.482 103.944 150.261 103.44 147.984 102.432C145.744 101.387 143.821 99.6693 142.216 97.28C140.424 94.6293 139.528 91.7733 139.528 88.712C139.528 86.92 139.864 85.128 140.535 83.336ZM146.304 85.968L162.936 85.576C162.525 84.4187 161.872 83.4107 160.976 82.552C160.117 81.656 159.09 80.984 157.896 80.536C156.925 80.1627 155.88 79.976 154.76 79.976C152.93 79.976 151.25 80.48 149.72 81.488C148.189 82.496 147.088 83.8773 146.416 85.632L146.304 85.968ZM193.192 86.976C193.192 84.8107 192.445 83.112 190.952 81.88C189.458 80.6107 187.648 79.976 185.52 79.976C183.354 79.976 181.525 80.6107 180.032 81.88C178.538 83.112 177.792 84.8107 177.792 86.976V103.944H171.52V86.976C171.52 84.3627 172.154 82.048 173.424 80.032C174.73 77.9787 176.485 76.392 178.688 75.272C180.853 74.1893 183.13 73.648 185.52 73.648C187.984 73.648 190.28 74.208 192.408 75.328C194.536 76.4107 196.272 77.9413 197.616 79.92C198.922 82.0107 199.576 84.3627 199.576 86.976L199.464 103.944H193.192V86.976ZM202.39 62.952H209.726V72.08H216.446L214.71 78.576H209.726V103.832H202.39V62.952ZM216.059 83.336C217.179 80.424 219.046 78.072 221.659 76.28C224.272 74.488 227.147 73.592 230.283 73.592C232.411 73.592 234.614 74.1147 236.891 75.16C239.168 76.168 241.11 77.848 242.715 80.2C244.47 82.8507 245.347 85.7067 245.347 88.768C245.347 89.5893 245.291 90.392 245.179 91.176L245.067 91.12V91.176L221.883 91.792C222.331 93.024 223.003 94.1067 223.899 95.04C224.795 95.936 225.84 96.608 227.035 97.056C228.006 97.4293 229.051 97.616 230.171 97.616C231.44 97.616 232.654 97.3733 233.811 96.888C235.006 96.3653 236.014 95.6373 236.835 94.704L242.939 97.056C241.558 99.184 239.728 100.864 237.451 102.096C235.174 103.328 232.747 103.944 230.171 103.944C228.006 103.944 225.784 103.44 223.507 102.432C221.267 101.387 219.344 99.6693 217.739 97.28C215.947 94.6293 215.051 91.7733 215.051 88.712C215.051 86.92 215.387 85.128 216.059 83.336ZM221.827 85.968L238.459 85.576C238.048 84.4187 237.395 83.4107 236.499 82.552C235.64 81.656 234.614 80.984 233.419 80.536C232.448 80.1627 231.403 79.976 230.283 79.976C228.454 79.976 226.774 80.48 225.243 81.488C223.712 82.496 222.611 83.8773 221.939 85.632L221.827 85.968Z" fill="url(#paint0_radial)"/>
<defs>
<radialGradient id="paint0_radial" cx="0" cy="0" r="1" gradientUnits="userSpaceOnUse" gradientTransform="translate(28.6159 -12.0001) rotate(39.7254) scale(194.02 3186.56)">
<stop offset="0.00520833" stop-color="#3DA1FF"/>
<stop offset="1" stop-color="#6C33E4"/>
</radialGradient>
</defs>
</svg>
