<svg width="40" height="40" viewBox="0 0 40 40" fill="none" xmlns="http://www.w3.org/2000/svg">
<path d="M21.9688 14H18.0312V9.96875H21.9688V14ZM21.9688 30.0312H18.0312V18.0312H21.9688V30.0312ZM20 0.03125C14.3125 0.15625 9.59375 2.09375 5.84375 5.84375C2.09375 9.59375 0.15625 14.3125 0.03125 20C0.15625 25.6875 2.09375 30.4062 5.84375 34.1562C9.59375 37.9062 14.3125 39.8438 20 39.9688C25.6875 39.8438 30.4062 37.9062 34.1562 34.1562C37.9062 30.4062 39.8438 25.6875 39.9688 20C39.8438 14.3125 37.9062 9.59375 34.1562 5.84375C30.4062 2.09375 25.6875 0.15625 20 0.03125Z" fill="#106EFB"/>
</svg>
