<svg xmlns="http://www.w3.org/2000/svg" xmlns:xlink="http://www.w3.org/1999/xlink" width="18" height="18" viewBox="0 0 18 18">
  <defs>
    <clipPath id="clip-path">
      <path id="Trazado_21" data-name="Trazado 21" d="M9-18A9,9,0,0,0,0-9,9,9,0,0,0,9,0a9,9,0,0,0,9-9A9,9,0,0,0,9-18ZM13.351-5.967a.316.316,0,0,1,.092.225.309.309,0,0,1-.092.225l-.868.872a.313.313,0,0,1-.225.092.323.323,0,0,1-.225-.092L9-7.682,5.971-4.641a.306.306,0,0,1-.225.092.323.323,0,0,1-.225-.092l-.868-.872a.316.316,0,0,1-.092-.225.309.309,0,0,1,.092-.225L7.694-9.016l-3.05-3.013a.323.323,0,0,1,0-.454l.868-.872a.316.316,0,0,1,.225-.092.316.316,0,0,1,.225.092l3.042,3,3.042-3a.316.316,0,0,1,.225-.092.316.316,0,0,1,.225.092l.868.872a.323.323,0,0,1,0,.454l-3.05,3.013Z" fill="none"/>
    </clipPath>
    <clipPath id="clip-path-2">
      <path id="Trazado_20" data-name="Trazado 20" d="M-306,314H54V-326H-306Z" fill="none"/>
    </clipPath>
  </defs>
  <g id="Grupo_23" data-name="Grupo 23" transform="translate(0 18)">
    <g id="Grupo_22" data-name="Grupo 22" clip-path="url(#clip-path)">
      <g id="Grupo_21" data-name="Grupo 21" clip-path="url(#clip-path-2)">
        <path id="Trazado_19" data-name="Trazado 19" d="M-5-23H23V5H-5Z" fill="#c7c7cc"/>
      </g>
    </g>
  </g>
</svg>
