<svg xmlns="http://www.w3.org/2000/svg" width="216.067" height="70.452" viewBox="0 0 216.067 70.452">
  <g id="Grupo_3590" data-name="Grupo 3590" transform="translate(-54 -161.6)">
    <g id="Grupo_3587" data-name="Grupo 3587" transform="translate(54 161.6)">
      <g id="Grupo_3522" data-name="Grupo 3522">
        <text id="Tu_aliado_contra_COVID-19" data-name="Tu aliado contra el COVID-19" transform="translate(21.787 67.452)" fill="#3ed79d" font-size="12" font-family="Montserrat-Medium, Montserrat" font-weight="500"><tspan x="0" y="0">Tu aliado contra el COVID-19</tspan></text>
        <g id="Grupo_545" data-name="Grupo 545">
          <path id="Trazado_1691" data-name="Trazado 1691" d="M675.972,236.573a2.824,2.824,0,0,0,1.7-2.039,2.155,2.155,0,0,0,.06-.609,2.461,2.461,0,0,0-1.643-2.252,26.89,26.89,0,0,0-4.322-1.217l-2.069-.486a44.315,44.315,0,0,1-6.026-2.07,9.723,9.723,0,0,1-3.652-2.678,6.339,6.339,0,0,1-1.339-4.139,10.744,10.744,0,0,1,1.522-5.6,7.673,7.673,0,0,1,4.139-3.47,18.578,18.578,0,0,1,6.087-.791,76.2,76.2,0,0,1,11.139.974l-2.192,5.9-8.7-.791q-3.895-.061-4.443,2.131a3.449,3.449,0,0,0-.061.669q0,1.1,1.887,1.826a48.393,48.393,0,0,0,5.356,1.582,39.112,39.112,0,0,1,7.852,2.557q4.139,2.312,4.139,6.513a13.429,13.429,0,0,1-.3,2.557,9.777,9.777,0,0,1-4.778,6.422q-3.743,2.161-10.013,1.978l-9.556-.974,2.739-6.269,8.156.852A10.45,10.45,0,0,0,675.972,236.573Z" transform="translate(-658.686 -196.932)" fill="#3ed79d"/>
          <path id="Trazado_1692" data-name="Trazado 1692" d="M722.885,210.128a17.429,17.429,0,0,1,7.182,1.674,15.26,15.26,0,0,1,6.331,5.508,16.559,16.559,0,0,1,2.861,9.313,18.5,18.5,0,0,1-.183,2.618l-.122-.061v.061l-25.2.669a9.644,9.644,0,0,0,2.192,3.5,9.267,9.267,0,0,0,3.409,2.222,9.417,9.417,0,0,0,3.409.609,10.021,10.021,0,0,0,3.987-.821,9,9,0,0,0,3.256-2.344l6.635,2.557a16.152,16.152,0,0,1-5.965,5.479,16.39,16.39,0,0,1-7.913,2.008,17.351,17.351,0,0,1-7.213-1.674,15.191,15.191,0,0,1-6.3-5.57,16.309,16.309,0,0,1-2.921-9.312,16.542,16.542,0,0,1,1.1-5.843,16.649,16.649,0,0,1,15.461-10.591Zm8.887,13.025a8.807,8.807,0,0,0-2.1-3.317,9.586,9.586,0,0,0-6.787-2.77,9.758,9.758,0,0,0-5.478,1.643,9.183,9.183,0,0,0-3.591,4.5l-.122.365Z" transform="translate(-677.784 -196.493)" fill="#3ed79d"/>
          <path id="Trazado_1693" data-name="Trazado 1693" d="M785.455,219.147a9.655,9.655,0,0,0-11.87,0,6.879,6.879,0,0,0-2.435,5.569v18.443h-6.817V224.716a13.862,13.862,0,0,1,2.1-7.578,14.23,14.23,0,0,1,5.691-5.143,16.386,16.386,0,0,1,7.426-1.766,16.049,16.049,0,0,1,7.487,1.8,15.161,15.161,0,0,1,5.661,5.022,14.169,14.169,0,0,1,2.13,7.669l-.122,18.443H787.89V224.716A6.878,6.878,0,0,0,785.455,219.147Z" transform="translate(-701.036 -196.534)" fill="#3ed79d"/>
          <path id="Trazado_1694" data-name="Trazado 1694" d="M835.561,236.573a2.823,2.823,0,0,0,1.7-2.039,2.135,2.135,0,0,0,.06-.609,2.461,2.461,0,0,0-1.643-2.252,26.909,26.909,0,0,0-4.322-1.217l-2.069-.486a44.315,44.315,0,0,1-6.026-2.07,9.723,9.723,0,0,1-3.652-2.678,6.339,6.339,0,0,1-1.339-4.139,10.75,10.75,0,0,1,1.522-5.6,7.672,7.672,0,0,1,4.139-3.47,18.58,18.58,0,0,1,6.087-.791,76.2,76.2,0,0,1,11.139.974l-2.192,5.9-8.7-.791q-3.9-.061-4.444,2.131a3.449,3.449,0,0,0-.06.669q0,1.1,1.887,1.826A48.4,48.4,0,0,0,833,223.517a39.11,39.11,0,0,1,7.852,2.557Q845,228.386,845,232.587a13.429,13.429,0,0,1-.3,2.557,9.777,9.777,0,0,1-4.778,6.422q-3.743,2.161-10.013,1.978l-9.556-.974,2.739-6.269,8.156.852A10.449,10.449,0,0,0,835.561,236.573Z" transform="translate(-722.659 -196.932)" fill="#3ed79d"/>
          <path id="Trazado_1695" data-name="Trazado 1695" d="M865.918,194.761a4.278,4.278,0,0,1,1.308-3.135,4.556,4.556,0,0,1,6.391,0,4.278,4.278,0,0,1,1.309,3.135,4.5,4.5,0,1,1-9.008,0Zm.669,40.416V202.125h7.974v33.052Z" transform="translate(-741.757 -188.552)" fill="#3ed79d"/>
          <path id="Trazado_1696" data-name="Trazado 1696" d="M907.859,193.318a13.882,13.882,0,0,1,5.174-3.2,19.488,19.488,0,0,1,6.7-1.126,17.473,17.473,0,0,1,8.034,1.8,13.144,13.144,0,0,1,5.479,5.083,14.713,14.713,0,0,1,1.948,7.426,13.2,13.2,0,0,1-5.783,11.444q-1.886,1.339-7.182,4.322a52.418,52.418,0,0,0-6.452,4.078,14.207,14.207,0,0,0-3.469,3.591h22.034v7.913H902.38A20.6,20.6,0,0,1,904.328,225a20.1,20.1,0,0,1,5.722-7.091,91.989,91.989,0,0,1,8.7-5.539q3.714-2.191,5.113-3.226a7.322,7.322,0,0,0,2.13-2.374,6.438,6.438,0,0,0,.852-3.408,6.725,6.725,0,0,0-2.039-5.144A7.718,7.718,0,0,0,919.3,196.3q-6.209,0-7.244,5.965a2.841,2.841,0,0,1-.821,1.583,2.169,2.169,0,0,1-1.552.609h-6.208Q903.78,197.4,907.859,193.318Z" transform="translate(-756.371 -188.022)" fill="#3ed79d"/>
          <path id="Trazado_1697" data-name="Trazado 1697" d="M962.318,223.04a33.259,33.259,0,0,1-2.13-12.357,32.308,32.308,0,0,1,2.161-12.326,18.1,18.1,0,0,1,6.178-8.126,16.2,16.2,0,0,1,9.435-2.861,15.942,15.942,0,0,1,9.4,2.8,17.583,17.583,0,0,1,6.118,8.095,34.058,34.058,0,0,1,2.13,12.417,33.1,33.1,0,0,1-2.13,12.448A17.686,17.686,0,0,1,987.4,231.2a17.372,17.372,0,0,1-18.96-.03A17.785,17.785,0,0,1,962.318,223.04Zm24.956-12.357q0-7.73-2.4-11.808a7.6,7.6,0,0,0-6.909-4.078,7.723,7.723,0,0,0-7,4.048q-2.435,4.048-2.435,11.839,0,7.731,2.435,11.779a7.723,7.723,0,0,0,7,4.048,7.609,7.609,0,0,0,6.939-3.987Q987.273,218.536,987.274,210.684Z" transform="translate(-779.546 -187.371)" fill="#3ed79d"/>
        </g>
      </g>
    </g>
  </g>
</svg>
