<svg xmlns="http://www.w3.org/2000/svg" width="251.311" height="82.497" viewBox="0 0 251.311 82.497">
  <g id="Grupo_3587" data-name="Grupo 3587" transform="translate(-54 -161.6)">
    <g id="Grupo_3522" data-name="Grupo 3522">
      <text id="Tu_aliado_contra_COVID-19" data-name="Tu aliado contra el COVID-19" transform="translate(79.341 240.097)" fill="#fff" font-size="14" font-family="Montserrat-Medium, Montserrat" font-weight="500"><tspan x="0" y="0">Tu aliado contra el COVID-19</tspan></text>
      <g id="Grupo_545" data-name="Grupo 545" transform="translate(54 161.6)">
        <path id="Trazado_1691" data-name="Trazado 1691" d="M678.792,240.709a3.284,3.284,0,0,0,1.983-2.371,2.507,2.507,0,0,0,.07-.708,2.862,2.862,0,0,0-1.911-2.62,31.278,31.278,0,0,0-5.027-1.416l-2.407-.566a51.548,51.548,0,0,1-7.009-2.408,11.309,11.309,0,0,1-4.247-3.115,7.373,7.373,0,0,1-1.558-4.814,12.5,12.5,0,0,1,1.77-6.514,8.924,8.924,0,0,1,4.814-4.036,21.609,21.609,0,0,1,7.08-.92,88.633,88.633,0,0,1,12.956,1.132l-2.549,6.868-10.124-.921q-4.53-.071-5.168,2.478a4.009,4.009,0,0,0-.07.778q0,1.274,2.194,2.124a56.289,56.289,0,0,0,6.23,1.84,45.489,45.489,0,0,1,9.133,2.974q4.814,2.69,4.814,7.575a15.619,15.619,0,0,1-.354,2.974,11.372,11.372,0,0,1-5.557,7.469q-4.354,2.513-11.646,2.3l-11.115-1.132,3.186-7.292,9.487.991A12.155,12.155,0,0,0,678.792,240.709Z" transform="translate(-658.686 -194.601)" fill="#fff"/>
        <path id="Trazado_1692" data-name="Trazado 1692" d="M725.586,210.128a20.272,20.272,0,0,1,8.354,1.947,17.749,17.749,0,0,1,7.363,6.406,19.26,19.26,0,0,1,3.328,10.832,21.515,21.515,0,0,1-.213,3.045l-.141-.07v.07l-29.31.778a11.218,11.218,0,0,0,2.549,4.071,10.779,10.779,0,0,0,3.965,2.584,10.953,10.953,0,0,0,3.964.708,11.656,11.656,0,0,0,4.637-.955,10.468,10.468,0,0,0,3.787-2.726l7.717,2.974a18.787,18.787,0,0,1-6.938,6.372,19.064,19.064,0,0,1-9.2,2.336,20.181,20.181,0,0,1-8.39-1.947,17.67,17.67,0,0,1-7.328-6.478,18.969,18.969,0,0,1-3.4-10.831,19.24,19.24,0,0,1,1.274-6.8,19.364,19.364,0,0,1,17.983-12.319Zm10.337,15.15a10.244,10.244,0,0,0-2.443-3.858,11.15,11.15,0,0,0-7.894-3.222,11.35,11.35,0,0,0-6.371,1.912,10.682,10.682,0,0,0-4.177,5.239l-.141.425Z" transform="translate(-673.128 -194.269)" fill="#fff"/>
        <path id="Trazado_1693" data-name="Trazado 1693" d="M788.9,220.6a11.229,11.229,0,0,0-13.806,0,8,8,0,0,0-2.832,6.477V248.53h-7.929V227.079a16.124,16.124,0,0,1,2.443-8.814,16.551,16.551,0,0,1,6.62-5.982,19.059,19.059,0,0,1,8.637-2.054,18.667,18.667,0,0,1,8.708,2.089,17.634,17.634,0,0,1,6.584,5.841,16.48,16.48,0,0,1,2.478,8.92l-.141,21.452h-7.93V227.079A8,8,0,0,0,788.9,220.6Z" transform="translate(-690.711 -194.3)" fill="#fff"/>
        <path id="Trazado_1694" data-name="Trazado 1694" d="M838.381,240.709a3.284,3.284,0,0,0,1.983-2.371,2.482,2.482,0,0,0,.07-.708,2.862,2.862,0,0,0-1.911-2.62,31.3,31.3,0,0,0-5.027-1.416l-2.407-.566a51.548,51.548,0,0,1-7.009-2.408,11.309,11.309,0,0,1-4.247-3.115,7.373,7.373,0,0,1-1.557-4.814,12.5,12.5,0,0,1,1.77-6.514,8.924,8.924,0,0,1,4.814-4.036,21.611,21.611,0,0,1,7.08-.92,88.633,88.633,0,0,1,12.956,1.132l-2.549,6.868-10.123-.921q-4.531-.071-5.169,2.478a4.009,4.009,0,0,0-.07.778q0,1.274,2.194,2.124a56.3,56.3,0,0,0,6.23,1.84,45.489,45.489,0,0,1,9.133,2.974q4.815,2.69,4.814,7.575a15.623,15.623,0,0,1-.354,2.974,11.372,11.372,0,0,1-5.558,7.469q-4.354,2.513-11.646,2.3l-11.115-1.132,3.186-7.292,9.486.991A12.153,12.153,0,0,0,838.381,240.709Z" transform="translate(-707.062 -194.601)" fill="#fff"/>
        <path id="Trazado_1695" data-name="Trazado 1695" d="M865.918,195.486a4.975,4.975,0,0,1,1.522-3.647,5.3,5.3,0,0,1,7.434,0,4.976,4.976,0,0,1,1.522,3.647,5.239,5.239,0,1,1-10.477,0Zm.778,47.009V204.052h9.275v38.443Z" transform="translate(-721.504 -188.264)" fill="#fff"/>
        <path id="Trazado_1696" data-name="Trazado 1696" d="M908.753,194.023a16.147,16.147,0,0,1,6.018-3.716,22.667,22.667,0,0,1,7.788-1.31,20.323,20.323,0,0,1,9.345,2.089A15.289,15.289,0,0,1,938.276,197a17.114,17.114,0,0,1,2.266,8.637,15.353,15.353,0,0,1-6.726,13.31q-2.194,1.557-8.354,5.027a60.969,60.969,0,0,0-7.5,4.744,16.524,16.524,0,0,0-4.035,4.177H939.55v9.2H902.382a23.959,23.959,0,0,1,2.266-11.221,23.383,23.383,0,0,1,6.655-8.248,107.007,107.007,0,0,1,10.123-6.443q4.319-2.548,5.947-3.753a8.516,8.516,0,0,0,2.478-2.761,7.488,7.488,0,0,0,.991-3.964,7.822,7.822,0,0,0-2.371-5.983,8.977,8.977,0,0,0-6.407-2.23q-7.222,0-8.425,6.938a3.3,3.3,0,0,1-.955,1.841,2.523,2.523,0,0,1-1.806.708h-7.221Q904.009,198.766,908.753,194.023Z" transform="translate(-732.555 -187.864)" fill="#fff"/>
        <path id="Trazado_1697" data-name="Trazado 1697" d="M962.665,228.858a38.684,38.684,0,0,1-2.478-14.372A37.578,37.578,0,0,1,962.7,200.15a21.054,21.054,0,0,1,7.185-9.452,18.838,18.838,0,0,1,10.974-3.328,18.542,18.542,0,0,1,10.938,3.257,20.45,20.45,0,0,1,7.116,9.415,39.613,39.613,0,0,1,2.477,14.443,38.5,38.5,0,0,1-2.477,14.478,20.571,20.571,0,0,1-7.08,9.381,20.206,20.206,0,0,1-22.053-.035A20.686,20.686,0,0,1,962.665,228.858Zm29.027-14.372q0-8.991-2.8-13.735a8.837,8.837,0,0,0-8.036-4.744,8.983,8.983,0,0,0-8.142,4.708q-2.832,4.708-2.832,13.77,0,8.992,2.832,13.7a8.983,8.983,0,0,0,8.142,4.708,8.851,8.851,0,0,0,8.071-4.638Q991.692,223.619,991.692,214.486Z" transform="translate(-750.08 -187.371)" fill="#fff"/>
      </g>
    </g>
  </g>
</svg>
