<svg id="Grupo_3228" data-name="Grupo 3228" xmlns="http://www.w3.org/2000/svg" width="121.369" height="26.19" viewBox="0 0 121.369 26.19">
  <path id="Trazado_1691" data-name="Trazado 1691" d="M668.4,225.462a1.586,1.586,0,0,0,.957-1.145,1.209,1.209,0,0,0,.034-.342,1.382,1.382,0,0,0-.923-1.265,15.1,15.1,0,0,0-2.427-.684l-1.162-.273a24.887,24.887,0,0,1-3.385-1.163,5.462,5.462,0,0,1-2.051-1.5,3.56,3.56,0,0,1-.752-2.325,6.036,6.036,0,0,1,.855-3.146,4.31,4.31,0,0,1,2.325-1.949,10.435,10.435,0,0,1,3.419-.444,42.805,42.805,0,0,1,6.257.547l-1.231,3.317-4.889-.445q-2.188-.034-2.5,1.2a1.935,1.935,0,0,0-.034.376q0,.615,1.06,1.026a27.181,27.181,0,0,0,3.009.889,21.966,21.966,0,0,1,4.411,1.436,4.023,4.023,0,0,1,2.325,3.658,7.541,7.541,0,0,1-.171,1.436,5.492,5.492,0,0,1-2.684,3.607,10.587,10.587,0,0,1-5.624,1.111l-5.368-.547,1.539-3.522,4.581.479A5.871,5.871,0,0,0,668.4,225.462Z" transform="translate(-658.686 -203.195)" fill="#fff"/>
  <path id="Trazado_1692" data-name="Trazado 1692" d="M715.629,210.128a9.79,9.79,0,0,1,4.035.94,8.572,8.572,0,0,1,3.556,3.094,9.3,9.3,0,0,1,1.607,5.231,10.386,10.386,0,0,1-.1,1.47l-.068-.034v.034l-14.155.376a5.419,5.419,0,0,0,1.231,1.966,5.206,5.206,0,0,0,1.915,1.248,5.289,5.289,0,0,0,1.915.342,5.629,5.629,0,0,0,2.239-.461,5.056,5.056,0,0,0,1.829-1.317l3.727,1.436a9.073,9.073,0,0,1-3.351,3.077,9.207,9.207,0,0,1-4.445,1.128,9.746,9.746,0,0,1-4.052-.94,8.533,8.533,0,0,1-3.539-3.129,9.161,9.161,0,0,1-1.641-5.231,9.292,9.292,0,0,1,.615-3.282,9.352,9.352,0,0,1,8.685-5.949Zm4.992,7.317a4.946,4.946,0,0,0-1.18-1.863,5.385,5.385,0,0,0-3.812-1.556,5.481,5.481,0,0,0-3.077.923,5.159,5.159,0,0,0-2.017,2.53l-.068.205Z" transform="translate(-690.295 -202.469)" fill="#fff"/>
  <path id="Trazado_1693" data-name="Trazado 1693" d="M776.2,215.238a5.423,5.423,0,0,0-6.667,0,3.864,3.864,0,0,0-1.368,3.128v10.36h-3.829v-10.36a7.787,7.787,0,0,1,1.18-4.257,7.993,7.993,0,0,1,3.2-2.889,9.2,9.2,0,0,1,4.171-.992,9.016,9.016,0,0,1,4.206,1.009,8.516,8.516,0,0,1,3.18,2.821,7.958,7.958,0,0,1,1.2,4.308l-.068,10.36h-3.83v-10.36A3.864,3.864,0,0,0,776.2,215.238Z" transform="translate(-728.778 -202.536)" fill="#fff"/>
  <path id="Trazado_1694" data-name="Trazado 1694" d="M827.985,225.462a1.586,1.586,0,0,0,.957-1.145,1.2,1.2,0,0,0,.034-.342,1.382,1.382,0,0,0-.923-1.265,15.117,15.117,0,0,0-2.428-.684l-1.162-.273a24.891,24.891,0,0,1-3.385-1.163,5.462,5.462,0,0,1-2.051-1.5,3.561,3.561,0,0,1-.752-2.325,6.038,6.038,0,0,1,.855-3.146,4.31,4.31,0,0,1,2.325-1.949,10.437,10.437,0,0,1,3.419-.444,42.8,42.8,0,0,1,6.257.547l-1.231,3.317-4.889-.445q-2.188-.034-2.5,1.2a1.936,1.936,0,0,0-.034.376q0,.615,1.06,1.026a27.189,27.189,0,0,0,3.009.889,21.967,21.967,0,0,1,4.411,1.436,4.022,4.022,0,0,1,2.325,3.658,7.545,7.545,0,0,1-.171,1.436,5.492,5.492,0,0,1-2.684,3.607,10.586,10.586,0,0,1-5.624,1.111l-5.368-.547,1.539-3.522,4.581.479A5.869,5.869,0,0,0,827.985,225.462Z" transform="translate(-764.566 -203.195)" fill="#fff"/>
  <path id="Trazado_1695" data-name="Trazado 1695" d="M865.918,192.813a2.4,2.4,0,0,1,.735-1.761,2.559,2.559,0,0,1,3.59,0,2.4,2.4,0,0,1,.735,1.761,2.53,2.53,0,1,1-5.06,0Zm.376,22.7V196.95h4.479v18.566Z" transform="translate(-796.175 -189.326)" fill="#fff"/>
  <path id="Trazado_1696" data-name="Trazado 1696" d="M905.455,191.424a7.8,7.8,0,0,1,2.906-1.795,10.947,10.947,0,0,1,3.761-.633A9.815,9.815,0,0,1,916.635,190a7.384,7.384,0,0,1,3.077,2.855,8.265,8.265,0,0,1,1.094,4.171,7.415,7.415,0,0,1-3.248,6.428q-1.06.752-4.035,2.428a29.443,29.443,0,0,0-3.624,2.291,7.979,7.979,0,0,0-1.949,2.017h12.377v4.445h-17.95a11.57,11.57,0,0,1,1.094-5.419,11.292,11.292,0,0,1,3.214-3.983,51.672,51.672,0,0,1,4.889-3.111q2.086-1.231,2.872-1.812a4.113,4.113,0,0,0,1.2-1.333,3.616,3.616,0,0,0,.479-1.915,3.778,3.778,0,0,0-1.145-2.889,4.335,4.335,0,0,0-3.094-1.077,3.687,3.687,0,0,0-4.069,3.351,1.6,1.6,0,0,1-.461.889,1.218,1.218,0,0,1-.872.342h-3.487A9.035,9.035,0,0,1,905.455,191.424Z" transform="translate(-820.361 -188.449)" fill="#fff"/>
  <path id="Trazado_1697" data-name="Trazado 1697" d="M961.384,207.407a18.684,18.684,0,0,1-1.2-6.941,18.147,18.147,0,0,1,1.214-6.923,10.168,10.168,0,0,1,3.47-4.565,9.1,9.1,0,0,1,5.3-1.607,8.954,8.954,0,0,1,5.282,1.573,9.876,9.876,0,0,1,3.437,4.547,19.131,19.131,0,0,1,1.2,6.975,18.592,18.592,0,0,1-1.2,6.992,9.935,9.935,0,0,1-3.419,4.53,9.758,9.758,0,0,1-10.65-.017A9.99,9.99,0,0,1,961.384,207.407Zm14.018-6.941a13.229,13.229,0,0,0-1.35-6.633,4.268,4.268,0,0,0-3.881-2.291,4.338,4.338,0,0,0-3.932,2.274,16.768,16.768,0,0,0,0,13.266,4.338,4.338,0,0,0,3.932,2.274,4.274,4.274,0,0,0,3.9-2.24A13.239,13.239,0,0,0,975.4,200.466Z" transform="translate(-858.718 -187.371)" fill="#fff"/>
</svg>
